<svg width="18" height="24" fill="none" xmlns="http://www.w3.org/2000/svg"><path d="M9 0C4.037 0 0 4.037 0 9c0 6.239 8.124 14.434 8.47 14.781a.753.753 0 001.061 0c.345-.346 8.47-8.542 8.47-14.781 0-4.963-4.037-9-9-9zm0 22.166C7.21 20.248 1.5 13.766 1.5 9c0-4.136 3.365-7.5 7.5-7.5 4.136 0 7.5 3.364 7.5 7.5 0 4.761-5.709 11.248-7.5 13.166z" fill="#FF4C00"/><path d="M9 4.5A4.505 4.505 0 004.5 9c0 2.481 2.02 4.5 4.5 4.5 2.481 0 4.5-2.019 4.5-4.5S11.481 4.5 9 4.5zM9 12c-1.654 0-3-1.345-3-3 0-1.654 1.346-3 3-3 1.655 0 3 1.346 3 3 0 1.655-1.345 3-3 3z" fill="#FF4C00"/></svg>