<svg width="33" height="33" fill="none" xmlns="http://www.w3.org/2000/svg"><path d="M3.63 13.695c.33-1.485.99-2.97 1.815-4.29L3.795 5.94l2.31-2.31L9.57 5.28c1.32-.825 2.64-1.32 4.125-1.65L14.85 0h3.3l1.32 3.63c1.485.33 2.805.99 4.125 1.815l3.465-1.65 2.31 2.145-1.65 3.465c.825 1.32 1.32 2.64 1.65 4.125L33 14.85v3.3l-3.63 1.32c-.33 1.485-.99 2.97-1.65 4.125l1.65 3.465-2.31 2.31-3.465-1.65c-1.32.825-2.64 1.485-4.125 1.815L18.15 33h-3.3l-1.32-3.63c-.495-.165-1.155-.33-1.65-.495l2.64-2.64C20.79 27.39 26.4 22.77 26.4 16.5c0-5.445-4.455-9.9-9.9-9.9-6.105 0-10.725 5.445-9.735 11.22L3.96 20.625c-.165-.495-.33-.825-.33-1.32L0 18.15v-3.3l3.63-1.155z" fill="#FF4C00"/><path d="M.66 28.71l9.735-9.735C8.085 13.86 12.87 8.415 18.15 9.9l-2.97 2.97c-1.32 1.32-1.32 3.465 0 4.62 1.155 1.32 3.465 1.32 4.62 0l2.97-2.805c1.485 4.62-3.3 9.9-8.745 7.755L4.29 32.175c-.99.99-2.475.99-3.465 0-.99-.825-.99-2.475-.165-3.465z" fill="#FF4C00"/></svg>