<svg width="44" height="52" fill="none" xmlns="http://www.w3.org/2000/svg"><path d="M37.557 6.385C33.4 2.268 27.877 0 22 0 16.124 0 10.6 2.268 6.444 6.385 2.288 10.503 0 15.977 0 21.8c0 5.824 2.288 11.298 6.444 15.416l14.47 14.338c.3.297.693.446 1.086.446a1.54 1.54 0 001.087-.446l14.47-14.338C41.711 33.098 44 27.624 44 21.801c0-5.824-2.288-11.298-6.443-15.416zm-8.648 22.262A9.752 9.752 0 0122 31.483a9.751 9.751 0 01-6.909-2.836A9.574 9.574 0 0112.23 21.8a9.575 9.575 0 012.861-6.847 9.752 9.752 0 016.91-2.836 9.752 9.752 0 016.908 2.836 9.575 9.575 0 012.862 6.846 9.576 9.576 0 01-2.862 6.847z" fill="#FF4C00"/></svg>