<svg width="88" height="88" fill="none" xmlns="http://www.w3.org/2000/svg"><path fill-rule="evenodd" clip-rule="evenodd" d="M44 2.015C20.812 2.015 2.015 20.812 2.015 44S20.812 85.985 44 85.985 85.985 67.188 85.985 44 67.188 2.015 44 2.015zM0 44C0 19.7 19.7 0 44 0s44 19.7 44 44-19.7 44-44 44S0 68.3 0 44z" fill="#fff"/><path fill-rule="evenodd" clip-rule="evenodd" d="M12.755 36.7c-4.078 17.271 6.617 34.578 23.887 38.656C53.913 79.434 71.22 68.74 75.298 51.47c4.078-17.27-6.617-34.577-23.888-38.655C34.14 8.736 16.834 19.43 12.755 36.7zM36.18 77.318C17.826 72.984 6.46 54.592 10.794 36.237 15.128 17.885 33.52 6.52 51.874 10.853c18.353 4.334 29.719 22.726 25.385 41.08s-22.726 29.72-41.08 25.385z" fill="#fff"/><path fill-rule="evenodd" clip-rule="evenodd" d="M52.573 62.28c-.675-7.424 5.247-13.776 12.716-13.776h11.437a1.008 1.008 0 110 2.015H65.29c-6.31 0-11.273 5.36-10.71 11.576.337 3.493 1.211 7.669 3.032 12.188a1.008 1.008 0 11-1.869.753c-1.899-4.712-2.816-9.079-3.169-12.75v-.006zM32.798 32.114c7.21-2.998 15.272-2.924 22.4-.001C59.646 33.932 64.339 35 69.079 35h7.166a1.008 1.008 0 110 2.016h-7.166c-5.043 0-9.995-1.137-14.643-3.038-6.65-2.727-14.16-2.791-20.866-.002l-.005.002c-4.646 1.9-9.53 3.038-14.574 3.038h-7.166a1.008 1.008 0 010-2.016h7.166c4.737 0 9.36-1.067 13.808-2.886zM10.334 49.512c0-.557.45-1.008 1.007-1.008H22.78c7.468 0 13.39 6.352 12.716 13.776v.005c-.354 3.672-1.27 8.04-3.17 12.751a1.008 1.008 0 11-1.869-.753c1.821-4.52 2.696-8.695 3.032-12.188.563-6.216-4.4-11.576-10.71-11.576H11.342a1.008 1.008 0 01-1.007-1.007zm27.881-5.676a5.95 5.95 0 1011.583 2.735 5.95 5.95 0 00-11.583-2.735zm3.961 9.12a7.966 7.966 0 113.662-15.505 7.966 7.966 0 01-3.662 15.506z" fill="#fff"/><path d="M43.999 47.583a2.47 2.47 0 01-2.48-2.48 2.47 2.47 0 012.48-2.481 2.47 2.47 0 012.48 2.48 2.47 2.47 0 01-2.48 2.48z" fill="#fff"/></svg>