<svg width="92" height="82" fill="none" xmlns="http://www.w3.org/2000/svg"><path fill-rule="evenodd" clip-rule="evenodd" d="M8.743 6.192a4.066 4.066 0 00-5.701 0 3.95 3.95 0 000 5.633l21.52 21.262a.912.912 0 01.24.893 9.056 9.056 0 002.366 8.88 9.231 9.231 0 006.694 2.676l-2.05-2.026c-1.272-1.181-1.663-2.918-1.259-4.515l.005-.017c.757-2.768 2.95-4.855 5.661-5.599l.013-.003c1.557-.405 3.385-.016 4.58 1.24l2.026 2.002c.028-2.393-.85-4.779-2.683-6.59-2.427-2.397-5.887-3.179-8.987-2.338a.938.938 0 01-.905-.236L8.743 6.192zm-7.017-1.3c2.302-2.274 6.032-2.274 8.333 0l21.149 20.895c3.576-.784 7.48.194 10.262 2.942 2.78 2.746 3.72 6.567 2.994 10.078a.923.923 0 01-.644.696.938.938 0 01-.925-.23l-3.409-3.367a.957.957 0 01-.022-.023c-.675-.714-1.777-.982-2.753-.73-2.095.577-3.773 2.184-4.355 4.296-.259 1.036.015 2.062.737 2.728a.955.955 0 01.023.022l3.409 3.368a.91.91 0 01.235.906.926.926 0 01-.69.64 11.104 11.104 0 01-10.218-2.954 10.877 10.877 0 01-2.977-10.14L1.726 13.126a5.772 5.772 0 010-8.233z" fill="#fff"/><path fill-rule="evenodd" clip-rule="evenodd" d="M29.572 19.656c2.608-1.88 5.67-3.016 8.903-3.016 5.208 0 9.872 2.822 13.201 7.237C55.006 28.292 57.05 34.35 57.05 41c0 6.648-2.025 12.705-5.338 17.121-3.312 4.415-7.96 7.239-13.17 7.239-4.993 0-9.453-2.594-12.718-6.69-3.26-4.087-5.37-9.709-5.719-15.938-.07-.574-.07-1.14-.07-1.704V41c0-.508.417-.92.93-.92.514 0 .931.412.931.92 0 .605.001 1.075.06 1.537a.919.919 0 01.005.064c.325 5.908 2.323 11.168 5.324 14.932 3 3.762 6.961 5.989 11.258 5.989 4.481 0 8.621-2.426 11.675-6.496 3.052-4.069 4.971-9.733 4.971-16.026 0-6.292-1.934-11.955-5.004-16.025-3.07-4.07-7.227-6.497-11.71-6.497-2.781 0-5.467.977-7.805 2.663a.938.938 0 01-1.3-.201.912.912 0 01.203-1.284z" fill="#fff"/><path fill-rule="evenodd" clip-rule="evenodd" d="M10.865 25.326a.918.918 0 01.635 1.139A51.854 51.854 0 009.398 41c0 10.883 3.306 20.707 8.606 27.789 5.3 7.082 12.548 11.372 20.471 11.372.514 0 .93.412.93.92a.925.925 0 01-.93.919c-8.652 0-16.407-4.69-21.967-12.118-5.56-7.429-8.97-17.645-8.97-28.882a53.651 53.651 0 012.174-15.047.932.932 0 011.153-.627zm7.937-15.974C24.091 3.516 30.946 0 38.476 0c8.651 0 16.407 4.69 21.967 12.118 5.56 7.429 8.97 17.645 8.97 28.882 0 15.679-6.575 29.329-16.429 36.273a.938.938 0 01-1.298-.215.912.912 0 01.218-1.282c9.26-6.525 15.65-19.552 15.65-34.776 0-10.883-3.307-20.707-8.607-27.789C53.647 6.129 46.4 1.838 38.476 1.838c-6.906 0-13.284 3.22-18.287 8.74a.938.938 0 01-1.314.072.911.911 0 01-.073-1.298z" fill="#fff"/><path fill-rule="evenodd" clip-rule="evenodd" d="M37.543.92c0-.508.417-.92.93-.92h22.59C69.714 0 77.47 4.69 83.03 12.118 88.59 19.547 92 29.763 92 41c0 11.226-3.237 21.44-8.628 28.871C77.98 77.305 70.388 82 61.731 82H38.473a.925.925 0 01-.93-.92c0-.507.417-.918.93-.918h23.258c7.917 0 14.995-4.285 20.129-11.362 5.135-7.08 8.28-16.906 8.28-27.8 0-10.883-3.306-20.707-8.606-27.789-5.3-7.082-12.549-11.373-20.471-11.373h-22.59a.925.925 0 01-.93-.919z" fill="#fff"/><path d="M87.062 41c0 9.97-2.74 19.215-7.686 26.016-4.344 6.009-10.092 9.575-16.174 10.037C71.69 69.129 77.17 56.055 77.17 41c0-14.923-5.747-28.063-14.502-36.053C76.235 6.07 87.062 21.851 87.062 41z" fill="#fff"/><path fill-rule="evenodd" clip-rule="evenodd" d="M39.543 48.228a.935.935 0 011.242.428l2.807 5.745a.914.914 0 01-.433 1.227.935.935 0 01-1.243-.428l-2.807-5.745a.914.914 0 01.434-1.227zm3.097-1.326a.937.937 0 011.288-.266l5.413 3.5c.43.278.55.847.27 1.272a.937.937 0 01-1.288.266l-5.414-3.5a.912.912 0 01-.269-1.272zm-6.027 2.888a.923.923 0 01.85.993l-.535 6.339a.927.927 0 01-1.004.84.923.923 0 01-.85-.993l.535-6.339a.927.927 0 011.004-.84z" fill="#fff"/></svg>