<svg width="90" height="79" fill="none" xmlns="http://www.w3.org/2000/svg"><path fill-rule="evenodd" clip-rule="evenodd" d="M26.086 60.074c0-10.466 8.44-18.926 18.883-18.926 10.441 0 18.882 8.46 18.882 18.926C63.851 70.54 55.411 79 44.968 79c-10.441 0-18.882-8.46-18.882-18.926zm18.883-16.926c-9.34 0-16.888 7.565-16.888 16.926C28.081 69.436 35.63 77 44.968 77c9.34 0 16.888-7.564 16.888-16.926 0-9.361-7.547-16.926-16.888-16.926z" fill="#fff"/><path d="M57.499 57.97c-.068-.747-.745-1.358-1.49-1.29l-1.965.135c-.61-1.63-1.558-2.987-2.778-4.006l.881-1.833a1.41 1.41 0 00-.677-1.901l-2.033-.951a1.403 1.403 0 00-1.897.679l-.88 1.833c-1.558-.271-3.252-.203-4.878.408l-1.152-1.63c-.406-.611-1.287-.815-1.964-.34l-1.83 1.29c-.61.408-.812 1.29-.338 1.97l1.151 1.63c-1.084 1.29-1.761 2.784-2.1 4.413l-2.032.136c-.745.068-1.355.747-1.287 1.494l.203 2.24c.068.747.745 1.359 1.49 1.29l1.965-.135c.61 1.63 1.558 2.987 2.778 4.006l-.881 1.833a1.409 1.409 0 00.677 1.902l2.033.95c.677.34 1.558.068 1.897-.679l.88-1.833c1.559.272 3.252.204 4.878-.407l1.152 1.63c.406.61 1.287.814 1.964.339l1.83-1.29c.61-.408.813-1.29.338-1.97l-1.151-1.63c1.084-1.29 1.761-2.783 2.1-4.413l2.032-.136c.745-.068 1.355-.747 1.287-1.493L57.5 57.97zM44.966 65.1a5.008 5.008 0 01-5.013-5.025 5.008 5.008 0 015.013-5.025 5.008 5.008 0 015.013 5.025 5.008 5.008 0 01-5.013 5.024z" fill="#fff"/><path fill-rule="evenodd" clip-rule="evenodd" d="M24.942 21.817a1 1 0 010 1.414L8.21 40.003a.996.996 0 01-1.41 0 1.002 1.002 0 01-.001-1.414l16.733-16.772a.996.996 0 011.411 0zm-3.252-3.259a1 1 0 010 1.414L4.957 36.744a.996.996 0 01-1.41 0 1.002 1.002 0 010-1.414l16.732-16.772a.996.996 0 011.411 0zM18.507 15.3a1.002 1.002 0 01-.002 1.415L1.704 33.486a.996.996 0 01-1.411-.003 1.002 1.002 0 01.003-1.414l16.8-16.772a.996.996 0 011.411.003zm46.483 6.519a.996.996 0 011.41-.003l16.802 16.771c.39.39.392 1.023.003 1.414a.996.996 0 01-1.411.003L64.993 23.233a1.002 1.002 0 01-.003-1.415zm3.252-3.259a.996.996 0 011.41-.003l16.802 16.771c.39.39.392 1.023.003 1.414a.996.996 0 01-1.411.003L68.245 19.974a1.002 1.002 0 01-.003-1.415zm3.252-3.26a.996.996 0 011.41-.003L89.707 32.07c.39.39.391 1.023.003 1.414a.996.996 0 01-1.411.003L71.497 16.715a1.002 1.002 0 01-.003-1.415z" fill="#fff"/><path fill-rule="evenodd" clip-rule="evenodd" d="M16.846 0h56.31l16.576 16.614-8.422 8.516-1.417-1.408 7.024-7.102L72.33 2H17.672L3.085 16.62l7.024 7.102-1.417 1.408L.27 16.614 16.846 0zm6.888 29.423a3.568 3.568 0 015.07 0l12.532 12.562-1.41 1.414-12.534-12.562a1.576 1.576 0 00-2.247 0l-9.281 9.303-.706-.708.706.708a1.585 1.585 0 000 2.252l12.533 12.562-1.411 1.414-12.533-12.562a3.588 3.588 0 010-5.08l9.281-9.303zm37.463 0a3.568 3.568 0 015.07 0l-.706.707.705-.707 9.281 9.302a3.588 3.588 0 010 5.081L63.014 56.368l-1.41-1.414 12.533-12.562a1.585 1.585 0 000-2.252l-9.282-9.303a1.576 1.576 0 00-2.247 0L50.075 43.399l-1.41-1.414 12.532-12.562z" fill="#fff"/><path fill-rule="evenodd" clip-rule="evenodd" d="M44.966 8.518c-3.265 0-5.912 2.654-5.912 5.926 0 3.273 2.647 5.926 5.912 5.926 3.266 0 5.913-2.653 5.913-5.926s-2.647-5.926-5.913-5.926zm-7.907 5.926c0-4.377 3.54-7.925 7.907-7.925 4.368 0 7.908 3.548 7.908 7.925 0 4.378-3.54 7.926-7.908 7.926-4.367 0-7.907-3.548-7.907-7.926z" fill="#fff"/><path d="M47.54 14.445a2.504 2.504 0 00-2.506-2.513 2.504 2.504 0 00-2.507 2.513 2.504 2.504 0 002.507 2.512c1.355.068 2.507-1.086 2.507-2.512z" fill="#fff"/><path fill-rule="evenodd" clip-rule="evenodd" d="M51.825 12.298a.998.998 0 011.11.872l2.1 17.383a.998.998 0 11-1.98.24l-2.1-17.382a1 1 0 01.87-1.113zm-13.65 0a1 1 0 01.87 1.113l-2.1 17.382a.998.998 0 11-1.98-.24l2.1-17.383a.998.998 0 011.11-.872z" fill="#fff"/></svg>