<svg width="84" height="84" fill="none" xmlns="http://www.w3.org/2000/svg"><path d="M62.65 47.154c-3.94.328-8.34-1.313-11.031-2.495.197-.854.394-1.707.394-2.627 0-.985.722-1.773 1.641-1.838 2.298-.197 4.071-.329 5.779-.657 3.283-.657 5.056-4.202 3.677-7.223-1.116-2.495-2.758-4.596-4.006-5.91-.722-.788-1.904-.59-2.364.394-1.707 3.546-5.253 6.567-7.682 8.274a10.462 10.462 0 00-2.167-1.642 1.742 1.742 0 01-.722-2.364c.985-2.1 1.773-3.742 2.298-5.384 1.05-3.152-1.117-6.5-4.4-6.83-2.692-.262-5.384.132-7.157.526-.985.197-1.445 1.38-.854 2.233 2.233 3.283 3.087 7.88 3.35 10.769-.854.262-1.708.59-2.496 1.05-.854.46-1.839.263-2.43-.525C33.167 31 32.117 29.49 31 28.243c-2.167-2.495-6.172-2.298-8.142.46-1.576 2.232-2.561 4.662-3.086 6.435-.329.985.46 1.97 1.51 1.838 3.94-.328 8.34 1.313 11.031 2.495-.197.854-.394 1.708-.394 2.627 0 .985-.722 1.773-1.641 1.839-2.233.197-4.071.328-5.713.656-3.349.657-5.122 4.268-3.677 7.354 1.116 2.43 2.758 4.466 3.94 5.779.722.788 1.904.591 2.364-.394 1.707-3.611 5.253-6.566 7.682-8.274a10.47 10.47 0 002.167 1.642c.854.46 1.182 1.51.723 2.364-.985 2.035-1.708 3.677-2.299 5.319-1.116 3.217 1.117 6.566 4.531 6.894 2.692.263 5.253-.131 7.026-.525.985-.197 1.445-1.379.854-2.232-2.233-3.284-3.086-7.88-3.349-10.77.854-.262 1.707-.59 2.495-1.05.854-.46 1.839-.263 2.43.525 1.313 1.904 2.364 3.415 3.48 4.662 2.167 2.496 6.172 2.299 8.142-.46 1.576-2.232 2.561-4.661 3.087-6.434.328-.985-.46-1.905-1.51-1.839zm-15.628-5.122v.066c0 2.364-1.707 4.334-3.874 4.86a5.788 5.788 0 01-1.116.13c-.46 0-.985-.065-1.38-.197-1.64-.46-2.888-1.707-3.414-3.348a5.595 5.595 0 01-.197-1.51c0-.46.066-.92.197-1.38.526-1.904 2.167-3.283 4.137-3.611.197 0 .46-.066.657-.066h.525c2.495.328 4.465 2.43 4.465 5.056z" fill="#fff"/><path fill-rule="evenodd" clip-rule="evenodd" d="M42.033 14.46c-15.227 0-27.571 12.345-27.571 27.572 0 15.228 12.344 27.572 27.571 27.572 15.228 0 27.572-12.344 27.572-27.572 0-15.227-12.344-27.572-27.572-27.572zM12.477 42.032c0-16.323 13.233-29.556 29.556-29.556 16.324 0 29.556 13.233 29.556 29.556S58.358 71.588 42.034 71.588c-16.323 0-29.556-13.233-29.556-29.556z" fill="#fff"/><path fill-rule="evenodd" clip-rule="evenodd" d="M0 9.069A9.063 9.063 0 019.069 0h65.86c4.998 0 9.14 4.042 9.07 9.076V74.93a9.063 9.063 0 01-9.07 9.069H9.07A9.063 9.063 0 010 74.929V9.07zm9.069-7.085A7.079 7.079 0 001.984 9.07v65.86a7.079 7.079 0 007.085 7.085h65.86a7.079 7.079 0 007.085-7.084V9.054c.058-3.892-3.153-7.07-7.084-7.07H9.069z" fill="#fff"/><path fill-rule="evenodd" clip-rule="evenodd" d="M15.745 6.394a.992.992 0 01.006 1.403l-7.946 8.011a.992.992 0 11-1.409-1.397l7.946-8.01a.992.992 0 011.403-.007zm6.372 1.646a.992.992 0 010 1.402L9.377 22.181a.992.992 0 11-1.402-1.403L20.714 8.039a.992.992 0 011.403 0zm11.904 69.852h-1.97v-1.984h1.97v1.984zm5.977 0h-1.97v-1.984h1.97v1.984zm5.974 0h-1.97v-1.984h1.97v1.984zm5.977 0h-1.97v-1.984h1.97v1.984z" fill="#fff"/></svg>