<svg width="88" height="88" fill="none" xmlns="http://www.w3.org/2000/svg"><path fill-rule="evenodd" clip-rule="evenodd" d="M49.615 11.293C70.785 11.293 88 28.423 88 49.647 87.999 70.799 70.855 88 49.616 88c-21.17 0-38.384-17.13-38.384-38.353h1.914c0 20.164 16.354 36.441 36.47 36.441 20.18 0 36.47-16.342 36.47-36.441 0-20.165-16.355-36.442-36.47-36.442v-1.912z" fill="#344154"/><path fill-rule="evenodd" clip-rule="evenodd" d="M1.922 48.691h17.246c.495-16.065 13.416-28.976 29.493-29.47V1.92c-25.58.503-46.236 21.143-46.739 46.77zM0 49.647C0 22.205 22.22 0 49.618 0h.956v21.118h-.956c-15.783 0-28.552 12.759-28.552 28.529v.956H0v-.956z" fill="#344154"/><path fill-rule="evenodd" clip-rule="evenodd" d="M36.34 36.359c-7.343 7.338-7.343 19.236 0 26.574 7.345 7.339 19.252 7.339 26.596 0 7.344-7.338 7.344-19.236 0-26.574-7.344-7.339-19.251-7.339-26.595 0zm-1.352 27.926c-8.09-8.085-8.091-21.193 0-29.278 8.091-8.085 21.21-8.085 29.3 0 8.092 8.085 8.092 21.193 0 29.278-8.09 8.085-21.209 8.085-29.3 0z" fill="#344154"/><path fill-rule="evenodd" clip-rule="evenodd" d="M45.467 45.338a6.007 6.007 0 00-.124 8.499 6.018 6.018 0 008.505.124 6.007 6.007 0 00.124-8.498 6.018 6.018 0 00-8.505-.125zm-1.497 9.83a7.917 7.917 0 01.164-11.201 7.932 7.932 0 0111.21.164 7.917 7.917 0 01-.163 11.202 7.932 7.932 0 01-11.21-.164zm5.649-20.881c.528 0 .956.428.956.956v2.434a.956.956 0 01-1.913 0v-2.434c0-.528.428-.956.957-.956zM38.792 38.76a.957.957 0 011.353 0l1.76 1.758a.955.955 0 11-1.354 1.351l-1.76-1.758a.955.955 0 010-1.352zm-4.546 10.887c0-.527.428-.956.957-.956h2.504a.956.956 0 110 1.912h-2.504a.956.956 0 01-.957-.956zm7.658 7.71a.955.955 0 010 1.352l-1.76 1.758a.957.957 0 01-1.352-1.352l1.76-1.758a.957.957 0 011.352 0zm7.715 3.236c.528 0 .956.428.956.956v2.435a.956.956 0 01-1.913 0v-2.435c0-.528.428-.956.957-.956zm7.784-3.236a.957.957 0 011.353 0l1.76 1.758a.955.955 0 11-1.353 1.352l-1.76-1.758a.955.955 0 010-1.352zm3.237-7.71c0-.527.429-.956.957-.956h2.437a.956.956 0 110 1.912h-2.437a.956.956 0 01-.956-.956zm-.124-10.887a.955.955 0 010 1.351l-1.76 1.758a.957.957 0 01-1.353-1.351l1.76-1.759a.957.957 0 011.353 0zM14.39 41.173l-2.369-.609.477-1.851 2.369.608-.477 1.852zm3.424-8.817l-2.166-1.217.938-1.666 2.166 1.217-.938 1.666zm5.543-7.664l-1.76-1.758 1.353-1.352 1.76 1.758-1.353 1.352zm7.376-5.924l-1.286-2.097 1.631-.999 1.286 2.097-1.63.999zm8.625-3.828l-.676-2.435 1.843-.511.677 2.434-1.844.512z" fill="#344154"/><path d="M83.052 49.647c0-9.197-3.723-17.515-9.814-23.601l-6.768 6.762a23.706 23.706 0 016.971 16.84c0 13.119-10.693 23.804-23.823 23.804a23.743 23.743 0 01-16.852-6.966l-6.768 6.763c6.024 6.019 14.416 9.806 23.62 9.806 18.409-.068 33.434-15.013 33.434-33.408z" fill="#8AA0B2"/></svg>