<svg width="100" height="92" fill="none" xmlns="http://www.w3.org/2000/svg"><path fill-rule="evenodd" clip-rule="evenodd" d="M69.726 43.27c-9.765 0-17.682 7.916-17.682 17.681 0 9.766 7.917 17.682 17.682 17.682 9.766 0 17.682-7.916 17.682-17.682 0-9.765-7.916-17.682-17.682-17.682zm-19.87 17.68c0-10.974 8.896-19.87 19.87-19.87s19.87 8.896 19.87 19.87-8.896 19.87-19.87 19.87-19.87-8.896-19.87-19.87z" fill="#fff"/><path d="M69.726 46.237c-1.332 0-2.597.2-3.795.466 6.325 1.664 10.986 7.457 10.986 14.248 0 6.792-4.661 12.584-10.986 14.25 1.198.332 2.463.465 3.795.465 8.123 0 14.781-6.591 14.781-14.781 0-8.19-6.658-14.648-14.781-14.648z" fill="#fff"/><path fill-rule="evenodd" clip-rule="evenodd" d="M92.764 61.522c.604 0 1.094.49 1.094 1.094 0 12.456-10.078 22.534-22.534 22.534a1.094 1.094 0 010-2.189c11.248 0 20.346-9.097 20.346-20.345 0-.604.49-1.094 1.094-1.094z" fill="#fff"/><path fill-rule="evenodd" clip-rule="evenodd" d="M87.395 75.159a1.094 1.094 0 011.547 0l9.988 9.987c1.426 1.426 1.426 3.65 0 5.076-1.426 1.426-3.65 1.426-5.077 0l-9.987-9.987a1.094 1.094 0 011.548-1.547l9.987 9.987c.571.572 1.41.572 1.981 0 .572-.571.572-1.41 0-1.981l-9.987-9.988a1.094 1.094 0 010-1.547zM24.11 21.463a1.094 1.094 0 011.546-.07l3.063 2.796.014.013c.982.928 2.306 1.432 3.71 1.432h19.242c1.402 0 2.726-.504 3.71-1.432l.013-.013 3.063-2.796a1.094 1.094 0 011.475 1.616l-3.056 2.79c-1.414 1.332-3.283 2.024-5.206 2.024H32.442c-1.923 0-3.792-.692-5.205-2.024l-3.056-2.79a1.094 1.094 0 01-.07-1.546zm47.899 12.241a1.094 1.094 0 01-.935 1.233l-8.715 1.197c-1.663.256-2.924 1.73-2.924 3.378a1.094 1.094 0 01-2.188 0c0-2.743 2.065-5.13 4.792-5.543h.007l8.73-1.2a1.094 1.094 0 011.233.935zm-60.894.066a1.094 1.094 0 011.233-.935l8.73 1.2h.007c2.717.413 4.792 2.724 4.792 5.544v3.291H12.2a1.094 1.094 0 010-2.188h11.49v-1.103c0-1.706-1.25-3.121-2.925-3.378l-8.714-1.198a1.094 1.094 0 01-.935-1.233zm-5.64-6.338c.604 0 1.094.49 1.094 1.094v20.907a1.094 1.094 0 01-2.188 0V28.526c0-.604.49-1.094 1.094-1.094z" fill="#fff"/><path fill-rule="evenodd" clip-rule="evenodd" d="M19.054 4.542l-6.816 13.103c-.189.362-.563.59-.971.59H3.344a.91.91 0 00-.904.903v4.128c0 .177.1.445.346.691l.034.036 3.463 3.796a1.094 1.094 0 11-1.617 1.474l-3.447-3.778c-.544-.552-.967-1.34-.967-2.219v-4.128c0-1.76 1.446-3.092 3.092-3.092h7.259l6.551-12.594c.027-.05.057-.1.092-.146A8.22 8.22 0 0123.85 0h35.422a8.22 8.22 0 016.605 3.306c.034.046.065.095.091.146l6.552 12.594h7.259c1.76 0 3.092 1.446 3.092 3.092v4.128c0 .807-.369 1.69-.995 2.25l-3.134 3.434v10.03a1.094 1.094 0 01-2.188 0V28.525c0-.273.102-.536.286-.737l3.462-3.796c.034-.036.07-.07.108-.103.133-.11.272-.393.272-.624v-4.128a.908.908 0 00-.903-.903h-7.923c-.408 0-.783-.228-.971-.59L64.07 4.542a6.035 6.035 0 00-4.797-2.354H23.85a6.035 6.035 0 00-4.797 2.354zM5.41 48.339c.603 0 1.093.49 1.093 1.094v.799a5.3 5.3 0 005.298 5.298 5.3 5.3 0 005.298-5.298v-.799a1.094 1.094 0 112.188 0v.799a7.488 7.488 0 01-7.486 7.486 7.488 7.488 0 01-7.486-7.486v-.799c0-.604.49-1.094 1.094-1.094z" fill="#fff"/><path fill-rule="evenodd" clip-rule="evenodd" d="M11.107 49.433c0-.604.49-1.094 1.094-1.094h37.153a1.094 1.094 0 010 2.188H12.2c-.604 0-1.094-.49-1.094-1.094zm24.368-7.657c0-.605.49-1.094 1.094-1.094h10.054a1.094 1.094 0 010 2.188H36.569c-.604 0-1.094-.49-1.094-1.094zM17.43 17.14c0-.604.49-1.094 1.095-1.094h46.141a1.094 1.094 0 010 2.189H18.525c-.604 0-1.094-.49-1.094-1.095z" fill="#fff"/></svg>