<svg width="90" height="100" fill="none" xmlns="http://www.w3.org/2000/svg"><path fill-rule="evenodd" clip-rule="evenodd" d="M10.952 16.755a2.717 2.717 0 01-.095-3.933l2.19-2.19a2.717 2.717 0 014.036.216l2.565 3.18 3.354-3.353c3.518-3.518 8.472-2.88 11.352 0l4.724 4.724a2.717 2.717 0 010 3.843l-.317.317 16.637 16.807a2.717 2.717 0 01-.01 3.834L40.205 55.383a2.717 2.717 0 01-3.843 0L19.65 38.67l-.408.407a2.717 2.717 0 01-3.843 0l-4.724-4.724c-1.537-1.537-2.122-3.78-2.073-5.835.048-2.043.73-4.174 2.073-5.517l3.405-3.406-3.128-2.84zm7.097 2.166l-5.727 5.728c-.792.792-1.353 2.271-1.392 3.925-.039 1.644.444 3.185 1.392 4.133l4.724 4.724a.388.388 0 00.55 0L37.43 17.596a.388.388 0 000-.549l-4.724-4.724c-2.09-2.09-5.564-2.495-8.058 0L18.92 18.05l-.871.872zm-.057-3.236L15.27 12.31a.388.388 0 00-.576-.03l-2.19 2.189a.388.388 0 00.014.562l3.211 2.916 2.263-2.262zm3.305 21.339l16.712 16.712a.388.388 0 00.55 0l15.183-15.183a.388.388 0 000-.548L37.115 21.206 21.297 37.024zm-10.092 20.23c.534-.48 1.21-.532 1.652-.532h58.228c1.5 0 2.717 1.216 2.717 2.717v9.705c0 1.5-1.216 2.717-2.717 2.717h-25.89c1.516 4.611 1.822 10.096 1.822 13.587 0 2.12-.53 3.633-1.505 4.608-.975.975-2.197 1.215-3.153 1.215-.866 0-2.275-.103-3.394-1.362-1.063-1.196-1.653-3.205-1.653-6.402 0-4.757-1.495-8.656-2.186-9.924a41.1 41.1 0 00-.356-.632 39.29 39.29 0 01-.604-1.09h-4.23c-.3 0-.39.013-.411.018-.016.011-.185.146-.448.803l-.01.025-3.85 8.47h2.779c.316 0 .764.086 1.166.375.461.333.775.877.775 1.567v6.21c0 .317-.085.764-.375 1.166-.332.462-.876.776-1.566.776h-7.432l-.067.132-.024.05-3.92 6.272-.01.015c-1.187 1.78-4.724 3.096-8.569.348a10.492 10.492 0 01-.072-.053 1.171 1.171 0 01-.14-.12 9.436 9.436 0 01-2.318-3.021c-.686-1.442-1.042-3.284-.268-5.22.775-1.936 2.135-5.138 3.227-7.707a404.03 404.03 0 001.483-3.513 1.165 1.165 0 112.155.884c-.306.745-.878 2.09-1.538 3.644-1.077 2.534-2.39 5.62-3.164 7.557-.468 1.169-.285 2.318.208 3.355a7.068 7.068 0 001.808 2.317c2.895 2.054 4.87.785 5.243.247l3.84-6.145.01-.018c.116-.236.285-.577.508-.82a1.61 1.61 0 01.637-.43c.245-.088.474-.103.64-.103h7.375v-5.435H24.89c-.816 0-1.518-.432-1.866-1.13-.33-.66-.284-1.428.038-2.086l3.863-8.5c.336-.833.742-1.498 1.366-1.888.601-.376 1.236-.373 1.585-.371h3.378a4.604 4.604 0 01-.07-1.622c.185-1.269.955-2.362 2.339-3.242 1.1-.7 2.236-.886 3.322-.648 1.047.23 1.947.83 2.681 1.52 1.215 1.141 2.16 2.704 2.761 3.992h26.798a.388.388 0 00.388-.388v-9.705a.388.388 0 00-.388-.388H26.447l-2.436 5.917-.02.038c-.22.442-.515.908-1.017 1.181-.45.246-.926.242-1.142.24h-2.809l-.008.01a1.589 1.589 0 00-.07.122l-.032.065-.779 1.168c-.36.699-.785 1.208-1.334 1.493a2.4 2.4 0 01-1.186.248h-3.145c-.568 0-1.14-.191-1.531-.681-.352-.44-.41-.944-.41-1.26v-8.54c0-.584.114-1.292.677-1.798zm12.723 1.797h-11.07v8.152h2.716l.17-.001c.05-.045.171-.18.342-.52l.032-.065.781-1.171c.1-.186.251-.43.442-.652.108-.126.259-.28.45-.41.183-.124.49-.287.889-.287h3.158c.015-.026.033-.058.053-.097l2.037-4.949zm-11.07 8.562v-.01.01zm7.368 23.658h.004-.004zm9.293-19.39l.006-.002a.014.014 0 01-.006.002zm8.828-5.586c-.456-.1-.966-.049-1.574.338-.954.607-1.219 1.165-1.284 1.612-.075.518.079 1.154.453 1.962.236.509.506.983.792 1.485.142.25.289.505.436.776.862 1.58 2.472 5.858 2.472 11.039 0 3.014.575 4.305 1.064 4.855.434.488.966.58 1.653.58.597 0 1.122-.149 1.506-.533.383-.384.823-1.2.823-2.961 0-3.855-.392-9.87-2.24-14.303l-.003-.008-.003-.008c-.483-1.208-1.393-2.842-2.51-3.892-.554-.52-1.09-.833-1.586-.942z" fill="#fff"/><path d="M14.302 74.355a1.281 1.281 0 11-2.562 0 1.281 1.281 0 012.562 0z" fill="#fff"/><path fill-rule="evenodd" clip-rule="evenodd" d="M5.482 63.321c0-.643.522-1.164 1.165-1.164h5.046a1.165 1.165 0 110 2.329H6.647a1.165 1.165 0 01-1.165-1.165zm59.004 7.376v-12.81h2.33v12.81h-2.33zm-3.164-12L48.512 45.5l1.671-1.622 12.81 13.198-1.671 1.622zm-9.693.013l-8.152-8.152 1.647-1.647 8.151 8.152-1.646 1.647zm34.908-5.123c.23.6-.069 1.274-.67 1.505l-5.046 1.94a1.165 1.165 0 11-.836-2.173l5.047-1.941c.6-.231 1.274.068 1.505.669zM90 65a1.165 1.165 0 01-1.173 1.157l-5.406-.036a1.165 1.165 0 01.015-2.33l5.407.037c.643.004 1.16.529 1.156 1.172zm-3.338 9.952a1.165 1.165 0 01-1.563.518l-4.832-2.426a1.165 1.165 0 111.045-2.082l4.832 2.427c.575.288.807.988.518 1.563z" fill="#fff"/><path d="M48.43 36H26.414c-.89 0-1.337 1.077-.707 1.707l11.56 11.56a1 1 0 001.415 0L49.69 38.26a1 1 0 000-1.414l-.553-.553A1 1 0 0048.43 36z" fill="#fff"/></svg>