<svg width="94" height="87" fill="none" xmlns="http://www.w3.org/2000/svg"><path fill-rule="evenodd" clip-rule="evenodd" d="M23.109 20.413a1.004 1.004 0 011.415-.054l2.925 2.702c.938.877 2.254 1.363 3.588 1.363h18.378c1.334 0 2.65-.486 3.589-1.363l.004-.004 2.92-2.698a1.004 1.004 0 011.416.054.996.996 0 01-.054 1.41l-2.916 2.695-.003.002c-1.34 1.252-3.158 1.9-4.956 1.9H31.038c-1.799 0-3.616-.648-4.957-1.9l-2.918-2.696a.996.996 0 01-.054-1.411zm45.745 11.619a.999.999 0 01-.857 1.125L59.68 34.29c-1.67.284-2.854 1.659-2.854 3.273v2.13a1 1 0 01-1.001.998 1 1 0 01-1.002-.998v-2.13c0-2.642 1.945-4.814 4.541-5.245l.014-.003 8.349-1.138a1.001 1.001 0 011.128.854zm1.183 52.972c11.984 0 21.7-9.685 21.7-21.63 0-11.947-9.715-21.631-21.7-21.631s-21.7 9.684-21.7 21.63 9.715 21.63 21.7 21.63zm0 1.996c13.09 0 23.703-10.578 23.703-23.627 0-13.048-10.612-23.627-23.703-23.627-13.09 0-23.703 10.578-23.703 23.627S56.946 87 70.037 87zM10.742 32.104a1 1 0 011.128-.854l8.33 1.135h.002c2.649.354 4.571 2.635 4.571 5.25v3.128H11.734a1 1 0 01-1.002-.998 1 1 0 011.002-.998H22.77v-1.132c0-1.645-1.21-3.055-2.834-3.27l-.004-.001-8.334-1.136a.999.999 0 01-.856-1.124zm-5.489-5.976a1 1 0 011.002.998v19.88a1 1 0 01-1.002 1 1 1 0 01-1.001-1v-19.88a1 1 0 011.001-.998z" fill="#fff"/><path fill-rule="evenodd" clip-rule="evenodd" d="M18.139 4.233l-6.514 12.49a1 1 0 01-.888.539h-7.55a.912.912 0 00-.922.918v3.905c0 .302.103.507.28.654a.995.995 0 01.096.09l3.348 3.621a.996.996 0 01-.058 1.41 1.004 1.004 0 01-1.415-.057l-3.308-3.578c-.64-.56-.946-1.328-.946-2.14V18.18a2.912 2.912 0 012.924-2.915h6.943L16.4 3.235a1 1 0 01.088-.138C17.967 1.133 20.334 0 22.775 0H56.68c2.44 0 4.808 1.133 6.286 3.097a.99.99 0 01.087.139l6.273 12.03h6.942a2.912 2.912 0 012.925 2.914v3.905c0 .812-.306 1.58-.946 2.14l-3.043 3.291v6.356a1 1 0 01-1.002.998 1 1 0 01-1.001-.998v-6.745c0-.251.094-.493.265-.677l3.348-3.621a.994.994 0 01.095-.09c.177-.148.28-.352.28-.654V18.18a.912.912 0 00-.921-.918h-7.55c-.374 0-.717-.208-.89-.538L61.316 4.233c-1.09-1.406-2.829-2.236-4.635-2.236H22.775c-1.807 0-3.546.83-4.636 2.236zM5.324 46.008a1 1 0 011.001.999v.71a5.04 5.04 0 005.053 5.037 5.04 5.04 0 005.053-5.037v-.71a1 1 0 011.002-.998 1 1 0 011.001.998v.71c0 3.888-3.155 7.033-7.056 7.033-3.9 0-7.056-3.145-7.056-7.033v-.71a1 1 0 011.002-.998z" fill="#fff"/><path d="M87.227 62.872h-3.482l1.05-1.848a.506.506 0 00-.181-.687.489.489 0 00-.677.185l-1.334 2.35h-2.65l2.698-4.752a.505.505 0 00-.18-.686.49.49 0 00-.677.184l-2.985 5.254h-4.942l-1.491-2.627 2.471-4.35h5.97a.5.5 0 00.494-.503.5.5 0 00-.494-.502h-5.4l1.324-2.33h2.668a.499.499 0 00.494-.502.5.5 0 00-.494-.502l-2.099-.001 1.742-3.067a.505.505 0 00-.18-.686.488.488 0 00-.677.184l-1.742 3.066-1.05-1.848a.491.491 0 00-.675-.184.508.508 0 00-.182.687l1.334 2.35-1.322 2.33-2.698-4.752a.49.49 0 00-.675-.184.51.51 0 00-.182.687l2.985 5.253-2.471 4.352h-2.984l-2.472-4.35 2.985-5.255a.509.509 0 00-.181-.688.49.49 0 00-.675.185l-2.7 4.752-1.323-2.33 1.336-2.351a.507.507 0 00-.181-.687.49.49 0 00-.675.184l-1.05 1.85-1.738-3.069a.49.49 0 00-.675-.183.507.507 0 00-.18.686l1.74 3.067h-2.097a.5.5 0 00-.494.502c0 .277.221.502.494.502h2.67l1.323 2.33h-5.397a.499.499 0 00-.495.503.5.5 0 00.495.503h5.968l2.471 4.351-1.493 2.627h-4.942l-2.987-5.254a.49.49 0 00-.675-.184.507.507 0 00-.181.686l2.701 4.752h-2.647l-1.334-2.35a.49.49 0 00-.675-.184.508.508 0 00-.181.687l1.05 1.847h-3.482a.499.499 0 00-.494.502.5.5 0 00.494.503h3.483l-1.05 1.849a.509.509 0 00.18.687.49.49 0 00.677-.185l1.334-2.351h2.65l-2.701 4.752a.509.509 0 00.18.687.491.491 0 00.677-.185l2.986-5.254h4.942l1.491 2.624-2.47 4.352h-5.969a.5.5 0 00-.494.503.5.5 0 00.494.502h5.397l-1.324 2.33h-2.67a.499.499 0 00-.494.503.5.5 0 00.494.502h2.1l-1.742 3.066a.509.509 0 00.181.687.49.49 0 00.676-.185l1.742-3.066 1.05 1.849a.493.493 0 00.676.184.508.508 0 00.18-.687l-1.336-2.351 1.324-2.33 2.698 4.752a.492.492 0 00.677.184.508.508 0 00.18-.687l-2.985-5.254 2.472-4.35h2.985l2.471 4.35-2.986 5.255a.509.509 0 00.18.687.49.49 0 00.676-.185l2.7-4.751 1.324 2.33-1.334 2.35a.508.508 0 00.181.686.496.496 0 00.677-.184l1.05-1.847 1.743 3.066a.493.493 0 00.677.185.513.513 0 00.182-.687l-1.744-3.069h2.099a.499.499 0 00.494-.502.5.5 0 00-.494-.503h-2.67l-1.323-2.33 5.399.001a.5.5 0 00.494-.502.5.5 0 00-.494-.503h-5.97l-2.471-4.35 1.492-2.626h4.94l2.987 5.255a.492.492 0 00.676.185.51.51 0 00.181-.687l-2.707-4.752h2.65l1.337 2.351a.495.495 0 00.677.185.509.509 0 00.182-.687l-1.05-1.85h3.482a.5.5 0 00.494-.502.51.51 0 00-.502-.502zm-15.704 3.13h-2.984l-.286-.503-.92-1.622-.285-.503 1.492-2.626h2.985l.285.502.92 1.622.285.502-1.492 2.627z" fill="#fff" stroke="#fff"/><path fill-rule="evenodd" clip-rule="evenodd" d="M10.732 47.007a1 1 0 011.002-.998h32.837a1 1 0 011.001.998 1 1 0 01-1.001.998H11.734a1 1 0 01-1.002-.998zm23.293-7.313a1 1 0 011.002-.998h9.545a1 1 0 011.001.998 1 1 0 01-1.001.998h-9.545a1 1 0 01-1.002-.998z" fill="#fff"/><path d="M56.753 5.259H22.848c-.713 0-1.425.284-1.924.852l-3.988 7.597h45.586L58.534 6.11c-.357-.568-1.069-.852-1.781-.852z" fill="#fff"/></svg>