<svg width="92" height="84" fill="none" xmlns="http://www.w3.org/2000/svg"><path fill-rule="evenodd" clip-rule="evenodd" d="M90.085 46.528c.54 0 .98.435.98.971v35.53a.976.976 0 01-.98.971h-35.84a.976.976 0 01-.98-.971v-35.53c0-.536.44-.971.98-.971h35.84zm-.98 1.942h-33.88v33.588h33.88V48.47z" fill="#fff"/><path fill-rule="evenodd" clip-rule="evenodd" d="M43.14 54.534c0-.536.44-.971.98-.971h10.211c.541 0 .669.4.669.937 0 .536-.128 1.005-.669 1.005h-10.21a.976.976 0 01-.98-.971zm0 10.659c0-.537.44-.971.98-.971h10.211c.541 0 .669.434.669.97 0 .537-.128.972-.669.972h-10.21a.976.976 0 01-.98-.971zm0 10.659c0-.537.44-.971.98-.971h10.211c.541 0 .669.434.669.97 0 .537-.128.972-.669.972h-10.21a.976.976 0 01-.98-.971z" fill="#fff"/><path fill-rule="evenodd" clip-rule="evenodd" d="M37.19 75.899c.011-2.136 1.798-3.901 3.955-3.901 2.164 0 3.955 1.776 3.955 3.92 0 2.146-1.791 3.922-3.955 3.922-2.201 0-4.035-1.752-3.955-3.941zm3.955-1.959c-1.082 0-1.996.906-1.996 1.979v.04c-.043 1.019.823 1.938 1.996 1.938 1.082 0 1.996-.906 1.996-1.978 0-1.073-.914-1.978-1.996-1.978zm-3.955-8.7c.011-2.136 1.798-3.9 3.955-3.9 2.164 0 3.955 1.775 3.955 3.92s-1.791 3.92-3.955 3.92c-2.201 0-4.035-1.75-3.955-3.94zm3.955-1.958c-1.082 0-1.996.906-1.996 1.978v.04c-.043 1.019.823 1.938 1.996 1.938 1.082 0 1.996-.906 1.996-1.978 0-1.073-.914-1.978-1.996-1.978zm0-10.726a1.987 1.987 0 00-1.996 1.978c0 1.093.893 1.978 1.995 1.978a1.987 1.987 0 001.996-1.978 1.987 1.987 0 00-1.995-1.978zm-3.956 1.978c0-2.166 1.771-3.921 3.956-3.921 2.184 0 3.955 1.755 3.955 3.92 0 2.166-1.771 3.922-3.956 3.922-2.184 0-3.954-1.756-3.954-3.921zm45.136-18.2c.541 0 .98.435.98.971v10.123a.975.975 0 01-.98.971.975.975 0 01-.98-.97V37.305c0-.537.44-.972.98-.972zm-10.75 0c.541 0 .98.435.98.971v10.123a.975.975 0 01-.98.971.975.975 0 01-.98-.97V37.305c0-.537.44-.972.98-.972z" fill="#fff"/><path fill-rule="evenodd" clip-rule="evenodd" d="M67.62 34.356c0-2.227 1.806-3.921 3.956-3.921 2.164 0 3.955 1.775 3.955 3.92 0 2.146-1.791 3.922-3.955 3.922S67.62 36.5 67.62 34.356zm3.956-1.979c-1.097 0-1.996.853-1.996 1.979 0 1.072.914 1.978 1.996 1.978 1.082 0 1.995-.906 1.995-1.978 0-1.073-.913-1.979-1.995-1.979zm6.797 1.979c0-2.227 1.806-3.921 3.955-3.921 2.164 0 3.955 1.775 3.955 3.92 0 2.146-1.79 3.922-3.955 3.922-2.164 0-3.955-1.776-3.955-3.921zm3.955-1.979c-1.096 0-1.996.853-1.996 1.979 0 1.072.914 1.978 1.996 1.978 1.082 0 1.996-.906 1.996-1.978 0-1.073-.914-1.979-1.996-1.979zM68.162 52.892h2.365v.067H84.66v24.534H59.912V61.071h.98c4.052 0 7.27-3.247 7.27-7.207v-.972zm1.9 2.01h12.639V75.55H61.87V62.963c4.325-.449 7.71-3.835 8.192-8.061z" fill="#fff"/><path d="M64.88 72.5v-7.039c3.517-1.207 6.357-4.022 7.575-7.508h7.1V72.5H64.88z" fill="#fff"/><path fill-rule="evenodd" clip-rule="evenodd" d="M22.236 19.283a.986.986 0 011.384-.052l2.777 2.55c.885.823 2.127 1.28 3.387 1.28H47.23c1.26 0 2.503-.457 3.388-1.28l.004-.003 2.772-2.547a.986.986 0 011.385.052.965.965 0 01-.053 1.372L51.958 23.2l-.002.002c-1.279 1.187-3.012 1.802-4.726 1.802H29.784c-1.714 0-3.447-.615-4.725-1.802l-2.77-2.546a.965.965 0 01-.053-1.372zm43.478 10.986a.973.973 0 01-.838 1.094l-7.896 1.07c-1.572.266-2.685 1.553-2.685 3.062v1.04h10.449c.54 0 .98.435.98.972a.976.976 0 01-.98.97H52.336v-2.982c0-2.508 1.857-4.57 4.335-4.98l.014-.002 7.926-1.075a.978.978 0 011.103.831zm-55.226.067a.978.978 0 011.103-.83l7.909 1.072h.001a5.033 5.033 0 014.365 4.985v2.982H11.458a.976.976 0 01-.98-.971c0-.537.44-.972.98-.972h10.449v-1.04a3.085 3.085 0 00-2.666-3.059h-.004l-7.911-1.073a.973.973 0 01-.838-1.094zM5.304 24.67c.541 0 .98.434.98.97v18.771a.976.976 0 01-.98.972.976.976 0 01-.98-.972v-18.77c0-.536.439-.971.98-.971z" fill="#fff"/><path fill-rule="evenodd" clip-rule="evenodd" d="M17.564 4.04l-6.182 11.792a.98.98 0 01-.87.523H3.345a.835.835 0 00-.847.84v3.686c0 .277.096.462.257.595a.983.983 0 01.093.088l3.178 3.419a.965.965 0 01-.057 1.372.986.986 0 01-1.384-.056l-3.14-3.377c-.613-.534-.906-1.268-.906-2.04v-3.688a2.786 2.786 0 012.806-2.781h6.572l5.947-11.342a.965.965 0 01.086-.135C17.359 1.074 19.615 0 21.94 0h32.188c2.326 0 4.582 1.074 5.99 2.936a.833.833 0 01.086.135l5.947 11.342h6.573a2.786 2.786 0 012.806 2.781v3.687c0 .773-.294 1.507-.907 2.041l-3.14 3.377a.986.986 0 01-1.384.056.965.965 0 01-.056-1.372l3.178-3.42c.029-.03.06-.06.093-.087.161-.133.256-.318.256-.595v-3.687a.835.835 0 00-.846-.838h-7.168a.98.98 0 01-.869-.524L58.505 4.041c-1.03-1.32-2.671-2.099-4.377-2.099H21.94c-1.705 0-3.347.78-4.376 2.099zM5.372 43.44c.541 0 .98.435.98.971v.67c0 2.615 2.131 4.728 4.768 4.728s4.768-2.113 4.768-4.727v-.67c0-.537.439-.972.98-.972.541 0 .98.435.98.971v.67c0 3.688-3.009 6.67-6.728 6.67-3.72 0-6.727-2.982-6.727-6.67v-.67c0-.536.438-.97.98-.97z" fill="#fff"/><path fill-rule="evenodd" clip-rule="evenodd" d="M10.479 44.411c0-.536.438-.97.98-.97h38.814c.541 0 .98.434.98.97a.976.976 0 01-.98.972H11.458a.976.976 0 01-.98-.972zm22.113-6.905c0-.536.438-.97.98-.97H42.7c.541 0 .98.434.98.97a.975.975 0 01-.98.972h-9.129a.975.975 0 01-.98-.972zM16.227 15.384c0-.536.438-.97.98-.97h41.857c.541 0 .98.434.98.97a.976.976 0 01-.98.972H17.206a.976.976 0 01-.98-.972z" fill="#fff"/></svg>