<svg width="90" height="86" fill="none" xmlns="http://www.w3.org/2000/svg"><path fill-rule="evenodd" clip-rule="evenodd" d="M44.966 60.838c-6.424 0-11.632 5.187-11.632 11.586S38.542 84.01 44.966 84.01c6.424 0 11.632-5.187 11.632-11.586S51.39 60.838 44.966 60.838zm-13.63 11.586c0-7.498 6.102-13.576 13.63-13.576 7.527 0 13.63 6.078 13.63 13.576S52.493 86 44.966 86c-7.528 0-13.63-6.078-13.63-13.576z" fill="#fff"/><path fill-rule="evenodd" clip-rule="evenodd" d="M52.228 68.833a.992.992 0 010 1.407l-7.677 7.648-5.469-5.448.706-.703.707-.704.002.002-.002-.002.003.003 4.052 4.037.707.704-.077-.077-.002-.002-.628-.625 6.265-6.24a1.002 1.002 0 011.413 0zm37.546-11.959a.992.992 0 01-.138 1.4c-9.029 7.39-19.882 12.623-31.86 14.785a.995.995 0 11-.356-1.958c11.626-2.1 22.169-7.179 30.947-14.364a1.002 1.002 0 011.407.137zm-89.547 0c.35-.425.98-.486 1.406-.137 8.776 7.182 19.32 12.196 30.954 14.365a.995.995 0 11-.367 1.956C20.25 70.827 9.396 65.666.365 58.274a.992.992 0 01-.138-1.4zm28.545-37.1a1.002 1.002 0 011.412-.053l2.834 2.616c.904.844 2.171 1.312 3.458 1.312h17.807c1.287 0 2.555-.468 3.458-1.312l.005-.004 2.83-2.612a1.002 1.002 0 011.411.053.992.992 0 01-.053 1.406l-2.826 2.609-.002.002c-1.305 1.217-3.073 1.848-4.823 1.848H36.476c-1.75 0-3.518-.63-4.822-1.848l-2.828-2.61a.992.992 0 01-.054-1.407zM73.151 31.04a.996.996 0 01-.854 1.121l-8.06 1.098c-1.605.273-2.74 1.593-2.74 3.141v1.068h10.665c.551 0 .999.445.999.995s-.448.995-1 .995H59.499V36.4c0-2.572 1.895-4.686 4.424-5.106l.014-.003 8.09-1.102a.998.998 0 011.125.852zm-56.371.07a.998.998 0 011.126-.852l8.072 1.1h.002c2.581.343 4.454 2.565 4.454 5.11v3.058H17.771a.997.997 0 01-1-.995c0-.55.448-.995 1-.995h10.665V36.47c0-1.58-1.163-2.932-2.722-3.139h-.003l-8.076-1.1a.996.996 0 01-.854-1.12zm-5.29-5.81c.551 0 .998.445.998.994v19.25c0 .55-.447.995-.999.995s-.999-.446-.999-.995v-19.25c0-.55.447-.995 1-.995z" fill="#fff"/><path fill-rule="evenodd" clip-rule="evenodd" d="M24.001 4.142l-6.31 12.093a1 1 0 01-.887.536H9.488a.855.855 0 00-.864.861v3.781c0 .284.097.474.261.61a.99.99 0 01.095.09l3.244 3.507a.992.992 0 01-.057 1.406 1.002 1.002 0 01-1.412-.057l-3.204-3.464c-.626-.547-.926-1.3-.926-2.092v-3.78a2.85 2.85 0 012.863-2.852h6.71l6.07-11.632a.994.994 0 01.087-.139C23.793 1.101 26.095 0 28.469 0h32.854c2.373 0 4.676 1.101 6.114 3.01.032.044.062.09.087.139l6.07 11.632h6.71a2.85 2.85 0 012.862 2.851v3.781c0 .793-.3 1.545-.925 2.092l-2.94 3.178v18.86c0 .55-.447.996-.999.996a.997.997 0 01-.999-.995v-19.25c0-.25.094-.49.264-.674l3.244-3.506a.987.987 0 01.095-.09c.165-.137.262-.327.262-.61v-3.782a.855.855 0 00-.865-.861h-7.316a1 1 0 01-.886-.536L65.79 4.142C64.74 2.79 63.064 1.99 61.323 1.99H28.469c-1.741 0-3.417.8-4.468 2.152z" fill="#fff"/><path fill-rule="evenodd" clip-rule="evenodd" d="M66.636 44.549c.552 0 .999.445.999.995v.687a4.853 4.853 0 004.867 4.849 4.853 4.853 0 004.868-4.849v-.687c0-.55.448-.995 1-.995.551 0 .998.445.998.995v.687c0 3.78-3.07 6.839-6.865 6.839-3.796 0-6.866-3.058-6.866-6.839v-.687c0-.55.447-.995.999-.995zm-55.076 0c.551 0 .999.445.999.995v.687a4.853 4.853 0 004.867 4.849 4.853 4.853 0 004.868-4.849v-.687c0-.55.447-.995 1-.995.55 0 .998.445.998.995v.687c0 3.78-3.07 6.839-6.866 6.839-3.795 0-6.865-3.058-6.865-6.839v-.687c0-.55.447-.995.999-.995z" fill="#fff"/><path fill-rule="evenodd" clip-rule="evenodd" d="M16.771 45.544c0-.55.448-.995 1-.995h54.388c.552 0 1 .445 1 .995s-.448.995-1 .995H17.77a.997.997 0 01-.998-.995zm22.571-7.081c0-.55.447-.995.999-.995h9.318c.551 0 .999.445.999.995s-.448.995-1 .995h-9.317a.997.997 0 01-1-.995zM22.639 15.776c0-.55.447-.995.999-.995h42.724c.551 0 .999.445.999.995s-.448.995-1 .995H23.639a.997.997 0 01-1-.995z" fill="#fff"/><path d="M61.393 5.12H28.54c-.69 0-1.38.275-1.863.825l-2.623 5.019H65.81l-2.622-5.019c-.415-.55-1.105-.825-1.795-.825z" fill="#fff"/></svg>