<svg width="82" height="96" fill="none" xmlns="http://www.w3.org/2000/svg"><path fill-rule="evenodd" clip-rule="evenodd" d="M40.461 9.664a4.983 4.983 0 10.329 9.96 4.983 4.983 0 00-.329-9.96zm-6.577 5.203a6.745 6.745 0 1113.483-.446 6.745 6.745 0 01-13.483.446z" fill="#344154"/><path fill-rule="evenodd" clip-rule="evenodd" d="M45.96 14.6a.88.88 0 01.881-.88h15.613a.881.881 0 010 1.762H46.841a.881.881 0 01-.881-.881zM31.225 72.653h18.768v18.768H31.225V72.653zm1.763 1.762V89.66H48.23V74.415H32.988z" fill="#344154"/><path fill-rule="evenodd" clip-rule="evenodd" d="M35.33 70.162c0-2.822 2.291-5.205 5.206-5.205h.294c2.822 0 5.205 2.29 5.205 5.206v3.371h-1.762v-3.372a3.451 3.451 0 00-3.444-3.443h-.293a3.452 3.452 0 00-3.443 3.444v3.371H35.33v-3.372z" fill="#344154"/><path fill-rule="evenodd" clip-rule="evenodd" d="M39.728 20.391h1.762v45.447h-1.762V20.39zM71.175 2.36c-1.272 0-2.27.999-2.27 2.272v19.864c0 1.273.998 2.271 2.27 2.271h6.01c1.187 0 2.198-.985 2.198-2.27V4.631a2.247 2.247 0 00-2.27-2.271h-5.938zm-4.033 2.272A4.01 4.01 0 0171.175.599h5.938a4.01 4.01 0 014.032 4.033v19.864c0 2.233-1.773 4.033-3.96 4.033h-6.01a4.01 4.01 0 01-4.033-4.033V4.632zm-4.687 78.286H49.114v-1.762h13.34v1.762z" fill="#344154"/><path fill-rule="evenodd" clip-rule="evenodd" d="M61.573 14.6c0-3.645 2.968-6.525 6.526-6.525a.881.881 0 010 1.763 4.765 4.765 0 00-4.764 4.763c0 2.6 2.106 4.763 4.764 4.763a.881.881 0 110 1.762c-3.647 0-6.526-2.968-6.526-6.525z" fill="#344154"/><path d="M75.72 18.412V7.637c0-.88-.732-1.54-1.538-1.54-.88 0-1.54.734-1.54 1.54v11.801c.88-.513 1.98-.88 3.079-1.026z" fill="#8AA0B2"/><path fill-rule="evenodd" clip-rule="evenodd" d="M71.175 69.797c-1.272 0-2.27.999-2.27 2.271v19.865c0 1.272.998 2.27 2.27 2.27h6.01c1.187 0 2.198-.984 2.198-2.27V72.068c0-1.272-.998-2.27-2.27-2.27h-5.938zm-4.033 2.271a4.01 4.01 0 014.033-4.033h5.938a4.01 4.01 0 014.032 4.033v19.865c0 2.232-1.773 4.033-3.96 4.033h-6.01a4.01 4.01 0 01-4.033-4.033V72.068z" fill="#344154"/><path fill-rule="evenodd" clip-rule="evenodd" d="M61.573 82.037c0-3.646 2.968-6.525 6.526-6.525a.881.881 0 110 1.762 4.765 4.765 0 00-4.764 4.763c0 2.6 2.106 4.763 4.764 4.763a.881.881 0 010 1.763c-3.647 0-6.526-2.968-6.526-6.526z" fill="#344154"/><path d="M75.72 85.922V75.147c0-.88-.732-1.54-1.538-1.54-.88 0-1.54.734-1.54 1.54v11.801a6.414 6.414 0 013.079-1.026z" fill="#8AA0B2"/><path fill-rule="evenodd" clip-rule="evenodd" d="M17.886 14.6a.88.88 0 01.881-.88h15.98a.881.881 0 010 1.762h-15.98a.881.881 0 01-.881-.881zM0 4.632A4.01 4.01 0 014.033.6H9.97a4.01 4.01 0 014.033 4.033v19.865A4.01 4.01 0 019.97 28.53H4.033C1.873 28.53 0 26.756 0 24.497V4.632zm4.033-2.27c-1.273 0-2.27.998-2.27 2.27v19.865c0 1.259 1.057 2.27 2.27 2.27H9.97a2.247 2.247 0 002.271-2.27V4.632c0-1.272-.998-2.27-2.27-2.27H4.032zm14.734 78.794h13.34v1.762h-13.34v-1.762z" fill="#344154"/><path fill-rule="evenodd" clip-rule="evenodd" d="M12.24 8.956a.88.88 0 01.881-.88c3.558 0 6.526 2.879 6.526 6.525 0 3.557-2.88 6.525-6.526 6.525a.881.881 0 010-1.762 4.765 4.765 0 004.763-4.763 4.765 4.765 0 00-4.763-4.763.881.881 0 01-.88-.882z" fill="#344154"/><path d="M5.5 18.412V7.637c0-.88.733-1.54 1.54-1.54.879 0 1.539.734 1.539 1.54v11.801c-.88-.513-1.98-.88-3.079-1.026z" fill="#8AA0B2"/><path fill-rule="evenodd" clip-rule="evenodd" d="M0 72.068a4.01 4.01 0 014.033-4.033H9.97a4.01 4.01 0 014.033 4.033v19.865a4.01 4.01 0 01-4.033 4.033H4.033C1.873 95.966 0 94.192 0 91.933V72.068zm4.033-2.27c-1.273 0-2.27.998-2.27 2.27v19.865c0 1.26 1.057 2.27 2.27 2.27H9.97a2.247 2.247 0 002.271-2.27V72.068c0-1.272-.998-2.27-2.27-2.27H4.032z" fill="#344154"/><path fill-rule="evenodd" clip-rule="evenodd" d="M12.24 76.393c0-.487.395-.881.881-.881 3.558 0 6.526 2.88 6.526 6.525 0 3.558-2.88 6.525-6.526 6.525a.881.881 0 010-1.762 4.765 4.765 0 004.763-4.763 4.765 4.765 0 00-4.763-4.763.881.881 0 01-.88-.88z" fill="#344154"/><path d="M5.5 85.922V75.147c0-.88.733-1.54 1.54-1.54.879 0 1.539.734 1.539 1.54v11.801A6.414 6.414 0 005.5 85.922z" fill="#8AA0B2"/></svg>