<svg width="92" height="92" fill="none" xmlns="http://www.w3.org/2000/svg"><path fill-rule="evenodd" clip-rule="evenodd" d="M15.11 15.11c-17.061 17.06-17.061 44.72 0 61.78 17.06 17.061 44.72 17.061 61.78 0 17.061-17.06 17.061-44.72 0-61.78-17.06-17.061-44.72-17.061-61.78 0zm-1.637 63.417c-17.964-17.964-17.964-47.09 0-65.054s47.09-17.964 65.054 0 17.964 47.09 0 65.054-47.09 17.964-65.054 0z" fill="#fff"/><path fill-rule="evenodd" clip-rule="evenodd" d="M37.654 55.538c.393-4.283 3.987-7.558 8.302-7.558a8.32 8.32 0 018.301 7.552c11.607 1.04 22.527 4.422 32.367 9.618l-1.08 2.046c-9.864-5.209-20.834-8.54-32.496-9.443l-1.068-.083v-1.352a6.009 6.009 0 00-6.023-6.024 6.009 6.009 0 00-6.024 6.024v1.346l-1.061.088c-11.667.972-22.642 4.306-32.508 9.447l-1.07-2.052c9.839-5.126 20.756-8.505 32.36-9.61zM11.273 34.702C16 20.086 29.811 9.472 46.024 9.472c16.214 0 29.952 10.543 34.75 25.154l-2.198.722c-4.495-13.69-17.367-23.562-32.552-23.562-15.184 0-28.124 9.942-32.55 23.627l-2.2-.711z" fill="#fff"/><path fill-rule="evenodd" clip-rule="evenodd" d="M46.026 9.472c.639 0 1.157.518 1.157 1.157v5.984a1.157 1.157 0 11-2.314 0V10.63c0-.639.518-1.157 1.157-1.157zm-11.269 1.817a1.157 1.157 0 011.457.742l1.83 5.632a1.157 1.157 0 11-2.2.715l-1.83-5.631a1.157 1.157 0 01.743-1.458zM24.578 16.45a1.157 1.157 0 011.615.259l3.52 4.857a1.157 1.157 0 11-1.873 1.358l-3.52-4.858a1.157 1.157 0 01.258-1.615zm-8.071 8.073a1.157 1.157 0 011.616-.258l4.857 3.52a1.157 1.157 0 11-1.357 1.873l-4.858-3.52a1.157 1.157 0 01-.258-1.615zm-5.231 10.181a1.157 1.157 0 011.455-.748l5.703 1.83a1.157 1.157 0 11-.707 2.203l-5.703-1.83a1.157 1.157 0 01-.748-1.455zm46.103-23.411c.605.204.93.86.726 1.466l-1.9 5.632a1.157 1.157 0 11-2.193-.74l1.9-5.632c.205-.605.862-.93 1.467-.726zm10.164 5.157c.517.376.633 1.099.258 1.616l-3.52 4.858a1.157 1.157 0 01-1.873-1.358l3.52-4.857a1.157 1.157 0 011.615-.258zm8.072 8.073c.375.517.26 1.24-.258 1.616l-4.857 3.52a1.157 1.157 0 01-1.358-1.874L74 24.265a1.157 1.157 0 011.615.258zm5.165 10.181c.195.608-.14 1.26-.749 1.455l-5.702 1.83a1.157 1.157 0 01-.707-2.203l5.702-1.83c.609-.196 1.26.14 1.455.748zm-34.754-10.8c.639 0 1.157.518 1.157 1.157v17.67a1.157 1.157 0 11-2.314 0V25.06c0-.639.518-1.157 1.157-1.157z" fill="#fff"/><path d="M51.094 75.818c0-2.746-4.998-9.645-4.998-9.645s-4.998 6.9-4.998 9.645c0 2.745 2.252 4.998 4.998 4.998 2.745 0 4.998-2.253 4.998-4.998z" fill="#fff"/></svg>