<svg width="24" height="24" fill="none" xmlns="http://www.w3.org/2000/svg"><path d="M17.248 24a6.687 6.687 0 01-2.294-.41 24.463 24.463 0 01-8.883-5.662A24.46 24.46 0 01.41 9.045a6.638 6.638 0 01-.338-3.263 6.795 6.795 0 011.156-2.897A6.823 6.823 0 013.569.8C4.555.27 5.632 0 6.77 0a.75.75 0 01.733.593L8.68 6.086a.75.75 0 01-.203.688L6.465 8.785a19.741 19.741 0 008.75 8.75l2.01-2.012a.75.75 0 01.688-.203l5.494 1.177a.75.75 0 01.592.733 6.683 6.683 0 01-.799 3.2 6.796 6.796 0 01-4.983 3.499 6.662 6.662 0 01-.969.071zM6.17 1.533a5.191 5.191 0 00-3.715 2.213 5.167 5.167 0 00-.636 4.787A22.748 22.748 0 0015.466 22.18a5.167 5.167 0 004.787-.636 5.195 5.195 0 002.214-3.714l-4.47-.958-2.1 2.1a.75.75 0 01-.85.15A21.236 21.236 0 014.879 8.951a.75.75 0 01.149-.85l2.1-2.1-.957-4.47zM23.25 12.75a.75.75 0 01-.75-.75c0-5.79-4.71-10.5-10.5-10.5A.75.75 0 0112 0a11.92 11.92 0 018.485 3.515 11.92 11.92 0 013.514 8.484.75.75 0 01-.75.75z" fill="#FF4C00"/><path d="M20.25 12.75a.75.75 0 01-.75-.75c0-4.136-3.365-7.5-7.5-7.5A.75.75 0 0112 3c4.962 0 9 4.037 9 9a.75.75 0 01-.75.75z" fill="#FF4C00"/><path d="M17.25 12.75a.75.75 0 01-.75-.75c0-2.482-2.019-4.5-4.5-4.5A.75.75 0 0112 6c3.308 0 6 2.691 6 6a.75.75 0 01-.75.75z" fill="#FF4C00"/></svg>