<svg width="24" height="24" viewBox="0 0 24 24" fill="none" xmlns="http://www.w3.org/2000/svg">
<path d="M16.276 14.1193L12.9297 11.6096V6.4973C12.9297 5.98327 12.5142 5.56777 12.0002 5.56777C11.4862 5.56777 11.0707 5.98327 11.0707 6.4973V12.0744C11.0707 12.3672 11.2082 12.6433 11.4425 12.818L15.1605 15.6066C15.3278 15.732 15.523 15.7925 15.7173 15.7925C16.0008 15.7925 16.2796 15.6651 16.4619 15.4197C16.7705 15.0098 16.6869 14.427 16.276 14.1193Z" fill="#FF4C00"/>
<path d="M12.0002 0C5.38304 0 0.000244141 5.3828 0.000244141 12C0.000244141 18.6172 5.38304 24 12.0002 24C18.6174 24 24.0002 18.6172 24.0002 12C24.0002 5.3828 18.6174 0 12.0002 0ZM12.0002 22.141C6.40923 22.141 1.85926 17.591 1.85926 12C1.85926 6.40898 6.40923 1.85902 12.0002 1.85902C17.5922 1.85902 22.1412 6.40898 22.1412 12C22.1412 17.591 17.5913 22.141 12.0002 22.141Z" fill="#FF4C00"/>
</svg>
