<svg width="18" height="24" viewBox="0 0 18 24" fill="none" xmlns="http://www.w3.org/2000/svg">
<path d="M9.00024 0C4.03674 0 0.000244141 4.0365 0.000244141 9C0.000244141 15.2385 8.12424 23.4345 8.46924 23.781C8.61624 23.9265 8.80824 24 9.00024 24C9.19224 24 9.38424 23.9265 9.53124 23.781C9.87624 23.4345 18.0002 15.2385 18.0002 9C18.0002 4.0365 13.9637 0 9.00024 0ZM9.00024 22.1655C7.20924 20.2485 1.50024 13.7655 1.50024 9C1.50024 4.8645 4.86474 1.5 9.00024 1.5C13.1357 1.5 16.5002 4.8645 16.5002 9C16.5002 13.761 10.7912 20.2485 9.00024 22.1655Z" fill="#FF4C00"/>
<path d="M9.00024 4.5C6.51924 4.5 4.50024 6.519 4.50024 9C4.50024 11.481 6.51924 13.5 9.00024 13.5C11.4812 13.5 13.5002 11.481 13.5002 9C13.5002 6.519 11.4812 4.5 9.00024 4.5ZM9.00024 12C7.34574 12 6.00024 10.6545 6.00024 9C6.00024 7.3455 7.34574 6 9.00024 6C10.6547 6 12.0002 7.3455 12.0002 9C12.0002 10.6545 10.6547 12 9.00024 12Z" fill="#FF4C00"/>
</svg>
