<svg width="33" height="33" viewBox="0 0 33 33" fill="none" xmlns="http://www.w3.org/2000/svg">
<path d="M3.63 13.695C3.96 12.21 4.62 10.725 5.445 9.405L3.795 5.94L6.105 3.63L9.57 5.28C10.89 4.455 12.21 3.96 13.695 3.63L14.85 0H18.15L19.47 3.63C20.955 3.96 22.275 4.62 23.595 5.445L27.06 3.795L29.37 5.94L27.72 9.405C28.545 10.725 29.04 12.045 29.37 13.53L33 14.85V18.15L29.37 19.47C29.04 20.955 28.38 22.44 27.72 23.595L29.37 27.06L27.06 29.37L23.595 27.72C22.275 28.545 20.955 29.205 19.47 29.535L18.15 33H14.85L13.53 29.37C13.035 29.205 12.375 29.04 11.88 28.875L14.52 26.235C20.79 27.39 26.4 22.77 26.4 16.5C26.4 11.055 21.945 6.6 16.5 6.6C10.395 6.6 5.775 12.045 6.765 17.82L3.96 20.625C3.795 20.13 3.63 19.8 3.63 19.305L0 18.15V14.85L3.63 13.695Z" fill="#FF4C00"/>
<path d="M0.660013 28.7101L10.395 18.975C8.08501 13.86 12.87 8.41505 18.15 9.90005L15.18 12.87C13.86 14.19 13.86 16.335 15.18 17.49C16.335 18.81 18.645 18.81 19.8 17.49L22.77 14.6851C24.255 19.305 19.47 24.585 14.025 22.4401L4.29001 32.1751C3.30001 33.1651 1.81501 33.1651 0.825012 32.1751C-0.164988 31.3501 -0.164988 29.7001 0.660013 28.7101Z" fill="#FF4C00"/>
</svg>
