<svg width="44" height="52" viewBox="0 0 44 52" fill="none" xmlns="http://www.w3.org/2000/svg">
<path d="M37.5566 6.38536C33.4014 2.2677 27.8764 0 22.0002 0C16.1239 0 10.5992 2.26759 6.44364 6.38536C2.28843 10.5029 0 15.9774 0 21.8005C0 27.6236 2.28843 33.0982 6.44364 37.2159L20.9132 51.5538C21.2134 51.8514 21.6068 52 22.0002 52C22.3937 52 22.7871 51.8512 23.0872 51.5538L37.5563 37.216C41.7116 33.0983 43.9999 27.6237 44 21.8006C43.9999 15.9773 41.7117 10.5028 37.5566 6.38536ZM28.9094 28.6468C27.0639 30.4756 24.6103 31.4828 22.0003 31.4828C19.3904 31.4828 16.9367 30.4757 15.0914 28.6469C13.2458 26.8182 12.2295 24.3868 12.2295 21.8005C12.2295 19.2143 13.2458 16.7829 15.0914 14.954C16.9367 13.1253 19.3904 12.1182 22.0003 12.1182C24.6103 12.1182 27.0639 13.1253 28.9094 14.954C30.7548 16.7827 31.7712 19.2141 31.7712 21.8004C31.7711 24.3867 30.7547 26.8182 28.9094 28.6468Z" fill="#FF4C00"/>
</svg>
