<svg width="88" height="88" viewBox="0 0 88 88" fill="none" xmlns="http://www.w3.org/2000/svg">
<path fill-rule="evenodd" clip-rule="evenodd" d="M44 2.01527C20.8125 2.01527 2.01527 20.8125 2.01527 44C2.01527 67.1875 20.8125 85.9847 44 85.9847C67.1876 85.9847 85.9847 67.1875 85.9847 44C85.9847 20.8125 67.1876 2.01527 44 2.01527ZM0 44C0 19.6995 19.6995 0 44 0C68.3006 0 88 19.6995 88 44C88 68.3005 68.3006 88 44 88C19.6995 88 0 68.3005 0 44Z" fill="white"/>
<path fill-rule="evenodd" clip-rule="evenodd" d="M12.7554 36.7008C8.67729 53.9715 19.3719 71.278 36.6425 75.3561C53.9131 79.4341 71.2197 68.7395 75.2977 51.4689C79.3758 34.1983 68.6811 16.8917 51.4105 12.8136C34.1399 8.73556 16.8334 19.4302 12.7554 36.7008ZM36.1794 77.3173C17.8256 72.9835 6.46026 54.5915 10.7941 36.2377C15.1279 17.884 33.5199 6.51854 51.8736 10.8524C70.2274 15.1862 81.5928 33.5782 77.259 51.932C72.9251 70.2858 54.5332 81.6512 36.1794 77.3173Z" fill="white"/>
<path fill-rule="evenodd" clip-rule="evenodd" d="M52.5729 62.2802C51.8979 54.8559 57.8202 48.5042 65.289 48.5042H76.7261C77.2826 48.5042 77.7337 48.9553 77.7337 49.5118C77.7337 50.0683 77.2826 50.5194 76.7261 50.5194H65.289C58.9791 50.5194 54.016 55.8788 54.5796 62.0952C54.9157 65.5883 55.7903 69.764 57.6114 74.283C57.8194 74.7992 57.5696 75.3862 57.0534 75.5942C56.5372 75.8022 55.9502 75.5524 55.7422 75.0362C53.8432 70.3241 52.9264 65.9572 52.5733 62.2854L52.5729 62.2802Z" fill="white"/>
<path fill-rule="evenodd" clip-rule="evenodd" d="M32.7983 32.1137C40.0088 29.1161 48.0699 29.1901 55.1988 32.1129C59.6455 33.9319 64.3384 35.0002 69.0784 35.0002H76.2438C76.8003 35.0002 77.2515 35.4513 77.2515 36.0078C77.2515 36.5643 76.8003 37.0155 76.2438 37.0155H69.0784C64.0352 37.0155 59.0827 35.8792 54.435 33.9778L54.4343 33.9775C47.7845 31.2511 40.2757 31.1869 33.5695 33.9756L33.5641 33.9778C28.9184 35.8783 24.0347 37.0155 18.9896 37.0155H11.8242C11.2677 37.0155 10.8165 36.5643 10.8165 36.0078C10.8165 35.4513 11.2677 35.0002 11.8242 35.0002H18.9896C23.727 35.0002 28.3503 33.9331 32.7983 32.1137Z" fill="white"/>
<path fill-rule="evenodd" clip-rule="evenodd" d="M10.3337 49.5118C10.3337 48.9553 10.7849 48.5042 11.3414 48.5042H22.7785C30.2473 48.5042 36.1696 54.8559 35.4946 62.2802L35.4941 62.2854C35.1411 65.9572 34.2243 70.3241 32.3253 75.0362C32.1173 75.5524 31.5303 75.8022 31.0141 75.5942C30.4979 75.3862 30.2481 74.7992 30.4561 74.283C32.2772 69.7639 33.1518 65.5881 33.4879 62.095C34.0514 55.8787 29.0883 50.5194 22.7785 50.5194H11.3414C10.7849 50.5194 10.3337 50.0683 10.3337 49.5118Z" fill="white"/>
<path fill-rule="evenodd" clip-rule="evenodd" d="M38.2152 43.8362C37.4599 47.0348 39.4406 50.2401 42.6392 50.9954C45.8378 51.7507 49.0431 49.7699 49.7984 46.5713C50.5537 43.3727 48.573 40.1675 45.3744 39.4122C42.1758 38.6569 38.9705 40.6376 38.2152 43.8362ZM42.1761 52.9566C37.8944 51.9456 35.2429 47.6549 36.2539 43.3731C37.265 39.0913 41.5557 36.4399 45.8375 37.451C50.1192 38.462 52.7707 42.7527 51.7596 47.0344C50.7486 51.3162 46.4579 53.9677 42.1761 52.9566Z" fill="white"/>
<path d="M43.9988 47.5825C42.6208 47.5825 41.5184 46.4801 41.5184 45.1022C41.5184 43.7242 42.6208 42.6218 43.9988 42.6218C45.3767 42.6218 46.4791 43.7242 46.4791 45.1022C46.4791 46.4801 45.3767 47.5825 43.9988 47.5825Z" fill="white"/>
</svg>
