<svg width="92" height="82" viewBox="0 0 92 82" fill="none" xmlns="http://www.w3.org/2000/svg">
<path fill-rule="evenodd" clip-rule="evenodd" d="M8.74347 6.1916C7.16866 4.63567 4.6166 4.63567 3.04179 6.1916C1.46698 7.74754 1.46698 10.269 3.04179 11.8249L24.5618 33.0869C24.7982 33.3205 24.8896 33.6616 24.8011 33.9802C23.95 37.0434 24.7418 40.4621 27.1682 42.8595C29.0162 44.6853 31.444 45.5863 33.8622 45.536L31.8112 43.5097C30.5404 42.3289 30.1493 40.5915 30.5534 38.9945L30.5578 38.9776C31.315 36.2098 33.5083 34.1235 36.2194 33.3795L36.2316 33.3762C37.7886 32.9714 39.617 33.3604 40.8126 34.6162L42.8384 36.6176C42.8662 34.2254 41.9872 31.8395 40.1546 30.0288C37.7282 27.6314 34.2679 26.8491 31.1676 27.69C30.8451 27.7775 30.4999 27.6872 30.2634 27.4536L8.74347 6.1916ZM1.72609 4.89168C4.02754 2.61781 7.75771 2.61781 10.0592 4.89168L31.2077 25.7867C34.784 25.0025 38.6889 25.9809 41.4703 28.7289C44.2496 31.4748 45.1894 35.2957 44.4641 38.807C44.3956 39.1385 44.1484 39.406 43.8204 39.5034C43.4925 39.6008 43.1369 39.5124 42.8947 39.2731L39.4863 35.9056C39.4787 35.8981 39.4713 35.8905 39.464 35.8828C38.7895 35.1687 37.6871 34.901 36.7111 35.1525C34.616 35.7298 32.9375 37.3366 32.3564 39.4487C32.097 40.4849 32.3708 41.511 33.0932 42.1772C33.101 42.1844 33.1087 42.1917 33.1163 42.1992L36.5247 45.5668C36.7646 45.8037 36.8549 46.1509 36.7604 46.4728C36.6659 46.7946 36.4016 47.0402 36.0706 47.1136C32.4913 47.9075 28.6222 46.8959 25.8525 44.1594C23.0712 41.4114 22.0809 37.5533 22.8746 34.0199L1.72609 13.1249C-0.575363 10.851 -0.575364 7.16554 1.72609 4.89168Z" fill="#344154"/>
<path fill-rule="evenodd" clip-rule="evenodd" d="M29.5722 19.6557C32.1797 17.7757 35.2417 16.6396 38.4747 16.6396C43.6829 16.6396 48.3472 19.4623 51.6765 23.8768C55.0065 28.2923 57.0487 34.3495 57.0487 40.9998C57.0487 47.6484 55.0243 53.7051 51.7113 58.121C48.3987 62.5364 43.7507 65.36 38.5415 65.36C33.5481 65.36 29.0884 62.7663 25.8227 58.6707C22.5636 54.5835 20.4529 48.9611 20.1042 42.7318C20.0342 42.1577 20.0343 41.5912 20.0343 41.028L20.0343 40.9998C20.0343 40.4922 20.4508 40.0806 20.9646 40.0806C21.4784 40.0806 21.895 40.4922 21.895 40.9998C21.895 41.6052 21.8962 42.0751 21.9546 42.5366C21.9573 42.5579 21.9592 42.5793 21.9604 42.6007C22.2854 48.5087 24.2832 53.7694 27.2843 57.533C30.2841 61.2951 34.2452 63.5217 38.5415 63.5217C43.023 63.5217 47.1634 61.0958 50.2165 57.0263C53.2693 52.9572 55.188 47.2933 55.188 40.9998C55.188 34.7081 53.2536 29.0448 50.1845 24.9753C47.1146 20.9048 42.957 18.478 38.4747 18.478C35.6927 18.478 33.0072 19.4549 30.669 21.1407C30.254 21.4399 29.672 21.3501 29.3691 20.94C29.0662 20.5299 29.1572 19.9549 29.5722 19.6557Z" fill="#344154"/>
<path fill-rule="evenodd" clip-rule="evenodd" d="M10.865 25.3259C11.3585 25.4672 11.6426 25.977 11.4996 26.4646C10.1857 30.9431 9.39773 35.8754 9.39773 40.9997C9.39773 51.8831 12.7036 61.7071 18.0039 68.7887C23.3043 75.8706 30.5522 80.1613 38.475 80.1613C38.9888 80.1613 39.4054 80.5728 39.4054 81.0805C39.4054 81.5881 38.9888 81.9997 38.475 81.9997C29.8235 81.9997 22.0676 77.3102 16.5078 69.8817C10.9478 62.4531 7.53705 52.2367 7.53705 40.9997C7.53705 35.6911 8.35302 30.5866 9.71245 25.9528C9.85549 25.4653 10.3715 25.1846 10.865 25.3259Z" fill="#344154"/>
<path fill-rule="evenodd" clip-rule="evenodd" d="M18.8024 9.35229C24.091 3.51636 30.9464 0 38.4759 0C47.1274 0 54.8833 4.68949 60.4431 12.1179C66.0031 19.5466 69.4139 29.763 69.4139 41C69.4139 56.6787 62.8381 70.3285 52.984 77.273C52.5657 77.5678 51.9848 77.4717 51.6864 77.0584C51.388 76.6452 51.4852 76.0711 51.9035 75.7764C61.1635 69.2505 67.5532 56.2238 67.5532 41C67.5532 30.1166 64.2473 20.2926 58.9471 13.211C53.6466 6.1291 46.3987 1.83837 38.4759 1.83837C31.5695 1.83837 25.1922 5.05718 20.1887 10.5786C19.8459 10.9568 19.2578 10.9889 18.875 10.6502C18.4922 10.3116 18.4597 9.7305 18.8024 9.35229Z" fill="#344154"/>
<path fill-rule="evenodd" clip-rule="evenodd" d="M37.5431 0.919187C37.5431 0.411534 37.9596 0 38.4734 0H61.0627C69.7142 0 77.4701 4.68949 83.0299 12.1179C88.5899 19.5466 92.0007 29.763 92.0007 41C92.0007 52.2264 88.7629 62.44 83.3722 69.871C77.9796 77.3048 70.388 82 61.731 82H38.4734C37.9596 82 37.5431 81.5885 37.5431 81.0808C37.5431 80.5732 37.9596 80.1616 38.4734 80.1616H61.731C69.6484 80.1616 76.7264 75.8766 81.8599 68.8001C86.9953 61.7208 90.14 51.894 90.14 41C90.14 30.1166 86.8341 20.2926 81.5339 13.211C76.2334 6.1291 68.9855 1.83837 61.0627 1.83837H38.4734C37.9596 1.83837 37.5431 1.42684 37.5431 0.919187Z" fill="#344154"/>
<path d="M87.0616 40.9999C87.0616 50.9706 84.3215 60.215 79.3759 67.0162C75.0318 73.025 69.2842 76.5907 63.2025 77.0529C71.6902 69.1292 77.1704 56.055 77.1704 40.9999C77.1704 26.0769 71.4229 12.9368 62.6678 4.94702C76.2348 6.06955 87.0616 21.851 87.0616 40.9999Z" fill="#FF6D3B"/>
<path fill-rule="evenodd" clip-rule="evenodd" d="M39.5428 48.2279C40.0055 48.0072 40.5617 48.1988 40.785 48.656L43.592 54.4007C43.8154 54.8579 43.6213 55.4074 43.1586 55.6281C42.6959 55.8488 42.1397 55.6571 41.9163 55.1999L39.1094 49.4552C38.886 48.9981 39.08 48.4486 39.5428 48.2279Z" fill="#344154"/>
<path fill-rule="evenodd" clip-rule="evenodd" d="M42.64 46.9019C42.9213 46.4771 43.4979 46.358 43.9278 46.636L49.3412 50.1356C49.7712 50.4136 49.8917 50.9833 49.6104 51.4081C49.329 51.8328 48.7524 51.9519 48.3225 51.6739L42.9091 48.1743C42.4791 47.8963 42.3586 47.3267 42.64 46.9019Z" fill="#344154"/>
<path fill-rule="evenodd" clip-rule="evenodd" d="M36.6132 49.7904C37.1252 49.8326 37.5057 50.2768 37.463 50.7827L36.9284 57.1217C36.8857 57.6276 36.436 58.0036 35.924 57.9614C35.412 57.9192 35.0315 57.4749 35.0741 56.969L35.6088 50.6301C35.6515 50.1242 36.1011 49.7482 36.6132 49.7904Z" fill="#344154"/>
</svg>
