<svg width="82" height="96" viewBox="0 0 82 96" fill="none" xmlns="http://www.w3.org/2000/svg">
<path fill-rule="evenodd" clip-rule="evenodd" d="M40.4611 9.66369C37.7104 9.75453 35.5543 12.058 35.6451 14.8086C35.7359 17.5593 38.0394 19.7155 40.79 19.6246C43.5407 19.5338 45.6969 17.2303 45.606 14.4797C45.5152 11.729 43.2117 9.57285 40.4611 9.66369ZM33.8838 14.8668C33.7608 11.1434 36.6795 8.02532 40.4029 7.90235C44.1263 7.77939 47.2444 10.6981 47.3674 14.4215C47.4903 18.1449 44.5716 21.263 40.8482 21.386C37.1248 21.5089 34.0067 18.5902 33.8838 14.8668Z" fill="white"/>
<path fill-rule="evenodd" clip-rule="evenodd" d="M45.9599 14.6006C45.9599 14.114 46.3544 13.7195 46.841 13.7195H62.4541C62.9407 13.7195 63.3352 14.114 63.3352 14.6006C63.3352 15.0872 62.9407 15.4817 62.4541 15.4817H46.841C46.3544 15.4817 45.9599 15.0872 45.9599 14.6006Z" fill="white"/>
<path fill-rule="evenodd" clip-rule="evenodd" d="M31.2254 72.6533H49.9934V91.4214H31.2254V72.6533ZM32.9877 74.4155V89.6592H48.2312V74.4155H32.9877Z" fill="white"/>
<path fill-rule="evenodd" clip-rule="evenodd" d="M35.3304 70.1627C35.3304 67.3402 37.621 64.9568 40.5363 64.9568H40.8295C43.652 64.9568 46.0353 67.2474 46.0353 70.1627V73.5345H44.2731V70.1627C44.2731 68.24 42.6982 66.719 40.8295 66.719H40.5363C38.6137 66.719 37.0926 68.2939 37.0926 70.1627V73.5345H35.3304V70.1627Z" fill="white"/>
<path fill-rule="evenodd" clip-rule="evenodd" d="M39.7279 20.3911H41.4901V65.8376H39.7279V20.3911Z" fill="white"/>
<path fill-rule="evenodd" clip-rule="evenodd" d="M71.1751 2.36085C69.9025 2.36085 68.9043 3.35904 68.9043 4.63162V24.4962C68.9043 25.7688 69.9025 26.767 71.1751 26.767H77.1858C78.3717 26.767 79.3833 25.7824 79.3833 24.4962V4.63162C79.3833 3.35904 78.3851 2.36085 77.1125 2.36085H71.1751ZM67.1421 4.63162C67.1421 2.38576 68.9293 0.598633 71.1751 0.598633H77.1125C79.3583 0.598633 81.1455 2.38576 81.1455 4.63162V24.4962C81.1455 26.7285 79.3718 28.5292 77.1858 28.5292H71.1751C68.9293 28.5292 67.1421 26.7421 67.1421 24.4962V4.63162Z" fill="white"/>
<path fill-rule="evenodd" clip-rule="evenodd" d="M62.4545 82.9185H49.1138V81.1562H62.4545V82.9185Z" fill="white"/>
<path fill-rule="evenodd" clip-rule="evenodd" d="M61.5732 14.6005C61.5732 10.9545 64.5407 8.0752 68.0985 8.0752C68.5851 8.0752 68.9796 8.46968 68.9796 8.9563C68.9796 9.44293 68.5851 9.83741 68.0985 9.83741C65.499 9.83741 63.3354 11.9426 63.3354 14.6005C63.3354 17.2 65.4406 19.3635 68.0985 19.3635C68.5851 19.3635 68.9796 19.758 68.9796 20.2446C68.9796 20.7313 68.5851 21.1258 68.0985 21.1258C64.4525 21.1258 61.5732 18.1583 61.5732 14.6005Z" fill="white"/>
<path d="M75.7208 18.412V7.6368C75.7208 6.75719 74.9878 6.09741 74.1815 6.09741C73.3019 6.09741 72.6421 6.83049 72.6421 7.6368V19.4382C73.5218 18.9251 74.6213 18.5586 75.7208 18.412Z" fill="white"/>
<path fill-rule="evenodd" clip-rule="evenodd" d="M71.1751 69.7976C69.9025 69.7976 68.9043 70.7958 68.9043 72.0684V91.933C68.9043 93.2056 69.9025 94.2037 71.1751 94.2037H77.1858C78.3717 94.2037 79.3833 93.2191 79.3833 91.933V72.0684C79.3833 70.7958 78.3851 69.7976 77.1125 69.7976H71.1751ZM67.1421 72.0684C67.1421 69.8225 68.9293 68.0354 71.1751 68.0354H77.1125C79.3583 68.0354 81.1455 69.8225 81.1455 72.0684V91.933C81.1455 94.1653 79.3718 95.966 77.1858 95.966H71.1751C68.9293 95.966 67.1421 94.1788 67.1421 91.933V72.0684Z" fill="white"/>
<path fill-rule="evenodd" clip-rule="evenodd" d="M61.5732 82.0373C61.5732 78.3913 64.5407 75.512 68.0985 75.512C68.5851 75.512 68.9796 75.9064 68.9796 76.3931C68.9796 76.8797 68.5851 77.2742 68.0985 77.2742C65.499 77.2742 63.3354 79.3794 63.3354 82.0373C63.3354 84.6368 65.4406 86.8003 68.0985 86.8003C68.5851 86.8003 68.9796 87.1948 68.9796 87.6814C68.9796 88.168 68.5851 88.5625 68.0985 88.5625C64.4525 88.5625 61.5732 85.5951 61.5732 82.0373Z" fill="white"/>
<path d="M75.7208 85.9221V75.147C75.7208 74.2674 74.9878 73.6077 74.1815 73.6077C73.3019 73.6077 72.6421 74.3407 72.6421 75.147V86.9484C73.5218 86.362 74.6213 85.9954 75.7208 85.9221Z" fill="white"/>
<path fill-rule="evenodd" clip-rule="evenodd" d="M17.886 14.6006C17.886 14.114 18.2805 13.7195 18.7672 13.7195H34.7467C35.2333 13.7195 35.6278 14.114 35.6278 14.6006C35.6278 15.0872 35.2333 15.4817 34.7467 15.4817H18.7672C18.2805 15.4817 17.886 15.0872 17.886 14.6006Z" fill="white"/>
<path fill-rule="evenodd" clip-rule="evenodd" d="M0 4.63211C0 2.38625 1.78721 0.599121 4.03303 0.599121H9.9704C12.2162 0.599121 14.0034 2.38625 14.0034 4.63211V24.4967C14.0034 26.7426 12.2162 28.5297 9.9704 28.5297H4.03303C1.87385 28.5297 0 26.7558 0 24.4967V4.63211ZM4.03303 2.36134C2.76042 2.36134 1.76222 3.35953 1.76222 4.63211V24.4967C1.76222 25.756 2.82038 26.7675 4.03303 26.7675H9.9704C11.243 26.7675 12.2412 25.7693 12.2412 24.4967V4.63211C12.2412 3.35953 11.243 2.36134 9.9704 2.36134H4.03303Z" fill="white"/>
<path fill-rule="evenodd" clip-rule="evenodd" d="M18.7672 81.1562H32.1079V82.9185H18.7672V81.1562Z" fill="white"/>
<path fill-rule="evenodd" clip-rule="evenodd" d="M12.2403 8.9563C12.2403 8.46968 12.6348 8.0752 13.1214 8.0752C16.6792 8.0752 19.6467 10.9545 19.6467 14.6005C19.6467 18.1583 16.7674 21.1258 13.1214 21.1258C12.6348 21.1258 12.2403 20.7313 12.2403 20.2446C12.2403 19.758 12.6348 19.3635 13.1214 19.3635C15.7793 19.3635 17.8845 17.2 17.8845 14.6005C17.8845 11.9426 15.7209 9.83741 13.1214 9.83741C12.6348 9.83741 12.2403 9.44293 12.2403 8.9563Z" fill="white"/>
<path d="M5.50005 18.412V7.6368C5.50005 6.75719 6.23306 6.09741 7.03937 6.09741C7.91898 6.09741 8.57869 6.83049 8.57869 7.6368V19.4382C7.69908 18.9251 6.59956 18.5586 5.50005 18.412Z" fill="white"/>
<path fill-rule="evenodd" clip-rule="evenodd" d="M0 72.0684C0 69.8225 1.78721 68.0354 4.03303 68.0354H9.9704C12.2162 68.0354 14.0034 69.8225 14.0034 72.0684V91.933C14.0034 94.1788 12.2162 95.966 9.9704 95.966H4.03303C1.87385 95.966 0 94.1921 0 91.933V72.0684ZM4.03303 69.7976C2.76042 69.7976 1.76222 70.7958 1.76222 72.0684V91.933C1.76222 93.1923 2.82038 94.2037 4.03303 94.2037H9.9704C11.243 94.2037 12.2412 93.2056 12.2412 91.933V72.0684C12.2412 70.7958 11.243 69.7976 9.9704 69.7976H4.03303Z" fill="white"/>
<path fill-rule="evenodd" clip-rule="evenodd" d="M12.2403 76.3931C12.2403 75.9064 12.6348 75.512 13.1214 75.512C16.6792 75.512 19.6467 78.3913 19.6467 82.0373C19.6467 85.5951 16.7674 88.5625 13.1214 88.5625C12.6348 88.5625 12.2403 88.168 12.2403 87.6814C12.2403 87.1948 12.6348 86.8003 13.1214 86.8003C15.7793 86.8003 17.8845 84.6368 17.8845 82.0373C17.8845 79.3794 15.7209 77.2742 13.1214 77.2742C12.6348 77.2742 12.2403 76.8797 12.2403 76.3931Z" fill="white"/>
<path d="M5.50005 85.9221V75.147C5.50005 74.2674 6.23306 73.6077 7.03937 73.6077C7.91898 73.6077 8.57869 74.3407 8.57869 75.147V86.9484C7.69908 86.362 6.59956 85.9954 5.50005 85.9221Z" fill="white"/>
</svg>
