<svg width="94" height="87" viewBox="0 0 94 87" fill="none" xmlns="http://www.w3.org/2000/svg">
<path fill-rule="evenodd" clip-rule="evenodd" d="M23.1088 20.413C23.4848 20.0086 24.1185 19.9846 24.5241 20.3594L27.4487 23.0613C28.3872 23.9383 29.7027 24.4243 31.0375 24.4243H49.4147C50.7495 24.4243 52.065 23.9383 53.0035 23.0613L53.0077 23.0574L55.9281 20.3594C56.3338 19.9846 56.9675 20.0086 57.3435 20.413C57.7195 20.8174 57.6954 21.449 57.2897 21.8238L54.3735 24.5179C54.3727 24.5186 54.372 24.5193 54.3713 24.52C53.0306 25.7716 51.2131 26.4209 49.4147 26.4209H31.0375C29.2391 26.4209 27.4216 25.7717 26.0809 24.52L23.1625 21.8238C22.7568 21.449 22.7328 20.8173 23.1088 20.413Z" fill="white"/>
<path fill-rule="evenodd" clip-rule="evenodd" d="M68.8539 32.0324C68.9289 32.5786 68.5453 33.082 67.9973 33.1567L59.6788 34.2907C58.0085 34.5745 56.8253 35.9495 56.8253 37.5637V39.6937C56.8253 40.2451 56.3769 40.6921 55.8238 40.6921C55.2707 40.6921 54.8223 40.2451 54.8223 39.6937V37.5637C54.8223 34.9223 56.7668 32.7503 59.3631 32.3189L59.3775 32.3165L67.7259 31.1785C68.2739 31.1038 68.779 31.4861 68.8539 32.0324Z" fill="white"/>
<path fill-rule="evenodd" clip-rule="evenodd" d="M70.037 85.0035C82.0215 85.0035 91.7369 75.3193 91.7369 63.3733C91.7369 51.4272 82.0215 41.743 70.037 41.743C58.0524 41.743 48.3371 51.4272 48.3371 63.3733C48.3371 75.3193 58.0524 85.0035 70.037 85.0035ZM70.037 87.0002C83.1278 87.0002 93.74 76.422 93.74 63.3733C93.74 50.3245 83.1278 39.7463 70.037 39.7463C56.9462 39.7463 46.334 50.3245 46.334 63.3733C46.334 76.422 56.9462 87.0002 70.037 87.0002Z" fill="white"/>
<path fill-rule="evenodd" clip-rule="evenodd" d="M10.7418 32.1037C10.8167 31.5574 11.3217 31.1751 11.8698 31.2498L20.2003 32.3854C20.2008 32.3854 20.2014 32.3855 20.202 32.3856C22.8506 32.7385 24.7734 35.0204 24.7734 37.635V40.7633H11.7341C11.1809 40.7633 10.7325 40.3163 10.7325 39.765C10.7325 39.2136 11.1809 38.7667 11.7341 38.7667H22.7703V37.635C22.7703 35.99 21.5598 34.5804 19.9355 34.3645L19.9322 34.364L11.5984 33.228C11.0503 33.1533 10.6668 32.6499 10.7418 32.1037Z" fill="white"/>
<path fill-rule="evenodd" clip-rule="evenodd" d="M5.25349 26.1282C5.80662 26.1282 6.25502 26.5751 6.25502 27.1265V47.0067C6.25502 47.5581 5.80662 48.0051 5.25349 48.0051C4.70036 48.0051 4.25195 47.5581 4.25195 47.0067V27.1265C4.25195 26.5751 4.70036 26.1282 5.25349 26.1282Z" fill="white"/>
<path fill-rule="evenodd" clip-rule="evenodd" d="M18.139 4.23271L11.6254 16.7239C11.4531 17.0544 11.1105 17.2618 10.7368 17.2618H3.18646C2.67112 17.2618 2.26479 17.6669 2.26479 18.1805V22.0855C2.26479 22.387 2.36841 22.5916 2.54546 22.7386C2.57919 22.7666 2.61103 22.7968 2.64078 22.829L5.98858 26.4501C6.36342 26.8555 6.33756 27.4871 5.93081 27.8608C5.52406 28.2344 4.89045 28.2086 4.5156 27.8032L1.20774 24.2253C0.567775 23.6659 0.261719 22.897 0.261719 22.0855V18.1805C0.261719 16.5641 1.56491 15.2652 3.18646 15.2652H10.1286L16.4012 3.23592C16.4265 3.18743 16.4558 3.14108 16.4887 3.09735C17.9667 1.13299 20.3338 0 22.7746 0H56.6798C59.1205 0 61.4877 1.13299 62.9657 3.09735C62.9986 3.14108 63.0279 3.18743 63.0531 3.23592L69.3258 15.2652H76.2679C77.8895 15.2652 79.1926 16.5641 79.1926 18.1805V22.0855C79.1926 22.8971 78.8865 23.6659 78.2466 24.2253L75.2038 27.5165V33.8717C75.2038 34.4231 74.7554 34.87 74.2022 34.87C73.6491 34.87 73.2007 34.4231 73.2007 33.8717V27.1266C73.2007 26.8759 73.2953 26.6344 73.4658 26.4501L76.8135 22.829C76.8433 22.7968 76.8751 22.7666 76.9089 22.7386C77.086 22.5915 77.1896 22.387 77.1896 22.0855V18.1805C77.1896 17.6669 76.7833 17.2618 76.2679 17.2618H68.7176C68.3439 17.2618 68.0013 17.0544 67.8289 16.7239L61.3154 4.2327C60.2257 2.82696 58.4862 1.99664 56.6798 1.99664H22.7746C20.9682 1.99664 19.2287 2.82696 18.139 4.23271Z" fill="white"/>
<path fill-rule="evenodd" clip-rule="evenodd" d="M5.3238 46.0085C5.87693 46.0085 6.32534 46.4555 6.32534 47.0069V47.7169C6.32534 50.5026 8.58365 52.7536 11.3783 52.7536C14.173 52.7536 16.4313 50.5026 16.4313 47.7169V47.0069C16.4313 46.4555 16.8797 46.0085 17.4328 46.0085C17.9859 46.0085 18.4344 46.4555 18.4344 47.0069V47.7169C18.4344 51.6053 15.2792 54.7503 11.3783 54.7503C7.47739 54.7503 4.32227 51.6053 4.32227 47.7169V47.0069C4.32227 46.4555 4.77067 46.0085 5.3238 46.0085Z" fill="white"/>
<path d="M87.2272 62.872H83.7447L84.7945 61.0241C84.9319 60.784 84.8518 60.4765 84.6136 60.3368C84.3744 60.1972 84.0729 60.2806 83.9375 60.5217L82.603 62.872H79.9538L82.6514 58.1202C82.7888 57.881 82.7087 57.5725 82.4705 57.4339C82.2333 57.2952 81.9318 57.3766 81.7944 57.6178L78.8091 62.872H73.8665L72.3759 60.2454L74.8471 55.8945H80.8167C81.0876 55.8945 81.311 55.6694 81.311 55.3921C81.311 55.1157 81.0876 54.8897 80.8167 54.8897H75.4165L76.7411 52.5594L79.4091 52.5605C79.6819 52.5605 79.9034 52.3354 79.9034 52.058C79.9034 51.7817 79.6819 51.5556 79.4091 51.5556L77.3105 51.5546L79.0523 48.4879C79.1897 48.2477 79.1086 47.9402 78.8714 47.8016C78.6351 47.6609 78.3326 47.7433 78.1952 47.9855L76.4525 51.0522L75.4027 49.2043C75.2663 48.9652 74.9638 48.8818 74.7275 49.0204C74.4913 49.1591 74.4102 49.4666 74.5457 49.7067L75.8801 52.057L74.5575 54.3872L71.8599 49.6354C71.7235 49.3942 71.421 49.3118 71.1847 49.4505C70.9485 49.5902 70.8674 49.8966 71.0028 50.1378L73.9881 55.3911L71.5169 59.743H68.5326L66.0613 55.3921L69.0456 50.1378C69.182 49.8977 69.101 49.5902 68.8647 49.4505C68.6275 49.3118 68.327 49.3942 68.1895 49.6354L65.4909 54.3872L64.1673 52.057L65.5028 49.7057C65.6392 49.4666 65.5581 49.1581 65.3219 49.0194C65.0856 48.8798 64.7832 48.9632 64.6467 49.2033L63.5969 51.0522L61.8591 47.9845C61.7217 47.7433 61.4193 47.6619 61.184 47.8006C60.9477 47.9392 60.8667 48.2457 61.0031 48.4869L62.7448 51.5536H60.6472C60.3744 51.5536 60.153 51.7797 60.153 52.056C60.153 52.3334 60.3744 52.5584 60.6472 52.5584H63.3162L64.6398 54.8886H59.2426C58.9697 54.8886 58.7483 55.1137 58.7483 55.3911C58.7483 55.6684 58.9697 55.8935 59.2426 55.8935H65.2112L67.6824 60.2454L66.1888 62.872H61.2473L58.26 57.6178C58.1236 57.3776 57.8201 57.2952 57.5848 57.4339C57.3486 57.5725 57.2675 57.88 57.4039 58.1202L60.1055 62.872H57.4583L56.1238 60.5227C55.9864 60.2816 55.6839 60.2002 55.4487 60.3378C55.2124 60.4775 55.1314 60.784 55.2678 61.0251L56.3176 62.872H52.8361C52.5632 62.872 52.3418 63.0971 52.3418 63.3744C52.3418 63.6508 52.5632 63.8769 52.8361 63.8769H56.3186L55.2688 65.7257C55.1324 65.9659 55.2134 66.2734 55.4497 66.413C55.5278 66.4583 55.6128 66.4794 55.6968 66.4794C55.8678 66.4794 56.0339 66.3889 56.1258 66.2282L57.4603 63.8769H60.1095L57.4089 68.6287C57.2725 68.8678 57.3535 69.1763 57.5898 69.316C57.6679 69.3612 57.7529 69.3823 57.8369 69.3823C58.0079 69.3823 58.174 69.2929 58.2659 69.1311L61.2522 63.8769H66.1938L67.6854 66.5015L65.2141 70.8534H59.2465C58.9737 70.8534 58.7523 71.0795 58.7523 71.3558C58.7523 71.6321 58.9737 71.8582 59.2465 71.8582H64.6428L63.3192 74.1884H60.6492C60.3764 74.1884 60.155 74.4135 60.155 74.6908C60.155 74.9672 60.3764 75.1933 60.6492 75.1933H62.7488L61.0071 78.259C60.8706 78.4981 60.9517 78.8066 61.188 78.9463C61.266 78.9915 61.3511 79.0126 61.4351 79.0126C61.6061 79.0126 61.7722 78.9232 61.8641 78.7614L63.6058 75.6947L64.6556 77.5436C64.7476 77.7053 64.9136 77.7948 65.0846 77.7948C65.1687 77.7948 65.2537 77.7737 65.3318 77.7284C65.568 77.5888 65.6491 77.2823 65.5127 77.0411L64.1762 74.6898L65.4998 72.3596L68.1984 77.1115C68.2904 77.2733 68.4564 77.3627 68.6275 77.3627C68.7115 77.3627 68.7965 77.3416 68.8746 77.2964C69.1108 77.1567 69.1919 76.8512 69.0555 76.6091L66.0702 71.3548L68.5415 67.0059H71.5268L73.998 71.3558L71.0117 76.6101C70.8753 76.8502 70.9564 77.1577 71.1926 77.2974C71.2697 77.3426 71.3547 77.3637 71.4398 77.3637C71.6118 77.3637 71.7778 77.2743 71.8688 77.1125L74.5674 72.3606L75.892 74.6908L74.5575 77.0401C74.4211 77.2793 74.5022 77.5878 74.7394 77.7274C74.8185 77.7727 74.9035 77.7938 74.9865 77.7938C75.1585 77.7938 75.3246 77.7023 75.4165 77.5425L76.4663 75.6957L78.2091 78.7624C78.301 78.9242 78.4671 79.0136 78.6391 79.0136C78.7221 79.0136 78.8071 78.9925 78.8862 78.9473C79.1205 78.8076 79.2015 78.5022 79.0681 78.26L77.3243 75.1912H79.4229C79.6958 75.1912 79.9172 74.9662 79.9172 74.6888C79.9172 74.4125 79.6958 74.1864 79.4229 74.1864H76.753L75.4304 71.8562L80.8286 71.8572C81.1004 71.8572 81.3229 71.6311 81.3229 71.3548C81.3229 71.0785 81.1004 70.8524 80.8286 70.8524L74.859 70.8514L72.3877 66.5015L73.8804 63.8759H78.8209L81.8072 69.1311C81.8982 69.2919 82.0642 69.3823 82.2362 69.3823C82.3203 69.3823 82.4053 69.3612 82.4834 69.316C82.7186 69.1763 82.7997 68.8699 82.6643 68.6287L79.9567 63.8769H82.6079L83.9444 66.2282C84.0373 66.3899 84.2034 66.4794 84.3734 66.4794C84.4584 66.4794 84.5434 66.4583 84.6205 66.413C84.8578 66.2734 84.9388 65.9679 84.8034 65.7257L83.7536 63.8769H87.2351C87.506 63.8769 87.7294 63.6508 87.7294 63.3744C87.7225 63.0971 87.4991 62.872 87.2272 62.872ZM71.5228 66.0011H68.5385L68.2528 65.4987L67.3335 63.8769L67.0478 63.3744L68.5405 60.7478H71.5248L71.8105 61.2502L72.7298 62.872L73.0154 63.3744L71.5228 66.0011Z" fill="white" stroke="white"/>
<path fill-rule="evenodd" clip-rule="evenodd" d="M10.7324 47.0069C10.7324 46.4555 11.1808 46.0085 11.734 46.0085H44.5707C45.1239 46.0085 45.5723 46.4555 45.5723 47.0069C45.5723 47.5582 45.1239 48.0052 44.5707 48.0052H11.734C11.1808 48.0052 10.7324 47.5582 10.7324 47.0069Z" fill="white"/>
<path fill-rule="evenodd" clip-rule="evenodd" d="M34.0254 39.6939C34.0254 39.1425 34.4738 38.6956 35.0269 38.6956H44.5717C45.1248 38.6956 45.5732 39.1425 45.5732 39.6939C45.5732 40.2452 45.1248 40.6922 44.5717 40.6922H35.0269C34.4738 40.6922 34.0254 40.2452 34.0254 39.6939Z" fill="white"/>
<path d="M56.7528 5.25854H39.8002H22.8476C22.1353 5.25854 21.423 5.54251 20.9244 6.11052L16.9355 13.7076H62.5224L58.5336 6.11052C58.1774 5.54251 57.4651 5.25854 56.7528 5.25854Z" fill="white"/>
</svg>
