<svg width="90" height="86" viewBox="0 0 90 86" fill="none" xmlns="http://www.w3.org/2000/svg">
<path fill-rule="evenodd" clip-rule="evenodd" d="M44.9658 60.8383C38.5418 60.8383 33.334 66.0254 33.334 72.424C33.334 78.8227 38.5418 84.0098 44.9658 84.0098C51.3899 84.0098 56.5977 78.8227 56.5977 72.424C56.5977 66.0254 51.3899 60.8383 44.9658 60.8383ZM31.3359 72.424C31.3359 64.9263 37.4383 58.8481 44.9658 58.8481C52.4934 58.8481 58.5957 64.9263 58.5957 72.424C58.5957 79.9218 52.4934 86 44.9658 86C37.4383 86 31.3359 79.9218 31.3359 72.424Z" fill="#344154"/>
<path fill-rule="evenodd" clip-rule="evenodd" d="M52.2282 68.8331C52.6184 69.2217 52.6184 69.8518 52.2282 70.2403L44.5507 77.8875L39.082 72.4404C39.082 72.4404 39.0818 72.4402 39.7882 71.7366C40.4947 71.033 40.4947 71.033 40.4947 71.033C40.4997 71.038 40.4989 71.0372 40.497 71.0353L40.4947 71.033L40.498 71.0363L44.5503 75.0726L45.2571 75.7766L45.1803 75.7001C45.1803 75.7001 45.1879 75.7077 45.1777 75.6975L44.5503 75.0726L50.8154 68.8331C51.2055 68.4445 51.8381 68.4445 52.2282 68.8331Z" fill="#344154"/>
<path fill-rule="evenodd" clip-rule="evenodd" d="M89.7736 56.8741C90.1239 57.2987 90.0622 57.9257 89.6359 58.2746C80.6073 65.6641 69.7537 70.8965 57.7754 73.0594C57.2325 73.1574 56.7126 72.7985 56.6142 72.2578C56.5157 71.717 56.8761 71.1992 57.419 71.1012C69.0458 69.0017 79.5886 63.922 88.3674 56.737C88.7937 56.3881 89.4233 56.4495 89.7736 56.8741Z" fill="#344154"/>
<path fill-rule="evenodd" clip-rule="evenodd" d="M0.227186 56.874C0.577473 56.4493 1.20701 56.388 1.63331 56.7369C10.4091 63.9194 20.9529 68.9335 32.5874 71.1021C33.1297 71.2032 33.4871 71.723 33.3856 72.2632C33.2841 72.8034 32.7622 73.1593 32.2198 73.0583C20.2491 70.827 9.39644 65.6665 0.364807 58.2745C-0.0614854 57.9256 -0.1231 57.2986 0.227186 56.874Z" fill="#344154"/>
<path fill-rule="evenodd" clip-rule="evenodd" d="M28.7722 19.7742C29.1472 19.3712 29.7793 19.3473 30.184 19.7208L33.018 22.337C33.9217 23.1809 35.1893 23.6492 36.476 23.6492H54.2834C55.5702 23.6492 56.8377 23.1809 57.7414 22.3371L57.7456 22.3332L60.5754 19.7208C60.9801 19.3473 61.6122 19.3712 61.9873 19.7742C62.3623 20.1773 62.3383 20.8069 61.9336 21.1805L59.108 23.7889C59.1073 23.7896 59.1066 23.7902 59.106 23.7908C57.8012 25.0082 56.0327 25.6393 54.2834 25.6393H36.476C34.7268 25.6393 32.9584 25.0082 31.6536 23.791L28.8258 21.1805C28.4211 20.8069 28.3971 20.1773 28.7722 19.7742Z" fill="#344154"/>
<path fill-rule="evenodd" clip-rule="evenodd" d="M73.1514 31.0404C73.2262 31.5849 72.8436 32.0867 72.297 32.1611L64.2369 33.259C62.6317 33.5318 61.4961 34.8517 61.4961 36.4V37.4674H72.1616C72.7134 37.4674 73.1607 37.9129 73.1607 38.4625C73.1607 39.012 72.7134 39.4576 72.1616 39.4576H59.498V36.4C59.498 33.8279 61.393 31.7135 63.9219 31.2937L63.9363 31.2913L72.0263 30.1893C72.5729 30.1149 73.0767 30.4959 73.1514 31.0404Z" fill="#344154"/>
<path fill-rule="evenodd" clip-rule="evenodd" d="M16.7808 31.1092C16.8556 30.5647 17.3593 30.1837 17.906 30.2581L25.9782 31.3576C25.9788 31.3577 25.9793 31.3578 25.9799 31.3579C28.561 31.7015 30.4342 33.9235 30.4342 36.4688V39.5263H17.7706C17.2189 39.5263 16.7716 39.0808 16.7716 38.5313C16.7716 37.9817 17.2189 37.5362 17.7706 37.5362H28.4362V36.4688C28.4362 34.8899 27.2734 33.5374 25.7141 33.3303L25.7108 33.3299L17.6353 32.2299C17.0886 32.1555 16.7061 31.6537 16.7808 31.1092Z" fill="#344154"/>
<path fill-rule="evenodd" clip-rule="evenodd" d="M11.4893 25.2991C12.041 25.2991 12.4883 25.7446 12.4883 26.2941V45.5435C12.4883 46.0931 12.041 46.5386 11.4893 46.5386C10.9375 46.5386 10.4902 46.0931 10.4902 45.5435V26.2941C10.4902 25.7446 10.9375 25.2991 11.4893 25.2991Z" fill="#344154"/>
<path fill-rule="evenodd" clip-rule="evenodd" d="M24.0011 4.14224L17.6907 16.2347C17.5188 16.5642 17.177 16.7709 16.8043 16.7709H9.48805C9.00454 16.7709 8.62354 17.1503 8.62354 17.6321V21.4132C8.62354 21.6974 8.72082 21.8872 8.88528 22.0237C8.91893 22.0516 8.95069 22.0817 8.98036 22.1138L12.2243 25.6199C12.5982 26.024 12.5724 26.6535 12.1667 27.026C11.761 27.3984 11.1289 27.3727 10.755 26.9686L7.55081 23.5054C6.92475 22.958 6.62549 22.2059 6.62549 21.4132V17.6321C6.62549 16.0513 7.90093 14.7807 9.48805 14.7807H16.1976L22.2678 3.14859C22.293 3.10025 22.3222 3.05406 22.355 3.01047C23.7928 1.10106 26.0951 0 28.4688 0H61.3228C63.6965 0 65.9989 1.10104 67.4367 3.01047C67.4695 3.05406 67.4986 3.10025 67.5239 3.14859L73.594 14.7807H80.3035C81.8906 14.7807 83.1662 16.0513 83.1662 17.6321V21.4132C83.1662 22.2059 82.8669 22.958 82.2409 23.5054L79.301 26.6828V45.5436C79.301 46.0931 78.8538 46.5387 78.302 46.5387C77.7503 46.5387 77.303 46.0931 77.303 45.5436V26.2942C77.303 26.0444 77.3974 25.8036 77.5674 25.6199L80.8113 22.1138C80.841 22.0817 80.8727 22.0516 80.9064 22.0237C81.0709 21.8872 81.1681 21.6974 81.1681 21.4132V17.6321C81.1681 17.1504 80.7871 16.7709 80.3035 16.7709H72.9873C72.6146 16.7709 72.2728 16.5642 72.1009 16.2347L65.7906 4.14225C64.7401 2.78952 63.0638 1.99014 61.3228 1.99014H28.4688C26.7279 1.99014 25.0516 2.7895 24.0011 4.14224Z" fill="#344154"/>
<path fill-rule="evenodd" clip-rule="evenodd" d="M66.6357 44.5485C67.1875 44.5485 67.6348 44.994 67.6348 45.5435V46.231C67.6348 48.9126 69.8103 51.0795 72.5025 51.0795C75.1948 51.0795 77.3703 48.9126 77.3703 46.231V45.5435C77.3703 44.994 77.8176 44.5485 78.3693 44.5485C78.9211 44.5485 79.3683 44.994 79.3683 45.5435V46.231C79.3683 50.0117 76.2983 53.0696 72.5025 53.0696C68.7068 53.0696 65.6367 50.0117 65.6367 46.231V45.5435C65.6367 44.994 66.084 44.5485 66.6357 44.5485Z" fill="#344154"/>
<path fill-rule="evenodd" clip-rule="evenodd" d="M11.5596 44.5485C12.1113 44.5485 12.5586 44.994 12.5586 45.5435V46.231C12.5586 48.9126 14.7341 51.0795 17.4264 51.0795C20.1186 51.0795 22.2941 48.9126 22.2941 46.231V45.5435C22.2941 44.994 22.7414 44.5485 23.2931 44.5485C23.8449 44.5485 24.2922 44.994 24.2922 45.5435V46.231C24.2922 50.0117 21.2221 53.0696 17.4264 53.0696C13.6306 53.0696 10.5605 50.0117 10.5605 46.231V45.5435C10.5605 44.994 11.0078 44.5485 11.5596 44.5485Z" fill="#344154"/>
<path fill-rule="evenodd" clip-rule="evenodd" d="M16.7715 45.5435C16.7715 44.994 17.2188 44.5485 17.7705 44.5485H72.1591C72.7108 44.5485 73.1581 44.994 73.1581 45.5435C73.1581 46.0931 72.7108 46.5386 72.1591 46.5386H17.7705C17.2188 46.5386 16.7715 46.0931 16.7715 45.5435Z" fill="#344154"/>
<path fill-rule="evenodd" clip-rule="evenodd" d="M39.3418 38.4625C39.3418 37.913 39.7891 37.4675 40.3408 37.4675H49.6587C50.2104 37.4675 50.6577 37.913 50.6577 38.4625C50.6577 39.0121 50.2104 39.4576 49.6587 39.4576H40.3408C39.7891 39.4576 39.3418 39.0121 39.3418 38.4625Z" fill="#344154"/>
<path fill-rule="evenodd" clip-rule="evenodd" d="M22.6387 15.7758C22.6387 15.2262 23.086 14.7807 23.6377 14.7807H66.3617C66.9134 14.7807 67.3607 15.2262 67.3607 15.7758C67.3607 16.3253 66.9134 16.7708 66.3617 16.7708H23.6377C23.086 16.7708 22.6387 16.3253 22.6387 15.7758Z" fill="#344154"/>
<path d="M61.3931 5.12H44.9661H28.5391C27.8489 5.12 27.1587 5.39504 26.6756 5.94502L24.0527 10.9635C35.5102 10.9635 53.0415 10.9635 65.8104 10.9635L63.1877 5.94502C62.7735 5.39504 62.0833 5.12 61.3931 5.12Z" fill="#8AA0B2"/>
</svg>
