<svg width="88" height="88" viewBox="0 0 88 88" fill="none" xmlns="http://www.w3.org/2000/svg">
<path fill-rule="evenodd" clip-rule="evenodd" d="M49.6155 11.2933C70.7848 11.2933 87.9986 28.4239 87.9986 49.6466C87.9986 70.7995 70.8547 88 49.6155 88C28.4462 88 11.2324 70.8694 11.2324 49.6466H13.1455C13.1455 69.8114 29.5005 86.0884 49.6155 86.0884C69.7959 86.0884 86.0855 69.7461 86.0855 49.6466C86.0855 29.4819 69.7305 13.2049 49.6155 13.2049V11.2933Z" fill="#344154"/>
<path fill-rule="evenodd" clip-rule="evenodd" d="M1.92242 48.6913H19.1679C19.6625 32.6259 32.5835 19.7149 48.6613 19.2207V1.92098C23.0803 2.42411 2.42466 23.0637 1.92242 48.6913ZM0 49.647C0 22.2046 22.2201 0 49.6178 0H50.5743V21.1176H49.6178C33.8354 21.1176 21.0663 33.8769 21.0663 49.647V50.6028H0V49.647Z" fill="#344154"/>
<path fill-rule="evenodd" clip-rule="evenodd" d="M36.3409 36.3588C28.9969 43.6972 28.9969 55.595 36.3409 62.9334C43.6849 70.2718 55.592 70.2718 62.936 62.9334C70.2801 55.595 70.2801 43.6972 62.936 36.3589C55.592 29.0205 43.6849 29.0205 36.3409 36.3588ZM34.9882 64.2851C26.8971 56.2002 26.897 43.092 34.9882 35.0072C43.0793 26.9223 56.1976 26.9223 64.2888 35.0072C72.3799 43.092 72.3799 56.2002 64.2888 64.2851C56.1976 72.3699 43.0793 72.3699 34.9882 64.2851Z" fill="#344154"/>
<path fill-rule="evenodd" clip-rule="evenodd" d="M45.4673 45.3384C43.0843 47.6508 43.0286 51.4557 45.3428 53.8368C47.657 56.2179 51.4648 56.2736 53.8477 53.9612C56.2307 51.6488 56.2865 47.8439 53.9722 45.4628C51.658 43.0817 47.8502 43.026 45.4673 45.3384ZM43.9703 55.1686C40.92 52.0301 40.9935 47.015 44.1344 43.967C47.2754 40.9191 52.2944 40.9925 55.3447 44.131C58.395 47.2695 58.3215 52.2846 55.1806 55.3326C52.0396 58.3805 47.0206 58.3071 43.9703 55.1686Z" fill="#344154"/>
<path fill-rule="evenodd" clip-rule="evenodd" d="M49.6186 34.2867C50.1469 34.2867 50.5752 34.7146 50.5752 35.2425V37.677C50.5752 38.2049 50.1469 38.6328 49.6186 38.6328C49.0904 38.6328 48.6621 38.2049 48.6621 37.677V35.2425C48.6621 34.7146 49.0904 34.2867 49.6186 34.2867Z" fill="#344154"/>
<path fill-rule="evenodd" clip-rule="evenodd" d="M38.7919 38.7594C39.1654 38.3862 39.7711 38.3862 40.1446 38.7594L41.9043 40.5177C42.2778 40.891 42.2778 41.4961 41.9043 41.8694C41.5307 42.2427 40.9251 42.2427 40.5515 41.8694L38.7919 40.1111C38.4183 39.7379 38.4183 39.1327 38.7919 38.7594Z" fill="#344154"/>
<path fill-rule="evenodd" clip-rule="evenodd" d="M34.2461 49.6473C34.2461 49.1195 34.6743 48.6915 35.2026 48.6915H37.7067C38.235 48.6915 38.6633 49.1195 38.6633 49.6473C38.6633 50.1752 38.235 50.6031 37.7067 50.6031H35.2026C34.6743 50.6031 34.2461 50.1752 34.2461 49.6473Z" fill="#344154"/>
<path fill-rule="evenodd" clip-rule="evenodd" d="M41.9043 57.3571C42.2778 57.7304 42.2778 58.3355 41.9043 58.7088L40.1446 60.4671C39.7711 60.8403 39.1654 60.8403 38.7919 60.4671C38.4183 60.0938 38.4183 59.4886 38.7919 59.1154L40.5515 57.3571C40.9251 56.9838 41.5307 56.9838 41.9043 57.3571Z" fill="#344154"/>
<path fill-rule="evenodd" clip-rule="evenodd" d="M49.6186 60.5934C50.1469 60.5934 50.5752 61.0214 50.5752 61.5492V63.9838C50.5752 64.5117 50.1469 64.9396 49.6186 64.9396C49.0904 64.9396 48.6621 64.5117 48.6621 63.9838V61.5492C48.6621 61.0214 49.0904 60.5934 49.6186 60.5934Z" fill="#344154"/>
<path fill-rule="evenodd" clip-rule="evenodd" d="M57.4032 57.3571C57.7768 56.9838 58.3824 56.9838 58.7559 57.3571L60.5156 59.1154C60.8892 59.4886 60.8892 60.0938 60.5156 60.4671C60.1421 60.8403 59.5364 60.8403 59.1629 60.4671L57.4032 58.7088C57.0297 58.3355 57.0297 57.7304 57.4032 57.3571Z" fill="#344154"/>
<path fill-rule="evenodd" clip-rule="evenodd" d="M60.6406 49.6473C60.6406 49.1195 61.0689 48.6915 61.5972 48.6915H64.0336C64.5619 48.6915 64.9901 49.1195 64.9901 49.6473C64.9901 50.1752 64.5619 50.6031 64.0336 50.6031H61.5972C61.0689 50.6031 60.6406 50.1752 60.6406 49.6473Z" fill="#344154"/>
<path fill-rule="evenodd" clip-rule="evenodd" d="M60.5156 38.7594C60.8892 39.1327 60.8892 39.7379 60.5156 40.1111L58.7559 41.8694C58.3824 42.2427 57.7768 42.2427 57.4032 41.8694C57.0297 41.4961 57.0297 40.891 57.4032 40.5177L59.1629 38.7594C59.5364 38.3862 60.1421 38.3862 60.5156 38.7594Z" fill="#344154"/>
<path fill-rule="evenodd" clip-rule="evenodd" d="M14.3903 41.1727L12.0215 40.5641L12.4979 38.7127L14.8667 39.3214L14.3903 41.1727Z" fill="#344154"/>
<path fill-rule="evenodd" clip-rule="evenodd" d="M17.8142 32.3561L15.6484 31.1389L16.5863 29.4728L18.7521 30.6901L17.8142 32.3561Z" fill="#344154"/>
<path fill-rule="evenodd" clip-rule="evenodd" d="M23.3573 24.6922L21.5977 22.9338L22.9504 21.5822L24.7101 23.3405L23.3573 24.6922Z" fill="#344154"/>
<path fill-rule="evenodd" clip-rule="evenodd" d="M30.7332 18.7678L29.4473 16.6713L31.0784 15.6724L32.3643 17.7689L30.7332 18.7678Z" fill="#344154"/>
<path fill-rule="evenodd" clip-rule="evenodd" d="M39.3584 14.9398L38.6816 12.5053L40.5249 11.9937L41.2017 14.4282L39.3584 14.9398Z" fill="#344154"/>
<path d="M83.0515 49.6472C83.0515 40.45 79.3292 32.1319 73.2381 26.0455L66.4701 32.8082C70.8016 37.1363 73.4411 43.0874 73.4411 49.6472C73.4411 62.7668 62.7478 73.4519 49.6181 73.4519C43.0532 73.4519 37.0974 70.8144 32.766 66.4863L25.998 73.249C32.0215 79.2678 40.4137 83.0549 49.6181 83.0549C68.0268 82.9872 83.0515 68.0417 83.0515 49.6472Z" fill="#8AA0B2"/>
</svg>
