<svg width="100" height="92" viewBox="0 0 100 92" fill="none" xmlns="http://www.w3.org/2000/svg">
<path fill-rule="evenodd" clip-rule="evenodd" d="M69.726 43.2693C59.9605 43.2693 52.0439 51.1858 52.0439 60.9513C52.0439 70.7169 59.9605 78.6334 69.726 78.6334C79.4915 78.6334 87.408 70.7169 87.408 60.9513C87.408 51.1858 79.4915 43.2693 69.726 43.2693ZM49.8557 60.9513C49.8557 49.9773 58.752 41.0811 69.726 41.0811C80.7001 41.0811 89.5963 49.9773 89.5963 60.9513C89.5963 71.9254 80.7001 80.8217 69.726 80.8217C58.7519 80.8217 49.8557 71.9254 49.8557 60.9513Z" fill="white"/>
<path d="M69.7258 46.2368C68.3942 46.2368 67.1291 46.4366 65.9306 46.7029C72.2559 48.3675 76.9167 54.1601 76.9167 60.9515C76.9167 67.7429 72.2559 73.5355 65.9306 75.2001C67.1291 75.533 68.3942 75.6662 69.7258 75.6662C77.8489 75.6662 84.5071 69.0745 84.5071 60.8849C84.5071 52.6953 77.8489 46.2368 69.7258 46.2368Z" fill="white"/>
<path fill-rule="evenodd" clip-rule="evenodd" d="M92.764 61.522C93.3683 61.522 93.8581 62.0118 93.8581 62.6161C93.8581 75.072 83.7804 85.1498 71.3245 85.1498C70.7202 85.1498 70.2303 84.6599 70.2303 84.0556C70.2303 83.4514 70.7202 82.9615 71.3245 82.9615C82.5718 82.9615 91.6698 73.8635 91.6698 62.6161C91.6698 62.0118 92.1597 61.522 92.764 61.522Z" fill="white"/>
<path fill-rule="evenodd" clip-rule="evenodd" d="M87.3951 75.1588C87.8224 74.7316 88.5152 74.7316 88.9425 75.1588L98.9298 85.1462C100.356 86.5722 100.356 88.7964 98.9298 90.2224C97.5038 91.6484 95.2796 91.6484 93.8535 90.2224L83.8662 80.2351C83.4389 79.8078 83.4389 79.115 83.8662 78.6877C84.2935 78.2604 84.9863 78.2604 85.4136 78.6877L95.4009 88.6751C95.9723 89.2465 96.811 89.2465 97.3824 88.6751C97.9539 88.1036 97.9539 87.265 97.3824 86.6935L87.3951 76.7062C86.9678 76.2789 86.9678 75.5861 87.3951 75.1588Z" fill="white"/>
<path fill-rule="evenodd" clip-rule="evenodd" d="M24.1104 21.4631C24.5179 21.0168 25.2099 20.9854 25.6562 21.3928L28.7189 24.1892L28.7325 24.2018C29.7152 25.1299 31.0392 25.6343 32.4423 25.6343H51.6845C53.0875 25.6343 54.4115 25.1299 55.3942 24.2018L55.4078 24.1892L58.4705 21.3928C58.9168 20.9854 59.6088 21.0168 60.0163 21.4631C60.4237 21.9093 60.3923 22.6014 59.946 23.0088L56.8898 25.7993C55.4764 27.1306 53.6073 27.8226 51.6845 27.8226H32.4423C30.5194 27.8226 28.6503 27.1307 27.2369 25.7993L24.1807 23.0088C23.7344 22.6014 23.703 21.9093 24.1104 21.4631Z" fill="white"/>
<path fill-rule="evenodd" clip-rule="evenodd" d="M72.0088 33.7036C72.0911 34.3023 71.6724 34.8543 71.0738 34.9365L62.3595 36.1339C60.6955 36.3896 59.4349 37.8633 59.4349 39.5121C59.4349 40.1163 58.9451 40.6062 58.3408 40.6062C57.7365 40.6062 57.2466 40.1163 57.2466 39.5121C57.2466 36.7687 59.3117 34.3825 62.0387 33.9693L62.0462 33.9682L70.7759 32.7686C71.3745 32.6864 71.9265 33.105 72.0088 33.7036Z" fill="white"/>
<path fill-rule="evenodd" clip-rule="evenodd" d="M11.1151 33.7703C11.1973 33.1716 11.7493 32.753 12.348 32.8353L21.0777 34.0348L21.0852 34.0359C23.8022 34.4476 25.8772 36.7588 25.8772 39.5787V42.8701H12.199C11.5948 42.8701 11.1049 42.3802 11.1049 41.776C11.1049 41.1717 11.5948 40.6818 12.199 40.6818H23.689V39.5787C23.689 37.8734 22.4383 36.4576 20.7644 36.2006L12.0501 35.0032C11.4514 34.9209 11.0328 34.3689 11.1151 33.7703Z" fill="white"/>
<path fill-rule="evenodd" clip-rule="evenodd" d="M5.47518 27.4319C6.07946 27.4319 6.56933 27.9217 6.56933 28.526V49.4329C6.56933 50.0371 6.07946 50.527 5.47518 50.527C4.87091 50.527 4.38104 50.0371 4.38104 49.4329V28.526C4.38104 27.9217 4.87091 27.4319 5.47518 27.4319Z" fill="white"/>
<path fill-rule="evenodd" clip-rule="evenodd" d="M19.0539 4.54216L12.2375 17.6454C12.0492 18.0074 11.675 18.2346 11.2669 18.2346H3.34356C2.85868 18.2346 2.44024 18.6339 2.44024 19.1379V23.266C2.44024 23.4428 2.53968 23.7112 2.78559 23.9572C2.79741 23.969 2.80896 23.9811 2.82022 23.9934L6.28255 27.7886C6.68981 28.235 6.65808 28.927 6.21166 29.3343C5.76524 29.7416 5.0732 29.7098 4.66593 29.2634L1.21894 25.4851C0.675122 24.9328 0.251953 24.1441 0.251953 23.266V19.1379C0.251953 17.3782 1.69782 16.0463 3.34356 16.0463H10.6027L17.1542 3.45219C17.1808 3.40108 17.2114 3.35216 17.2457 3.30587C18.7865 1.22566 21.2453 0 23.8509 0H59.2726C61.8782 0 64.337 1.22566 65.8779 3.30587C65.9122 3.35216 65.9427 3.40108 65.9693 3.45219L72.5208 16.0463H79.78C81.5397 16.0463 82.8716 17.4922 82.8716 19.1379V23.266C82.8716 24.0733 82.5033 24.9565 81.8767 25.5156L78.7434 28.9501V38.9794C78.7434 39.5836 78.2536 40.0735 77.6493 40.0735C77.045 40.0735 76.5551 39.5836 76.5551 38.9794V28.526C76.5551 28.2531 76.6571 27.9901 76.841 27.7886L80.3033 23.9934C80.3369 23.9566 80.3729 23.9222 80.4112 23.8903C80.5443 23.7793 80.6833 23.4966 80.6833 23.266V19.1379C80.6833 18.653 80.284 18.2346 79.78 18.2346H71.8567C71.4486 18.2346 71.0744 18.0074 70.886 17.6454L64.0697 4.54215C62.9442 3.06682 61.1664 2.18829 59.2726 2.18829H23.8509C21.9571 2.18829 20.1793 3.06682 19.0539 4.54216Z" fill="white"/>
<path fill-rule="evenodd" clip-rule="evenodd" d="M5.40918 48.3389C6.01345 48.3389 6.50332 48.8287 6.50332 49.433V50.232C6.50332 53.1565 8.87654 55.5297 11.8011 55.5297C14.7257 55.5297 17.0989 53.1565 17.0989 50.232V49.433C17.0989 48.8287 17.5887 48.3389 18.193 48.3389C18.7973 48.3389 19.2872 48.8287 19.2872 49.433V50.232C19.2872 54.3651 15.9343 57.718 11.8011 57.718C7.66802 57.718 4.31503 54.3651 4.31503 50.232V49.433C4.31503 48.8287 4.8049 48.3389 5.40918 48.3389Z" fill="white"/>
<path fill-rule="evenodd" clip-rule="evenodd" d="M11.1066 49.433C11.1066 48.8287 11.5965 48.3389 12.2007 48.3389H49.3536C49.9578 48.3389 50.4477 48.8287 50.4477 49.433C50.4477 50.0373 49.9578 50.5272 49.3536 50.5272H12.2007C11.5965 50.5272 11.1066 50.0373 11.1066 49.433Z" fill="white"/>
<path fill-rule="evenodd" clip-rule="evenodd" d="M35.4748 41.7758C35.4748 41.1715 35.9647 40.6816 36.5689 40.6816H46.6228C47.2271 40.6816 47.717 41.1715 47.717 41.7758C47.717 42.3801 47.2271 42.8699 46.6228 42.8699H36.5689C35.9647 42.8699 35.4748 42.3801 35.4748 41.7758Z" fill="white"/>
<path fill-rule="evenodd" clip-rule="evenodd" d="M17.4306 17.1405C17.4306 16.5363 17.9205 16.0464 18.5247 16.0464H64.6662C65.2705 16.0464 65.7603 16.5363 65.7603 17.1405C65.7603 17.7448 65.2705 18.2347 64.6662 18.2347H18.5247C17.9205 18.2347 17.4306 17.7448 17.4306 17.1405Z" fill="white"/>
</svg>
