<svg width="90" height="86" viewBox="0 0 90 86" fill="none" xmlns="http://www.w3.org/2000/svg">
<path fill-rule="evenodd" clip-rule="evenodd" d="M44.9658 60.8383C38.5418 60.8383 33.334 66.0254 33.334 72.4241C33.334 78.8227 38.5418 84.0098 44.9658 84.0098C51.3899 84.0098 56.5977 78.8227 56.5977 72.4241C56.5977 66.0254 51.3899 60.8383 44.9658 60.8383ZM31.3359 72.4241C31.3359 64.9263 37.4383 58.8481 44.9658 58.8481C52.4934 58.8481 58.5957 64.9263 58.5957 72.4241C58.5957 79.9218 52.4934 86 44.9658 86C37.4383 86 31.3359 79.9218 31.3359 72.4241Z" fill="white"/>
<path fill-rule="evenodd" clip-rule="evenodd" d="M52.2282 68.8332C52.6184 69.2218 52.6184 69.8518 52.2282 70.2404L44.5507 77.8876L39.082 72.4405C39.082 72.4405 39.0818 72.4403 39.7882 71.7367C40.4947 71.0331 40.4947 71.0331 40.4947 71.0331C40.4997 71.0381 40.4989 71.0373 40.497 71.0354L40.4947 71.0331L40.498 71.0364L44.5503 75.0727L45.2571 75.7767L45.1803 75.7002C45.1803 75.7002 45.1879 75.7078 45.1777 75.6976L44.5503 75.0727L50.8154 68.8332C51.2055 68.4446 51.8381 68.4446 52.2282 68.8332Z" fill="white"/>
<path fill-rule="evenodd" clip-rule="evenodd" d="M89.7736 56.8741C90.1239 57.2987 90.0622 57.9258 89.6359 58.2747C80.6073 65.6641 69.7537 70.8965 57.7754 73.0594C57.2325 73.1575 56.7126 72.7986 56.6142 72.2578C56.5157 71.7171 56.8761 71.1992 57.419 71.1012C69.0458 69.0018 79.5886 63.9221 88.3674 56.737C88.7937 56.3881 89.4233 56.4495 89.7736 56.8741Z" fill="white"/>
<path fill-rule="evenodd" clip-rule="evenodd" d="M0.227186 56.8739C0.577473 56.4493 1.20701 56.3879 1.63331 56.7368C10.4091 63.9193 20.9529 68.9334 32.5874 71.102C33.1297 71.2031 33.4871 71.7229 33.3856 72.2631C33.2841 72.8033 32.7622 73.1592 32.2198 73.0582C20.2491 70.8269 9.39644 65.6664 0.364807 58.2744C-0.0614854 57.9255 -0.1231 57.2985 0.227186 56.8739Z" fill="white"/>
<path fill-rule="evenodd" clip-rule="evenodd" d="M28.7722 19.7742C29.1472 19.3712 29.7793 19.3473 30.184 19.7208L33.018 22.337C33.9217 23.1809 35.1893 23.6492 36.476 23.6492H54.2834C55.5702 23.6492 56.8377 23.1809 57.7414 22.3371L57.7456 22.3332L60.5754 19.7208C60.9801 19.3473 61.6122 19.3712 61.9873 19.7742C62.3623 20.1773 62.3383 20.8069 61.9336 21.1805L59.108 23.7889C59.1073 23.7896 59.1066 23.7902 59.106 23.7908C57.8012 25.0082 56.0327 25.6393 54.2834 25.6393H36.476C34.7268 25.6393 32.9584 25.0082 31.6536 23.791L28.8258 21.1805C28.4211 20.8069 28.3971 20.1773 28.7722 19.7742Z" fill="white"/>
<path fill-rule="evenodd" clip-rule="evenodd" d="M73.1514 31.0405C73.2262 31.585 72.8436 32.0868 72.297 32.1613L64.2369 33.2591C62.6317 33.5319 61.4961 34.8518 61.4961 36.4002V37.4675H72.1616C72.7134 37.4675 73.1607 37.913 73.1607 38.4626C73.1607 39.0122 72.7134 39.4577 72.1616 39.4577H59.498V36.4002C59.498 33.828 61.393 31.7136 63.9219 31.2938L63.9363 31.2914L72.0263 30.1895C72.5729 30.115 73.0767 30.4961 73.1514 31.0405Z" fill="white"/>
<path fill-rule="evenodd" clip-rule="evenodd" d="M16.7808 31.1091C16.8556 30.5647 17.3593 30.1836 17.906 30.2581L25.9782 31.3576C25.9788 31.3577 25.9793 31.3577 25.9799 31.3578C28.561 31.7015 30.4342 33.9234 30.4342 36.4688V39.5263H17.7706C17.2189 39.5263 16.7716 39.0808 16.7716 38.5312C16.7716 37.9816 17.2189 37.5361 17.7706 37.5361H28.4362V36.4688C28.4362 34.8899 27.2734 33.5373 25.7141 33.3303L25.7108 33.3298L17.6353 32.2299C17.0886 32.1554 16.7061 31.6536 16.7808 31.1091Z" fill="white"/>
<path fill-rule="evenodd" clip-rule="evenodd" d="M11.4893 25.2991C12.041 25.2991 12.4883 25.7446 12.4883 26.2941V45.5435C12.4883 46.0931 12.041 46.5386 11.4893 46.5386C10.9375 46.5386 10.4902 46.0931 10.4902 45.5435V26.2941C10.4902 25.7446 10.9375 25.2991 11.4893 25.2991Z" fill="white"/>
<path fill-rule="evenodd" clip-rule="evenodd" d="M24.0011 4.14224L17.6907 16.2347C17.5188 16.5642 17.177 16.7709 16.8043 16.7709H9.48805C9.00454 16.7709 8.62354 17.1503 8.62354 17.6321V21.4132C8.62354 21.6974 8.72082 21.8872 8.88528 22.0237C8.91893 22.0516 8.95069 22.0817 8.98036 22.1138L12.2243 25.6199C12.5982 26.024 12.5724 26.6535 12.1667 27.026C11.761 27.3984 11.1289 27.3727 10.755 26.9686L7.55081 23.5054C6.92475 22.958 6.62549 22.2059 6.62549 21.4132V17.6321C6.62549 16.0513 7.90093 14.7807 9.48805 14.7807H16.1976L22.2678 3.14859C22.293 3.10025 22.3222 3.05406 22.355 3.01047C23.7928 1.10106 26.0951 0 28.4688 0H61.3228C63.6965 0 65.9989 1.10104 67.4367 3.01047C67.4695 3.05406 67.4986 3.10025 67.5239 3.14859L73.594 14.7807H80.3035C81.8906 14.7807 83.1662 16.0513 83.1662 17.6321V21.4132C83.1662 22.2059 82.8669 22.958 82.2409 23.5054L79.301 26.6828V45.5436C79.301 46.0931 78.8538 46.5387 78.302 46.5387C77.7503 46.5387 77.303 46.0931 77.303 45.5436V26.2942C77.303 26.0444 77.3974 25.8036 77.5674 25.6199L80.8113 22.1138C80.841 22.0817 80.8727 22.0516 80.9064 22.0237C81.0709 21.8872 81.1681 21.6974 81.1681 21.4132V17.6321C81.1681 17.1504 80.7871 16.7709 80.3035 16.7709H72.9873C72.6146 16.7709 72.2728 16.5642 72.1009 16.2347L65.7906 4.14225C64.7401 2.78952 63.0638 1.99014 61.3228 1.99014H28.4688C26.7279 1.99014 25.0516 2.7895 24.0011 4.14224Z" fill="white"/>
<path fill-rule="evenodd" clip-rule="evenodd" d="M66.6357 44.5486C67.1875 44.5486 67.6348 44.9941 67.6348 45.5437V46.2311C67.6348 48.9127 69.8103 51.0796 72.5025 51.0796C75.1948 51.0796 77.3703 48.9127 77.3703 46.2311V45.5437C77.3703 44.9941 77.8176 44.5486 78.3693 44.5486C78.9211 44.5486 79.3683 44.9941 79.3683 45.5437V46.2311C79.3683 50.0118 76.2983 53.0698 72.5025 53.0698C68.7068 53.0698 65.6367 50.0118 65.6367 46.2311V45.5437C65.6367 44.9941 66.084 44.5486 66.6357 44.5486Z" fill="white"/>
<path fill-rule="evenodd" clip-rule="evenodd" d="M11.5596 44.5486C12.1113 44.5486 12.5586 44.9941 12.5586 45.5437V46.2311C12.5586 48.9127 14.7341 51.0796 17.4264 51.0796C20.1186 51.0796 22.2941 48.9127 22.2941 46.2311V45.5437C22.2941 44.9941 22.7414 44.5486 23.2931 44.5486C23.8449 44.5486 24.2922 44.9941 24.2922 45.5437V46.2311C24.2922 50.0118 21.2221 53.0698 17.4264 53.0698C13.6306 53.0698 10.5605 50.0118 10.5605 46.2311V45.5437C10.5605 44.9941 11.0078 44.5486 11.5596 44.5486Z" fill="white"/>
<path fill-rule="evenodd" clip-rule="evenodd" d="M16.7715 45.5437C16.7715 44.9941 17.2188 44.5486 17.7705 44.5486H72.1591C72.7108 44.5486 73.1581 44.9941 73.1581 45.5437C73.1581 46.0932 72.7108 46.5387 72.1591 46.5387H17.7705C17.2188 46.5387 16.7715 46.0932 16.7715 45.5437Z" fill="white"/>
<path fill-rule="evenodd" clip-rule="evenodd" d="M39.3418 38.4626C39.3418 37.913 39.7891 37.4675 40.3408 37.4675H49.6587C50.2104 37.4675 50.6577 37.913 50.6577 38.4626C50.6577 39.0122 50.2104 39.4577 49.6587 39.4577H40.3408C39.7891 39.4577 39.3418 39.0122 39.3418 38.4626Z" fill="white"/>
<path fill-rule="evenodd" clip-rule="evenodd" d="M22.6387 15.7758C22.6387 15.2263 23.086 14.7808 23.6377 14.7808H66.3617C66.9134 14.7808 67.3607 15.2263 67.3607 15.7758C67.3607 16.3254 66.9134 16.7709 66.3617 16.7709H23.6377C23.086 16.7709 22.6387 16.3254 22.6387 15.7758Z" fill="white"/>
<path d="M61.3931 5.12012H44.9661H28.5391C27.8489 5.12012 27.1587 5.39516 26.6756 5.94514L24.0527 10.9637C35.5102 10.9637 53.0415 10.9637 65.8104 10.9637L63.1877 5.94514C62.7735 5.39516 62.0833 5.12012 61.3931 5.12012Z" fill="white"/>
</svg>
