<svg width="84" height="84" viewBox="0 0 84 84" fill="none" xmlns="http://www.w3.org/2000/svg">
<path d="M62.6503 47.1541C58.7104 47.4824 54.3109 45.8408 51.6187 44.6588C51.8157 43.8052 52.0127 42.9515 52.0127 42.0323C52.0127 41.0473 52.735 40.2594 53.6543 40.1937C55.9525 39.9967 57.7255 39.8654 59.4327 39.5371C62.7159 38.8804 64.4889 35.3346 63.1099 32.314C61.9936 29.8188 60.352 27.7175 59.1044 26.4042C58.3821 25.6163 57.2002 25.8133 56.7405 26.7982C55.0332 30.3441 51.4874 33.3646 49.0578 35.0719C48.4012 34.4152 47.6789 33.8899 46.8909 33.4303C46.0373 32.9706 45.7089 31.92 46.1686 31.0664C47.1536 28.9651 47.9415 27.3235 48.4668 25.6819C49.5175 22.53 47.3505 19.1812 44.0673 18.8529C41.3751 18.5902 38.6829 18.9842 36.91 19.3781C35.925 19.5751 35.4653 20.7571 36.0563 21.6107C38.2889 24.8939 39.1425 29.4904 39.4052 32.3797C38.5516 32.6423 37.6979 32.9706 36.91 33.4303C36.0563 33.8899 35.0714 33.6929 34.4804 32.9049C33.1671 31.0007 32.1165 29.4904 31.0002 28.2428C28.8333 25.7476 24.8278 25.9446 22.8578 28.7025C21.2819 30.9351 20.2969 33.3646 19.7716 35.1375C19.4433 36.1225 20.2313 37.1075 21.2819 36.9762C25.2217 36.6478 29.6212 38.2894 32.3135 39.4713C32.1165 40.325 31.9195 41.1786 31.9195 42.0979C31.9195 43.0829 31.1972 43.8709 30.2779 43.9365C28.0453 44.1335 26.2067 44.2648 24.5651 44.5932C21.2162 45.2498 19.4433 48.8613 20.8879 51.9475C22.0042 54.3771 23.6458 56.4127 24.8278 57.726C25.5501 58.514 26.732 58.317 27.1917 57.332C28.8989 53.7205 32.4448 50.7656 34.8744 49.0584C35.531 49.715 36.2533 50.2403 37.0413 50.7C37.8949 51.1596 38.2232 52.2102 37.7636 53.0639C36.7786 55.0994 36.0563 56.741 35.4653 58.3826C34.3491 61.6002 36.5816 64.949 39.9962 65.2774C42.6884 65.54 45.2493 65.146 47.0222 64.752C48.0072 64.555 48.4668 63.3731 47.8759 62.5195C45.6433 59.2363 44.7896 54.6398 44.527 51.7506C45.3806 51.4879 46.2343 51.1596 47.0222 50.7C47.8759 50.2403 48.8608 50.4373 49.4518 51.2252C50.7651 53.1295 51.8157 54.6397 52.932 55.8874C55.0989 58.3826 59.1044 58.1856 61.0743 55.4277C62.6503 53.1952 63.6352 50.7656 64.1606 48.9926C64.4889 48.0077 63.7009 47.0884 62.6503 47.1541ZM47.0222 42.0323V42.0979C47.0222 44.4618 45.315 46.4317 43.148 46.9571C42.8197 47.0227 42.4257 47.0884 42.0318 47.0884C41.5721 47.0884 41.0468 47.0227 40.6528 46.8914C39.0112 46.4318 37.7636 45.1842 37.2383 43.5426C37.1069 43.0829 37.0413 42.5576 37.0413 42.0323C37.0413 41.5726 37.1069 41.113 37.2383 40.6533C37.7636 38.7491 39.4052 37.3701 41.3751 37.0418C41.5721 37.0418 41.8348 36.9762 42.0318 36.9762C42.2287 36.9762 42.3601 36.9762 42.5571 36.9762C45.0523 37.3045 47.0222 39.4057 47.0222 42.0323Z" fill="white"/>
<path fill-rule="evenodd" clip-rule="evenodd" d="M42.0335 14.4603C26.806 14.4603 14.4617 26.8046 14.4617 42.0321C14.4617 57.2595 26.806 69.6038 42.0335 69.6038C57.261 69.6038 69.6052 57.2595 69.6052 42.0321C69.6052 26.8046 57.261 14.4603 42.0335 14.4603ZM12.4775 42.0321C12.4775 25.7087 25.7102 12.4761 42.0335 12.4761C58.3568 12.4761 71.5895 25.7087 71.5895 42.0321C71.5895 58.3554 58.3568 71.5881 42.0335 71.5881C25.7102 71.5881 12.4775 58.3554 12.4775 42.0321Z" fill="white"/>
<path fill-rule="evenodd" clip-rule="evenodd" d="M0 9.06884C0 4.05575 4.05571 0 9.0688 0H74.9299C79.927 0 84.0686 4.04169 83.9987 9.07601V74.9299C83.9987 79.943 79.943 83.9987 74.9299 83.9987H9.0688C4.05571 83.9987 0 79.943 0 74.9299V9.06884ZM9.0688 1.98424C5.15158 1.98424 1.98424 5.15161 1.98424 9.06884V74.9299C1.98424 78.8471 5.15158 82.0145 9.0688 82.0145H74.9299C78.8471 82.0145 82.0145 78.8471 82.0145 74.9299V9.06884L82.0146 9.05425C82.0718 5.1617 78.8606 1.98424 74.9299 1.98424H9.0688Z" fill="white"/>
<path fill-rule="evenodd" clip-rule="evenodd" d="M15.7449 6.3944C16.1339 6.78025 16.1365 7.40842 15.7507 7.79745L7.8053 15.8084C7.41945 16.1975 6.79128 16.2001 6.40224 15.8142C6.0132 15.4284 6.01062 14.8002 6.39647 14.4112L14.3418 6.40017C14.7277 6.01113 15.3559 6.00855 15.7449 6.3944Z" fill="white"/>
<path fill-rule="evenodd" clip-rule="evenodd" d="M22.1167 8.03912C22.5041 8.42657 22.5041 9.05474 22.1167 9.44219L9.37786 22.181C8.99041 22.5685 8.36224 22.5685 7.97479 22.181C7.58734 21.7936 7.58734 21.1654 7.97479 20.778L20.7136 8.03912C21.1011 7.65167 21.7292 7.65167 22.1167 8.03912Z" fill="white"/>
<path fill-rule="evenodd" clip-rule="evenodd" d="M34.0214 77.8917H32.0515V75.9075H34.0214V77.8917Z" fill="white"/>
<path fill-rule="evenodd" clip-rule="evenodd" d="M39.9982 77.8917H38.0283V75.9075H39.9982V77.8917Z" fill="white"/>
<path fill-rule="evenodd" clip-rule="evenodd" d="M45.9725 77.8917H44.0026V75.9075H45.9725V77.8917Z" fill="white"/>
<path fill-rule="evenodd" clip-rule="evenodd" d="M51.9486 77.8917H49.9787V75.9075H51.9486V77.8917Z" fill="white"/>
</svg>
