<svg width="90" height="79" viewBox="0 0 90 79" fill="none" xmlns="http://www.w3.org/2000/svg">
<path fill-rule="evenodd" clip-rule="evenodd" d="M26.0859 60.0741C26.0859 49.6083 34.5266 41.1482 44.9685 41.1482C55.4104 41.1482 63.8511 49.6083 63.8511 60.0741C63.8511 70.5399 55.4104 79 44.9685 79C34.5266 79 26.0859 70.5399 26.0859 60.0741ZM44.9685 43.148C35.6286 43.148 28.0812 50.7127 28.0812 60.0741C28.0812 69.4355 35.6286 77.0002 44.9685 77.0002C54.3085 77.0002 61.8559 69.4355 61.8559 60.0741C61.8559 50.7127 54.3085 43.148 44.9685 43.148Z" fill="white"/>
<path d="M57.499 57.9698C57.4313 57.2228 56.7538 56.6117 56.0086 56.6796L54.044 56.8154C53.4343 55.1858 52.4858 53.8277 51.2664 52.8092L52.1471 50.9759C52.4858 50.2969 52.2148 49.4142 51.4696 49.0746L49.4373 48.124C48.7598 47.7845 47.8791 48.0561 47.5404 48.803L46.6597 50.6364C45.1015 50.3648 43.4079 50.4326 41.782 51.0438L40.6303 49.4142C40.2238 48.803 39.3431 48.5993 38.6656 49.0746L36.8365 50.3647C36.2268 50.7722 36.0236 51.6549 36.4978 52.3339L37.6494 53.9636C36.5655 55.2537 35.888 56.7475 35.5493 58.3772L33.5169 58.5129C32.7717 58.5808 32.162 59.2599 32.2298 60.0068L32.433 62.2475C32.5008 62.9944 33.1782 63.6056 33.9234 63.5376L35.888 63.4019C36.4978 65.0315 37.4462 66.3895 38.6656 67.408L37.7849 69.2414C37.4462 69.9204 37.7172 70.8031 38.4624 71.1426L40.4948 72.0932C41.1722 72.4327 42.0529 72.1611 42.3917 71.4142L43.2724 69.5809C44.8305 69.8525 46.5242 69.7846 48.1501 69.1735L49.3018 70.8031C49.7082 71.4142 50.5889 71.6179 51.2664 71.1426L53.0956 69.8525C53.7053 69.4451 53.9085 68.5624 53.4343 67.8834L52.2826 66.2537C53.3665 64.9636 54.044 63.4697 54.3827 61.8401L56.4151 61.7043C57.1603 61.6364 57.77 60.9574 57.7023 60.2105L57.499 57.9698ZM44.966 65.0994C42.1884 65.0994 39.9528 62.8587 39.9528 60.0747C39.9528 57.2907 42.1884 55.05 44.966 55.05C47.7436 55.05 49.9792 57.2907 49.9792 60.0747C49.9792 62.8587 47.7436 65.0994 44.966 65.0994Z" fill="white"/>
<path fill-rule="evenodd" clip-rule="evenodd" d="M24.9422 21.817C25.3318 22.2075 25.3318 22.8406 24.9422 23.2311L8.20889 40.0028C7.8193 40.3933 7.18765 40.3933 6.79805 40.0028C6.40846 39.6123 6.40846 38.9792 6.79805 38.5887L23.5313 21.817C23.9209 21.4265 24.5526 21.4265 24.9422 21.817Z" fill="white"/>
<path fill-rule="evenodd" clip-rule="evenodd" d="M21.6902 18.558C22.0798 18.9485 22.0798 19.5816 21.6902 19.9721L4.95694 36.7437C4.56735 37.1342 3.93569 37.1342 3.5461 36.7438C3.15651 36.3533 3.15651 35.7202 3.5461 35.3297L20.2794 18.558C20.669 18.1675 21.3006 18.1675 21.6902 18.558Z" fill="white"/>
<path fill-rule="evenodd" clip-rule="evenodd" d="M18.5074 15.3004C18.8962 15.6917 18.895 16.3248 18.5046 16.7145L1.70356 33.4861C1.31318 33.8758 0.681529 33.8746 0.292724 33.4833C-0.0960809 33.092 -0.0948048 32.4589 0.295574 32.0692L17.0966 15.2975C17.487 14.9078 18.1186 14.9091 18.5074 15.3004Z" fill="white"/>
<path fill-rule="evenodd" clip-rule="evenodd" d="M64.99 21.8185C65.3788 21.4272 66.0104 21.4259 66.4008 21.8156L83.2018 38.5873C83.5922 38.977 83.5935 39.6101 83.2047 40.0014C82.8159 40.3926 82.1842 40.3939 81.7938 40.0042L64.9928 23.2325C64.6025 22.8428 64.6012 22.2097 64.99 21.8185Z" fill="white"/>
<path fill-rule="evenodd" clip-rule="evenodd" d="M68.2419 18.5594C68.6307 18.1682 69.2624 18.1669 69.6528 18.5566L86.4538 35.3282C86.8442 35.7179 86.8455 36.351 86.4567 36.7423C86.0679 37.1336 85.4362 37.1349 85.0458 36.7452L68.2448 19.9735C67.8544 19.5838 67.8531 18.9507 68.2419 18.5594Z" fill="white"/>
<path fill-rule="evenodd" clip-rule="evenodd" d="M71.4939 15.3004C71.8827 14.9091 72.5144 14.9078 72.9047 15.2975L89.7058 32.0692C90.0961 32.4589 90.0974 33.092 89.7086 33.4833C89.3198 33.8746 88.6882 33.8758 88.2978 33.4861L71.4967 16.7145C71.1064 16.3248 71.1051 15.6917 71.4939 15.3004Z" fill="white"/>
<path fill-rule="evenodd" clip-rule="evenodd" d="M16.8457 0H73.1561L89.7323 16.6142L81.3099 25.1299L79.8929 23.722L86.9167 16.6203L72.3297 1.99981H17.6721L3.08507 16.6203L10.1089 23.722L8.69187 25.1299L0.269531 16.6142L16.8457 0Z" fill="white"/>
<path fill-rule="evenodd" clip-rule="evenodd" d="M23.734 29.423C25.1398 28.014 27.3973 28.014 28.8031 29.423L41.3361 41.9847L39.9253 43.3988L27.3923 30.837C26.7657 30.209 25.7714 30.209 25.1448 30.837L15.8636 40.1396L15.1582 39.4325L15.8636 40.1396C15.237 40.7676 15.237 41.7641 15.8636 42.3922L28.3966 54.9539L26.9858 56.368L14.4528 43.8063C13.047 42.3972 13.047 40.1345 14.4528 38.7255L23.734 29.423Z" fill="white"/>
<path fill-rule="evenodd" clip-rule="evenodd" d="M61.1971 29.423C62.6029 28.014 64.8604 28.014 66.2662 29.423L65.5608 30.13L66.2662 29.423L75.5474 38.7255C76.9532 40.1345 76.9532 42.3972 75.5474 43.8063L63.0144 56.368L61.6035 54.9539L74.1366 42.3922C74.7632 41.7641 74.7632 40.7676 74.1366 40.1396L64.8554 30.837C64.2288 30.209 63.2345 30.209 62.6079 30.837L50.0749 43.3988L48.6641 41.9847L61.1971 29.423Z" fill="white"/>
<path fill-rule="evenodd" clip-rule="evenodd" d="M44.9663 8.51836C41.7009 8.51836 39.0538 11.1716 39.0538 14.4444C39.0538 17.7173 41.7009 20.3705 44.9663 20.3705C48.2317 20.3705 50.8788 17.7173 50.8788 14.4444C50.8788 11.1715 48.2317 8.51836 44.9663 8.51836ZM37.0586 14.4444C37.0586 10.0671 40.599 6.51855 44.9663 6.51855C49.3336 6.51855 52.874 10.0671 52.874 14.4444C52.874 18.8217 49.3336 22.3703 44.9663 22.3703C40.599 22.3703 37.0586 18.8217 37.0586 14.4444Z" fill="white"/>
<path d="M47.5405 14.4447C47.5405 13.0188 46.3889 11.9324 45.0339 11.9324C43.6113 11.9324 42.5273 13.0867 42.5273 14.4447C42.5273 15.8707 43.679 16.9571 45.0339 16.9571C46.3889 17.025 47.5405 15.8707 47.5405 14.4447Z" fill="white"/>
<path fill-rule="evenodd" clip-rule="evenodd" d="M51.8251 12.2976C52.372 12.2312 52.8691 12.6219 52.9354 13.1701L55.0355 30.5528C55.1017 31.1011 54.712 31.5993 54.165 31.6657C53.6181 31.7321 53.121 31.3415 53.0547 30.7933L50.9546 13.4105C50.8884 12.8623 51.2781 12.364 51.8251 12.2976Z" fill="white"/>
<path fill-rule="evenodd" clip-rule="evenodd" d="M38.1748 12.2976C38.7218 12.364 39.1115 12.8623 39.0453 13.4105L36.9451 30.7933C36.8789 31.3415 36.3818 31.7321 35.8348 31.6657C35.2878 31.5993 34.8981 31.1011 34.9644 30.5528L37.0645 13.1701C37.1307 12.6219 37.6278 12.2312 38.1748 12.2976Z" fill="white"/>
</svg>
