<svg width="84" height="84" viewBox="0 0 84 84" fill="none" xmlns="http://www.w3.org/2000/svg">
<path d="M62.6503 47.1541C58.7104 47.4825 54.3109 45.8408 51.6187 44.6589C51.8157 43.8052 52.0127 42.9516 52.0127 42.0323C52.0127 41.0474 52.735 40.2594 53.6543 40.1938C55.9525 39.9968 57.7255 39.8654 59.4327 39.5371C62.7159 38.8805 64.4889 35.3346 63.1099 32.3141C61.9936 29.8188 60.352 27.7176 59.1044 26.4043C58.3821 25.6163 57.2002 25.8133 56.7405 26.7983C55.0332 30.3441 51.4874 33.3647 49.0578 35.0719C48.4012 34.4153 47.6789 33.89 46.8909 33.4303C46.0373 32.9707 45.7089 31.9201 46.1686 31.0664C47.1536 28.9652 47.9415 27.3235 48.4668 25.6819C49.5175 22.5301 47.3505 19.1813 44.0673 18.8529C41.3751 18.5903 38.6829 18.9842 36.91 19.3782C35.925 19.5752 35.4653 20.7572 36.0563 21.6108C38.2889 24.894 39.1425 29.4905 39.4052 32.3797C38.5516 32.6424 37.6979 32.9707 36.91 33.4303C36.0563 33.89 35.0714 33.693 34.4804 32.905C33.1671 31.0007 32.1165 29.4905 31.0002 28.2429C28.8333 25.7476 24.8278 25.9447 22.8578 28.7025C21.2819 30.9351 20.2969 33.3647 19.7716 35.1376C19.4433 36.1225 20.2313 37.1075 21.2819 36.9762C25.2217 36.6479 29.6212 38.2894 32.3135 39.4714C32.1165 40.325 31.9195 41.1787 31.9195 42.098C31.9195 43.0829 31.1972 43.8709 30.2779 43.9366C28.0453 44.1336 26.2067 44.2649 24.5651 44.5932C21.2162 45.2499 19.4433 48.8614 20.8879 51.9476C22.0042 54.3771 23.6458 56.4128 24.8278 57.7261C25.5501 58.514 26.732 58.317 27.1917 57.3321C28.8989 53.7206 32.4448 50.7657 34.8744 49.0584C35.531 49.7151 36.2533 50.2404 37.0413 50.7C37.8949 51.1597 38.2232 52.2103 37.7636 53.0639C36.7786 55.0995 36.0563 56.7411 35.4653 58.3827C34.3491 61.6002 36.5816 64.9491 39.9962 65.2774C42.6884 65.5401 45.2493 65.1461 47.0222 64.7521C48.0072 64.5551 48.4668 63.3732 47.8759 62.5196C45.6433 59.2364 44.7896 54.6399 44.527 51.7506C45.3806 51.488 46.2343 51.1597 47.0222 50.7C47.8759 50.2404 48.8608 50.4373 49.4518 51.2253C50.7651 53.1295 51.8157 54.6398 52.932 55.8874C55.0989 58.3827 59.1044 58.1857 61.0743 55.4278C62.6503 53.1952 63.6352 50.7656 64.1606 48.9927C64.4889 48.0077 63.7009 47.0885 62.6503 47.1541ZM47.0222 42.0323V42.098C47.0222 44.4619 45.315 46.4318 43.148 46.9571C42.8197 47.0228 42.4257 47.0885 42.0318 47.0885C41.5721 47.0885 41.0468 47.0228 40.6528 46.8915C39.0112 46.4318 37.7636 45.1842 37.2383 43.5426C37.1069 43.083 37.0413 42.5576 37.0413 42.0323C37.0413 41.5727 37.1069 41.113 37.2383 40.6534C37.7636 38.7491 39.4052 37.3702 41.3751 37.0419C41.5721 37.0419 41.8348 36.9762 42.0318 36.9762C42.2287 36.9762 42.3601 36.9762 42.5571 36.9762C45.0523 37.3045 47.0222 39.4058 47.0222 42.0323Z" fill="#8AA0B2"/>
<path fill-rule="evenodd" clip-rule="evenodd" d="M42.0335 14.4604C26.806 14.4604 14.4617 26.8047 14.4617 42.0321C14.4617 57.2596 26.806 69.6039 42.0335 69.6039C57.261 69.6039 69.6052 57.2596 69.6052 42.0321C69.6052 26.8047 57.261 14.4604 42.0335 14.4604ZM12.4775 42.0321C12.4775 25.7088 25.7102 12.4761 42.0335 12.4761C58.3568 12.4761 71.5895 25.7088 71.5895 42.0321C71.5895 58.3555 58.3568 71.5881 42.0335 71.5881C25.7102 71.5881 12.4775 58.3555 12.4775 42.0321Z" fill="#344154"/>
<path fill-rule="evenodd" clip-rule="evenodd" d="M0 9.06884C0 4.05575 4.05571 0 9.0688 0H74.9299C79.927 0 84.0686 4.04169 83.9987 9.07601V74.9299C83.9987 79.943 79.943 83.9987 74.9299 83.9987H9.0688C4.05571 83.9987 0 79.943 0 74.9299V9.06884ZM9.0688 1.98424C5.15158 1.98424 1.98424 5.15161 1.98424 9.06884V74.9299C1.98424 78.8471 5.15158 82.0145 9.0688 82.0145H74.9299C78.8471 82.0145 82.0145 78.8471 82.0145 74.9299V9.06884L82.0146 9.05425C82.0718 5.1617 78.8606 1.98424 74.9299 1.98424H9.0688Z" fill="#344154"/>
<path fill-rule="evenodd" clip-rule="evenodd" d="M15.7449 6.39446C16.1339 6.78031 16.1365 7.40848 15.7507 7.79752L7.8053 15.8085C7.41945 16.1975 6.79128 16.2001 6.40224 15.8143C6.0132 15.4284 6.01062 14.8003 6.39647 14.4112L14.3418 6.40023C14.7277 6.01119 15.3559 6.00861 15.7449 6.39446Z" fill="#344154"/>
<path fill-rule="evenodd" clip-rule="evenodd" d="M22.1167 8.03912C22.5041 8.42657 22.5041 9.05474 22.1167 9.44219L9.37786 22.181C8.99041 22.5685 8.36224 22.5685 7.97479 22.181C7.58734 21.7936 7.58734 21.1654 7.97479 20.778L20.7136 8.03912C21.1011 7.65167 21.7292 7.65167 22.1167 8.03912Z" fill="#344154"/>
<path fill-rule="evenodd" clip-rule="evenodd" d="M34.0214 77.8918H32.0515V75.9076H34.0214V77.8918Z" fill="#344154"/>
<path fill-rule="evenodd" clip-rule="evenodd" d="M39.9982 77.892H38.0283V75.9077H39.9982V77.892Z" fill="#344154"/>
<path fill-rule="evenodd" clip-rule="evenodd" d="M45.9725 77.892H44.0026V75.9077H45.9725V77.892Z" fill="#344154"/>
<path fill-rule="evenodd" clip-rule="evenodd" d="M51.9486 77.892H49.9787V75.9077H51.9486V77.892Z" fill="#344154"/>
</svg>
