<svg width="90" height="100" viewBox="0 0 90 100" fill="none" xmlns="http://www.w3.org/2000/svg">
<path fill-rule="evenodd" clip-rule="evenodd" d="M10.9518 16.7552C9.80264 15.7118 9.75944 13.9195 10.857 12.822L13.0465 10.6324C14.1887 9.4903 16.069 9.59069 17.083 10.8479L19.6482 14.0283L23.0019 10.6746C26.5199 7.15662 31.4736 7.79465 34.3536 10.6746L39.0784 15.3995C40.1396 16.4606 40.1396 18.1811 39.0784 19.2423L38.7613 19.5595L55.3982 36.3664C56.4502 37.4291 56.4458 39.1421 55.3884 40.1995L40.205 55.3829C39.1439 56.444 37.4233 56.444 36.3622 55.3829L19.65 38.6707L19.2423 39.0784C18.1812 40.1396 16.4606 40.1396 15.3995 39.0784L10.6746 34.3536C9.13807 32.817 8.55303 30.5731 8.60154 28.5192C8.64981 26.476 9.3314 24.3451 10.6746 23.0019L14.0805 19.596L10.9518 16.7552ZM18.0491 18.9213L12.3215 24.6489C11.5297 25.4407 10.9691 26.92 10.93 28.5742C10.8912 30.2179 11.3737 31.7587 12.3215 32.7066L17.0464 37.4315C17.198 37.5831 17.4438 37.5831 17.5954 37.4315L37.4315 17.5954C37.5831 17.4438 37.5831 17.198 37.4315 17.0464L32.7066 12.3215C30.6178 10.2327 27.1431 9.82728 24.6489 12.3215L18.9213 18.0491C18.9211 18.0493 18.9209 18.0495 18.9207 18.0497L18.0497 18.9207C18.0495 18.9209 18.0493 18.9211 18.0491 18.9213ZM17.9918 15.6847L15.2701 12.3102C15.1252 12.1306 14.8566 12.1162 14.6935 12.2794L12.5039 14.4689C12.3471 14.6257 12.3533 14.8818 12.5175 15.0308L15.7294 17.9471L17.9918 15.6847ZM21.297 37.0238L38.0091 53.7359C38.1607 53.8875 38.4065 53.8875 38.5581 53.7359L53.7415 38.5525C53.8925 38.4015 53.8932 38.1567 53.7429 38.0049L37.1143 21.2065L21.297 37.0238Z" fill="white"/>
<path fill-rule="evenodd" clip-rule="evenodd" d="M11.2047 57.2538C11.7387 56.7732 12.4147 56.7219 12.8572 56.7219H71.0849C72.5856 56.7219 73.8022 57.9385 73.8022 59.4392V69.1439C73.8022 70.6447 72.5856 71.8613 71.0849 71.8613H45.1957C46.7108 76.4725 47.0172 81.9568 47.0172 85.4478C47.0172 87.5683 46.4863 89.0814 45.5116 90.0562C44.5368 91.0309 43.3149 91.2707 42.359 91.2707C41.4929 91.2707 40.0845 91.1684 38.9653 89.9093C37.9016 88.7126 37.3125 86.7043 37.3125 83.5069C37.3125 78.7498 35.817 74.8512 35.1256 73.5835C35.0207 73.3911 34.8994 73.178 34.7704 72.9514C34.5762 72.6102 34.3647 72.2385 34.1656 71.8613H29.9369C29.6357 71.8613 29.5459 71.874 29.5247 71.8789C29.5091 71.8903 29.3399 72.0254 29.0773 72.682L29.0673 72.7069L25.2169 81.1778H27.996C28.3118 81.1778 28.7595 81.2629 29.1617 81.5525C29.6233 81.8849 29.9369 82.4286 29.9369 83.1187V89.3297C29.9369 89.6455 29.8518 90.0932 29.5622 90.4954C29.2298 90.957 28.6861 91.2707 27.996 91.2707H20.564C20.5444 91.3096 20.5224 91.3534 20.4975 91.4033L20.4727 91.4528L16.5525 97.7252L16.543 97.7395C15.3557 99.5204 11.8186 100.836 7.97431 98.0877C7.95007 98.0704 7.92585 98.0529 7.90163 98.0353C7.85114 97.9986 7.80447 97.9586 7.7617 97.9158C7.01152 97.2778 6.07388 96.2189 5.44367 94.894C4.75804 93.4525 4.40166 91.6099 5.17619 89.6736C5.95058 87.7376 7.31123 84.5361 8.40307 81.9671C9.05221 80.4397 9.60634 79.1358 9.88575 78.4545C10.1298 77.8594 10.81 77.5748 11.4051 77.8188C12.0002 78.0629 12.2848 78.7431 12.0407 79.3382C11.7353 80.0829 11.1633 81.4284 10.5028 82.982C9.42564 85.5155 8.11333 88.6021 7.33873 90.5386C6.87107 91.7078 7.05392 92.8569 7.54698 93.8935C8.04169 94.9336 8.81317 95.7726 9.35484 96.2115C12.25 98.2651 14.2241 96.9965 14.5977 96.4582L18.4383 90.3132C18.4413 90.3072 18.4443 90.3011 18.4474 90.2949C18.5643 90.0588 18.7331 89.7182 18.9565 89.4745C19.1186 89.2976 19.327 89.1423 19.5929 89.0456C19.8378 88.9566 20.0665 88.9415 20.2322 88.9415H27.6078V83.5069H24.8905C24.0737 83.5069 23.3723 83.0746 23.024 82.3779C22.6932 81.7163 22.7401 80.9485 23.0616 80.2908L26.9251 71.7912C27.261 70.9584 27.6668 70.2934 28.291 69.9032C28.8923 69.5274 29.5267 69.5303 29.8759 69.5319C29.8973 69.532 29.9177 69.5321 29.9369 69.5321H33.2536C33.1437 69.0134 33.1036 68.4676 33.1845 67.9101C33.3686 66.6412 34.1394 65.548 35.5227 64.6678C36.6233 63.9674 37.7593 63.782 38.8454 64.0202C39.8918 64.2497 40.7917 64.8491 41.5261 65.5391C42.7412 66.681 43.6866 68.2441 44.2872 69.5321H71.0849C71.2993 69.5321 71.4731 69.3583 71.4731 69.1439V59.4392C71.4731 59.2248 71.2993 59.0511 71.0849 59.0511H26.4473L24.0107 64.9684L23.9917 65.0065C23.7708 65.4482 23.4757 65.9137 22.974 66.1874C22.5232 66.4332 22.0479 66.4289 21.8319 66.4269C21.8148 66.4268 21.7992 66.4266 21.7855 66.4266H19.0226C19.0202 66.4303 19.0178 66.434 19.0155 66.4377C18.9829 66.4883 18.9584 66.5329 18.9452 66.5592L18.9128 66.6241L18.1345 67.7916C17.7745 68.491 17.3489 69.0001 16.7996 69.285C16.2851 69.5517 15.7815 69.5376 15.6139 69.533C15.5974 69.5325 15.5842 69.5321 15.5745 69.5321H12.4685C11.9009 69.5321 11.3291 69.342 10.9376 68.8518C10.586 68.4116 10.528 67.9085 10.528 67.5912V59.0511C10.528 58.4681 10.6422 57.7601 11.2047 57.2538ZM23.9284 59.0511H12.8572V67.203H15.5745C15.6637 67.203 15.7158 67.2023 15.744 67.202C15.7932 67.157 15.9154 67.0225 16.0856 66.6822L16.118 66.6173L16.8991 65.4457C16.9982 65.2596 17.1501 65.0157 17.3409 64.7939C17.4495 64.6677 17.5998 64.5141 17.7906 64.3843C17.9739 64.2595 18.2817 64.0975 18.68 64.0975H21.7855C21.8047 64.0975 21.8221 64.0975 21.838 64.0975C21.8533 64.0706 21.8708 64.0385 21.8906 64.0001L23.9284 59.0511ZM12.8583 67.6127C12.8581 67.6128 12.8577 67.6098 12.8574 67.6031C12.8583 67.6092 12.8584 67.6125 12.8583 67.6127ZM20.2261 91.2708C20.2261 91.2708 20.2273 91.2707 20.2299 91.2707L20.2261 91.2708ZM29.5191 71.8808C29.5186 71.8807 29.5202 71.88 29.5247 71.8789C29.5222 71.8803 29.5196 71.8809 29.5191 71.8808ZM38.3465 66.2953C37.8912 66.1954 37.3806 66.2462 36.7732 66.6328C35.8188 67.2401 35.5542 67.7982 35.4895 68.2445C35.4142 68.7632 35.5679 69.3994 35.9422 70.2069C36.1781 70.7157 36.4483 71.1898 36.7344 71.6917C36.8765 71.9411 37.0226 72.1973 37.1703 72.4682C38.0316 74.0472 39.6417 78.3264 39.6417 83.5069C39.6417 86.5206 40.2171 87.8118 40.7062 88.3619C41.1398 88.8498 41.6723 88.9415 42.359 88.9415C42.9558 88.9415 43.4807 88.7931 43.8646 88.4092C44.2485 88.0253 44.6881 87.2093 44.6881 85.4478C44.6881 81.5928 44.2958 75.578 42.4485 71.1446L42.4454 71.1369L42.4423 71.1292C41.9591 69.9213 41.0487 68.2867 39.9311 67.2365C39.3779 66.7167 38.8415 66.4038 38.3465 66.2953Z" fill="white"/>
<path d="M14.3023 74.3545C14.3023 75.062 13.7287 75.6355 13.0213 75.6355C12.3138 75.6355 11.7402 75.062 11.7402 74.3545C11.7402 73.647 12.3138 73.0735 13.0213 73.0735C13.7287 73.0735 14.3023 73.647 14.3023 74.3545Z" fill="white"/>
<path fill-rule="evenodd" clip-rule="evenodd" d="M5.48242 63.3211C5.48242 62.6779 6.00382 62.1565 6.64699 62.1565H11.6934C12.3366 62.1565 12.858 62.6779 12.858 63.3211C12.858 63.9642 12.3366 64.4856 11.6934 64.4856H6.64699C6.00382 64.4856 5.48242 63.9642 5.48242 63.3211Z" fill="white"/>
<path fill-rule="evenodd" clip-rule="evenodd" d="M64.4863 70.6967V57.8865H66.8155V70.6967H64.4863Z" fill="white"/>
<path fill-rule="evenodd" clip-rule="evenodd" d="M61.3219 58.6975L48.5117 45.4991L50.1831 43.877L62.9933 57.0754L61.3219 58.6975Z" fill="white"/>
<path fill-rule="evenodd" clip-rule="evenodd" d="M51.6285 58.71L43.4766 50.5581L45.1235 48.9111L53.2755 57.0631L51.6285 58.71Z" fill="white"/>
<path fill-rule="evenodd" clip-rule="evenodd" d="M86.5365 53.5867C86.7674 54.187 86.468 54.8608 85.8677 55.0917L80.8212 57.0326C80.2209 57.2635 79.5471 56.964 79.3162 56.3637C79.0853 55.7634 79.3848 55.0896 79.9851 54.8587L85.0316 52.9178C85.6319 52.6869 86.3057 52.9864 86.5365 53.5867Z" fill="white"/>
<path fill-rule="evenodd" clip-rule="evenodd" d="M89.9995 65C89.9952 65.6431 89.4704 66.161 88.8272 66.1568L83.4205 66.1209C82.7773 66.1166 82.2594 65.5917 82.2637 64.9486C82.268 64.3054 82.7928 63.7875 83.436 63.7918L88.8427 63.8277C89.4858 63.832 90.0038 64.3568 89.9995 65Z" fill="white"/>
<path fill-rule="evenodd" clip-rule="evenodd" d="M86.6622 74.9519C86.3735 75.5267 85.6736 75.7587 85.0988 75.4701L80.267 73.0438C79.6922 72.7552 79.4602 72.0553 79.7488 71.4805C80.0374 70.9057 80.7373 70.6738 81.3121 70.9624L86.144 73.3886C86.7188 73.6772 86.9508 74.3772 86.6622 74.9519Z" fill="white"/>
<path d="M48.4298 36H26.4142C25.5233 36 25.0771 37.0771 25.7071 37.7071L37.2677 49.2677C37.6582 49.6582 38.2914 49.6582 38.6819 49.2677L49.6897 38.2599C50.0802 37.8693 50.0802 37.2362 49.6897 36.8456L49.1369 36.2929C48.9494 36.1054 48.695 36 48.4298 36Z" fill="white"/>
</svg>
