<svg width="94" height="87" viewBox="0 0 94 87" fill="none" xmlns="http://www.w3.org/2000/svg">
<path fill-rule="evenodd" clip-rule="evenodd" d="M23.1088 20.413C23.4848 20.0086 24.1185 19.9846 24.5241 20.3594L27.4487 23.0613C28.3872 23.9383 29.7027 24.4243 31.0375 24.4243H49.4147C50.7495 24.4243 52.065 23.9383 53.0035 23.0613L53.0077 23.0574L55.9281 20.3594C56.3338 19.9846 56.9675 20.0086 57.3435 20.413C57.7195 20.8174 57.6954 21.449 57.2897 21.8238L54.3735 24.5179C54.3727 24.5186 54.372 24.5193 54.3713 24.52C53.0306 25.7716 51.2131 26.4209 49.4147 26.4209H31.0375C29.2391 26.4209 27.4216 25.7717 26.0809 24.52L23.1625 21.8238C22.7568 21.449 22.7328 20.8173 23.1088 20.413Z" fill="#344154"/>
<path fill-rule="evenodd" clip-rule="evenodd" d="M68.8539 32.0324C68.9289 32.5786 68.5453 33.082 67.9973 33.1567L59.6788 34.2907C58.0085 34.5745 56.8253 35.9495 56.8253 37.5637V39.6937C56.8253 40.2451 56.3769 40.6921 55.8238 40.6921C55.2707 40.6921 54.8223 40.2451 54.8223 39.6937V37.5637C54.8223 34.9223 56.7668 32.7503 59.3631 32.3189L59.3775 32.3165L67.7259 31.1785C68.2739 31.1038 68.779 31.4861 68.8539 32.0324Z" fill="#344154"/>
<path fill-rule="evenodd" clip-rule="evenodd" d="M70.037 85.0035C82.0215 85.0035 91.7369 75.3193 91.7369 63.3732C91.7369 51.4271 82.0215 41.7429 70.037 41.7429C58.0524 41.7429 48.3371 51.4271 48.3371 63.3732C48.3371 75.3193 58.0524 85.0035 70.037 85.0035ZM70.037 87.0001C83.1278 87.0001 93.74 76.422 93.74 63.3732C93.74 50.3244 83.1278 39.7463 70.037 39.7463C56.9462 39.7463 46.334 50.3244 46.334 63.3732C46.334 76.422 56.9462 87.0001 70.037 87.0001Z" fill="#344154"/>
<path fill-rule="evenodd" clip-rule="evenodd" d="M10.7418 32.1037C10.8167 31.5574 11.3217 31.1751 11.8698 31.2498L20.2003 32.3854C20.2008 32.3854 20.2014 32.3855 20.202 32.3856C22.8506 32.7385 24.7734 35.0204 24.7734 37.635V40.7633H11.7341C11.1809 40.7633 10.7325 40.3163 10.7325 39.765C10.7325 39.2136 11.1809 38.7667 11.7341 38.7667H22.7703V37.635C22.7703 35.99 21.5598 34.5804 19.9355 34.3645L19.9322 34.364L11.5984 33.228C11.0503 33.1533 10.6668 32.6499 10.7418 32.1037Z" fill="#344154"/>
<path fill-rule="evenodd" clip-rule="evenodd" d="M5.25349 26.1283C5.80662 26.1283 6.25502 26.5753 6.25502 27.1266V47.0069C6.25502 47.5582 5.80662 48.0052 5.25349 48.0052C4.70036 48.0052 4.25195 47.5582 4.25195 47.0069V27.1266C4.25195 26.5753 4.70036 26.1283 5.25349 26.1283Z" fill="#344154"/>
<path fill-rule="evenodd" clip-rule="evenodd" d="M18.139 4.23271L11.6254 16.7239C11.4531 17.0544 11.1105 17.2618 10.7368 17.2618H3.18646C2.67112 17.2618 2.26479 17.6669 2.26479 18.1805V22.0855C2.26479 22.387 2.36841 22.5916 2.54546 22.7386C2.57919 22.7666 2.61103 22.7968 2.64078 22.829L5.98858 26.4501C6.36342 26.8555 6.33756 27.4871 5.93081 27.8608C5.52406 28.2344 4.89045 28.2086 4.5156 27.8032L1.20774 24.2253C0.567775 23.6659 0.261719 22.897 0.261719 22.0855V18.1805C0.261719 16.5641 1.56491 15.2652 3.18646 15.2652H10.1286L16.4012 3.23592C16.4265 3.18743 16.4558 3.14108 16.4887 3.09735C17.9667 1.13299 20.3338 0 22.7746 0H56.6798C59.1205 0 61.4877 1.13299 62.9657 3.09735C62.9986 3.14108 63.0279 3.18743 63.0531 3.23592L69.3258 15.2652H76.2679C77.8895 15.2652 79.1926 16.5641 79.1926 18.1805V22.0855C79.1926 22.8971 78.8865 23.6659 78.2466 24.2253L75.2038 27.5165V33.8717C75.2038 34.4231 74.7554 34.87 74.2022 34.87C73.6491 34.87 73.2007 34.4231 73.2007 33.8717V27.1266C73.2007 26.8759 73.2953 26.6344 73.4658 26.4501L76.8135 22.829C76.8433 22.7968 76.8751 22.7666 76.9089 22.7386C77.086 22.5915 77.1896 22.387 77.1896 22.0855V18.1805C77.1896 17.6669 76.7833 17.2618 76.2679 17.2618H68.7176C68.3439 17.2618 68.0013 17.0544 67.8289 16.7239L61.3154 4.2327C60.2257 2.82696 58.4862 1.99664 56.6798 1.99664H22.7746C20.9682 1.99664 19.2287 2.82696 18.139 4.23271Z" fill="#344154"/>
<path fill-rule="evenodd" clip-rule="evenodd" d="M5.3238 46.0086C5.87693 46.0086 6.32534 46.4556 6.32534 47.0069V47.7169C6.32534 50.5026 8.58365 52.7537 11.3783 52.7537C14.173 52.7537 16.4313 50.5026 16.4313 47.7169V47.0069C16.4313 46.4556 16.8797 46.0086 17.4328 46.0086C17.9859 46.0086 18.4344 46.4556 18.4344 47.0069V47.7169C18.4344 51.6053 15.2792 54.7503 11.3783 54.7503C7.47739 54.7503 4.32227 51.6053 4.32227 47.7169V47.0069C4.32227 46.4556 4.77067 46.0086 5.3238 46.0086Z" fill="#344154"/>
<path d="M87.2272 62.8721H83.7447L84.7945 61.0243C84.9319 60.7841 84.8518 60.4766 84.6136 60.337C84.3744 60.1973 84.0729 60.2807 83.9375 60.5218L82.603 62.8721H79.9538L82.6514 58.1203C82.7888 57.8812 82.7087 57.5727 82.4705 57.434C82.2333 57.2953 81.9318 57.3767 81.7944 57.6179L78.8091 62.8721H73.8665L72.3759 60.2455L74.8471 55.8946H80.8167C81.0876 55.8946 81.311 55.6695 81.311 55.3922C81.311 55.1159 81.0876 54.8898 80.8167 54.8898H75.4165L76.7411 52.5596L79.4091 52.5606C79.6819 52.5606 79.9034 52.3355 79.9034 52.0582C79.9034 51.7818 79.6819 51.5557 79.4091 51.5557L77.3105 51.5547L79.0523 48.488C79.1897 48.2478 79.1086 47.9404 78.8714 47.8017C78.6351 47.661 78.3326 47.7434 78.1952 47.9856L76.4525 51.0523L75.4027 49.2044C75.2663 48.9653 74.9638 48.8819 74.7275 49.0206C74.4913 49.1592 74.4102 49.4667 74.5457 49.7069L75.8801 52.0572L74.5575 54.3874L71.8599 49.6355C71.7235 49.3944 71.421 49.312 71.1847 49.4506C70.9485 49.5903 70.8674 49.8968 71.0028 50.1379L73.9881 55.3912L71.5169 59.7431H68.5326L66.0613 55.3922L69.0456 50.1379C69.182 49.8978 69.101 49.5903 68.8647 49.4506C68.6275 49.312 68.327 49.3944 68.1895 49.6355L65.4909 54.3874L64.1673 52.0572L65.5028 49.7059C65.6392 49.4667 65.5581 49.1582 65.3219 49.0196C65.0856 48.8799 64.7832 48.9633 64.6467 49.2034L63.5969 51.0523L61.8591 47.9846C61.7217 47.7434 61.4193 47.662 61.184 47.8007C60.9477 47.9394 60.8667 48.2458 61.0031 48.487L62.7448 51.5537H60.6472C60.3744 51.5537 60.153 51.7798 60.153 52.0562C60.153 52.3335 60.3744 52.5586 60.6472 52.5586H63.3162L64.6398 54.8888H59.2426C58.9697 54.8888 58.7483 55.1139 58.7483 55.3912C58.7483 55.6685 58.9697 55.8936 59.2426 55.8936H65.2112L67.6824 60.2455L66.1888 62.8721H61.2473L58.26 57.6179C58.1236 57.3777 57.8201 57.2953 57.5848 57.434C57.3486 57.5727 57.2675 57.8801 57.4039 58.1203L60.1055 62.8721H57.4583L56.1238 60.5229C55.9864 60.2817 55.6839 60.2003 55.4487 60.338C55.2124 60.4776 55.1314 60.7841 55.2678 61.0253L56.3176 62.8721H52.8361C52.5632 62.8721 52.3418 63.0972 52.3418 63.3746C52.3418 63.6509 52.5632 63.877 52.8361 63.877H56.3186L55.2688 65.7259C55.1324 65.966 55.2134 66.2735 55.4497 66.4132C55.5278 66.4584 55.6128 66.4795 55.6968 66.4795C55.8678 66.4795 56.0339 66.3891 56.1258 66.2283L57.4603 63.877H60.1095L57.4089 68.6288C57.2725 68.868 57.3535 69.1765 57.5898 69.3161C57.6679 69.3613 57.7529 69.3824 57.8369 69.3824C58.0079 69.3824 58.174 69.293 58.2659 69.1312L61.2522 63.877H66.1938L67.6854 66.5016L65.2141 70.8535H59.2465C58.9737 70.8535 58.7523 71.0796 58.7523 71.3559C58.7523 71.6323 58.9737 71.8583 59.2465 71.8583H64.6428L63.3192 74.1885H60.6492C60.3764 74.1885 60.155 74.4136 60.155 74.691C60.155 74.9673 60.3764 75.1934 60.6492 75.1934H62.7488L61.0071 78.2591C60.8706 78.4983 60.9517 78.8067 61.188 78.9464C61.266 78.9916 61.3511 79.0127 61.4351 79.0127C61.6061 79.0127 61.7722 78.9233 61.8641 78.7615L63.6058 75.6948L64.6556 77.5437C64.7476 77.7055 64.9136 77.7949 65.0846 77.7949C65.1687 77.7949 65.2537 77.7738 65.3318 77.7286C65.568 77.5889 65.6491 77.2824 65.5127 77.0413L64.1762 74.69L65.4998 72.3598L68.1984 77.1116C68.2904 77.2734 68.4564 77.3628 68.6275 77.3628C68.7115 77.3628 68.7965 77.3417 68.8746 77.2965C69.1108 77.1568 69.1919 76.8513 69.0555 76.6092L66.0702 71.3549L68.5415 67.006H71.5268L73.998 71.3559L71.0117 76.6102C70.8753 76.8503 70.9564 77.1578 71.1926 77.2975C71.2697 77.3427 71.3547 77.3638 71.4398 77.3638C71.6118 77.3638 71.7778 77.2744 71.8688 77.1126L74.5674 72.3608L75.892 74.691L74.5575 77.0403C74.4211 77.2794 74.5022 77.5879 74.7394 77.7276C74.8185 77.7728 74.9035 77.7939 74.9865 77.7939C75.1585 77.7939 75.3246 77.7024 75.4165 77.5427L76.4663 75.6958L78.2091 78.7625C78.301 78.9243 78.4671 79.0137 78.6391 79.0137C78.7221 79.0137 78.8071 78.9926 78.8862 78.9474C79.1205 78.8078 79.2015 78.5023 79.0681 78.2601L77.3243 75.1914H79.4229C79.6958 75.1914 79.9172 74.9663 79.9172 74.689C79.9172 74.4126 79.6958 74.1865 79.4229 74.1865H76.753L75.4304 71.8563L80.8286 71.8573C81.1004 71.8573 81.3229 71.6313 81.3229 71.3549C81.3229 71.0786 81.1004 70.8525 80.8286 70.8525L74.859 70.8515L72.3877 66.5016L73.8804 63.876H78.8209L81.8072 69.1312C81.8982 69.292 82.0642 69.3824 82.2362 69.3824C82.3203 69.3824 82.4053 69.3613 82.4834 69.3161C82.7186 69.1765 82.7997 68.87 82.6643 68.6288L79.9567 63.877H82.6079L83.9444 66.2283C84.0373 66.3901 84.2034 66.4795 84.3734 66.4795C84.4584 66.4795 84.5434 66.4584 84.6205 66.4132C84.8578 66.2735 84.9388 65.968 84.8034 65.7259L83.7536 63.877H87.2351C87.506 63.877 87.7294 63.6509 87.7294 63.3746C87.7225 63.0972 87.4991 62.8721 87.2272 62.8721ZM71.5228 66.0012H68.5385L68.2528 65.4988L67.3335 63.877L67.0478 63.3746L68.5405 60.7479H71.5248L71.8105 61.2503L72.7298 62.8721L73.0154 63.3746L71.5228 66.0012Z" fill="#344154" stroke="#344154"/>
<path fill-rule="evenodd" clip-rule="evenodd" d="M10.7324 47.0069C10.7324 46.4556 11.1808 46.0086 11.734 46.0086H44.5707C45.1239 46.0086 45.5723 46.4556 45.5723 47.0069C45.5723 47.5583 45.1239 48.0052 44.5707 48.0052H11.734C11.1808 48.0052 10.7324 47.5583 10.7324 47.0069Z" fill="#344154"/>
<path fill-rule="evenodd" clip-rule="evenodd" d="M34.0254 39.6938C34.0254 39.1424 34.4738 38.6954 35.0269 38.6954H44.5717C45.1248 38.6954 45.5732 39.1424 45.5732 39.6938C45.5732 40.2451 45.1248 40.6921 44.5717 40.6921H35.0269C34.4738 40.6921 34.0254 40.2451 34.0254 39.6938Z" fill="#344154"/>
<path d="M56.7528 5.25848H39.8002H22.8476C22.1353 5.25848 21.423 5.54245 20.9244 6.11046L16.9355 13.7076H62.5224L58.5336 6.11046C58.1774 5.54245 57.4651 5.25848 56.7528 5.25848Z" fill="#8AA0B2"/>
</svg>
