<svg width="92" height="92" viewBox="0 0 92 92" fill="none" xmlns="http://www.w3.org/2000/svg">
<path fill-rule="evenodd" clip-rule="evenodd" d="M15.1091 15.1091C-1.95148 32.1697 -1.95145 59.8303 15.1091 76.8909C32.1697 93.9515 59.8303 93.9515 76.8909 76.8909C93.9515 59.8303 93.9515 32.1697 76.8909 15.1091C59.8303 -1.95148 32.1697 -1.95145 15.1091 15.1091ZM13.4731 78.5269C-4.49101 60.5628 -4.49105 31.4372 13.4731 13.4731C31.4372 -4.49101 60.5628 -4.49104 78.5269 13.4731C96.491 31.4372 96.491 60.5628 78.5269 78.5269C60.5628 96.491 31.4372 96.491 13.4731 78.5269Z" fill="#344154"/>
<path fill-rule="evenodd" clip-rule="evenodd" d="M37.6545 55.5379C38.0469 51.2548 41.6411 47.9802 45.9565 47.9802C50.3457 47.9802 53.8646 51.3206 54.2574 55.5319C65.8641 56.572 76.7842 59.9535 86.6237 65.1504L85.5431 67.1963C75.6804 61.9871 64.7103 58.6551 53.0478 57.7526L51.9802 57.67V56.3176C51.9802 53.0068 49.3229 50.2939 45.9565 50.2939C42.6457 50.2939 39.9327 52.9512 39.9327 56.3176V57.6637L38.872 57.7521C27.2046 58.7243 16.2302 62.0578 6.36417 67.1993L5.29492 65.1475C15.1327 60.0207 26.0505 56.6424 37.6545 55.5379Z" fill="#344154"/>
<path fill-rule="evenodd" clip-rule="evenodd" d="M11.2734 34.7014C15.9997 20.0863 29.811 9.47235 46.0244 9.47235C62.2378 9.47235 75.9763 20.0153 80.7738 34.626L78.5756 35.3478C74.0806 21.6585 61.2085 11.786 46.0244 11.786C30.8403 11.786 17.9004 21.7283 13.4749 35.4133L11.2734 34.7014Z" fill="#344154"/>
<path fill-rule="evenodd" clip-rule="evenodd" d="M46.026 9.47235C46.6649 9.47235 47.1828 9.99029 47.1828 10.6292V16.613C47.1828 17.2519 46.6649 17.7699 46.026 17.7699C45.3871 17.7699 44.8691 17.2519 44.8691 16.613V10.6292C44.8691 9.99029 45.3871 9.47235 46.026 9.47235Z" fill="#344154"/>
<path fill-rule="evenodd" clip-rule="evenodd" d="M34.7566 11.2889C35.3643 11.0914 36.0169 11.4239 36.2144 12.0315L38.0447 17.6634C38.2422 18.271 37.9097 18.9237 37.3021 19.1211C36.6945 19.3186 36.0418 18.9861 35.8443 18.3785L34.014 12.7467C33.8165 12.139 34.149 11.4864 34.7566 11.2889Z" fill="#344154"/>
<path fill-rule="evenodd" clip-rule="evenodd" d="M24.5777 16.4506C25.0951 16.0757 25.8184 16.1912 26.1933 16.7086L29.7132 21.5661C30.0881 22.0834 29.9726 22.8067 29.4553 23.1816C28.9379 23.5565 28.2146 23.441 27.8397 22.9237L24.3198 18.0662C23.9449 17.5489 24.0604 16.8255 24.5777 16.4506Z" fill="#344154"/>
<path fill-rule="evenodd" clip-rule="evenodd" d="M16.5073 24.5229C16.8822 24.0056 17.6055 23.8901 18.1228 24.265L22.9803 27.7849C23.4977 28.1598 23.6132 28.8831 23.2383 29.4004C22.8634 29.9178 22.1401 30.0333 21.6227 29.6584L16.7652 26.1385C16.2479 25.7636 16.1324 25.0403 16.5073 24.5229Z" fill="#344154"/>
<path fill-rule="evenodd" clip-rule="evenodd" d="M11.2764 34.7037C11.4716 34.0953 12.1231 33.7605 12.7314 33.9558L18.4337 35.7861C19.042 35.9814 19.3769 36.6328 19.1816 37.2412C18.9863 37.8495 18.3349 38.1844 17.7265 37.9891L12.0243 36.1587C11.416 35.9635 11.0811 35.312 11.2764 34.7037Z" fill="#344154"/>
<path fill-rule="evenodd" clip-rule="evenodd" d="M57.379 11.293C57.9843 11.4973 58.3095 12.1537 58.1052 12.759L56.2044 18.3909C56.0001 18.9962 55.3438 19.3214 54.7384 19.1171C54.133 18.9127 53.8079 18.2564 54.0122 17.651L55.9129 12.0192C56.1172 11.4138 56.7736 11.0887 57.379 11.293Z" fill="#344154"/>
<path fill-rule="evenodd" clip-rule="evenodd" d="M67.5431 16.4506C68.0605 16.8255 68.176 17.5489 67.8011 18.0662L64.2812 22.9237C63.9063 23.441 63.183 23.5565 62.6656 23.1816C62.1483 22.8067 62.0328 22.0834 62.4077 21.5661L65.9276 16.7086C66.3025 16.1912 67.0258 16.0757 67.5431 16.4506Z" fill="#344154"/>
<path fill-rule="evenodd" clip-rule="evenodd" d="M75.6152 24.5229C75.9901 25.0403 75.8746 25.7636 75.3573 26.1385L70.4998 29.6584C69.9824 30.0333 69.2591 29.9178 68.8842 29.4004C68.5093 28.8831 68.6248 28.1598 69.1422 27.7849L73.9997 24.265C74.517 23.8901 75.2403 24.0056 75.6152 24.5229Z" fill="#344154"/>
<path fill-rule="evenodd" clip-rule="evenodd" d="M80.7792 34.7037C80.9745 35.312 80.6397 35.9635 80.0313 36.1587L74.3291 37.9891C73.7207 38.1844 73.0693 37.8495 72.874 37.2412C72.6788 36.6328 73.0136 35.9814 73.622 35.7861L79.3242 33.9558C79.9325 33.7605 80.584 34.0953 80.7792 34.7037Z" fill="#344154"/>
<path fill-rule="evenodd" clip-rule="evenodd" d="M46.026 23.904C46.6649 23.904 47.1828 24.4219 47.1828 25.0608V42.7308C47.1828 43.3697 46.6649 43.8876 46.026 43.8876C45.3871 43.8876 44.8691 43.3697 44.8691 42.7308V25.0608C44.8691 24.4219 45.3871 23.904 46.026 23.904Z" fill="#344154"/>
<path d="M51.0942 75.8179C51.0942 73.0724 46.0959 66.1734 46.0959 66.1734C46.0959 66.1734 41.0977 73.0724 41.0977 75.8179C41.0977 78.5634 43.3504 80.8162 46.0959 80.8162C48.8414 80.8162 51.0942 78.5634 51.0942 75.8179Z" fill="#8AA0B2"/>
</svg>
