<svg width="92" height="84" viewBox="0 0 92 84" fill="none" xmlns="http://www.w3.org/2000/svg">
<path fill-rule="evenodd" clip-rule="evenodd" d="M90.0848 46.5278C90.6258 46.5278 91.0645 46.9627 91.0645 47.4991V83.0288C91.0645 83.5652 90.6258 84.0001 90.0848 84.0001H54.2454C53.7043 84.0001 53.2657 83.5652 53.2657 83.0288L53.2657 47.4991C53.2657 46.9627 53.7043 46.5278 54.2454 46.5278L90.0848 46.5278ZM89.1051 48.4703L55.2251 48.4703L55.2251 82.0576H89.1051V48.4703Z" fill="white"/>
<path fill-rule="evenodd" clip-rule="evenodd" d="M43.1406 54.534C43.1406 53.9976 43.5793 53.5627 44.1203 53.5627H54.3311C54.8722 53.5627 55 53.9636 55 54.5C55 55.0364 54.8722 55.5052 54.3311 55.5052H44.1203C43.5793 55.5052 43.1406 55.0704 43.1406 54.534Z" fill="white"/>
<path fill-rule="evenodd" clip-rule="evenodd" d="M43.1406 65.1929C43.1406 64.6565 43.5793 64.2217 44.1203 64.2217H54.3311C54.8722 64.2217 55 64.6565 55 65.1929C55 65.7293 54.8722 66.1641 54.3311 66.1641H44.1203C43.5793 66.1641 43.1406 65.7293 43.1406 65.1929Z" fill="white"/>
<path fill-rule="evenodd" clip-rule="evenodd" d="M43.1406 75.8518C43.1406 75.3155 43.5793 74.8806 44.1203 74.8806H54.3311C54.8722 74.8806 55 75.3155 55 75.8518C55 76.3882 54.8722 76.8231 54.3311 76.8231H44.1203C43.5793 76.8231 43.1406 76.3882 43.1406 75.8518Z" fill="white"/>
<path fill-rule="evenodd" clip-rule="evenodd" d="M37.19 75.8987C37.2012 73.7625 38.9879 71.998 41.145 71.998C43.309 71.998 45.1001 73.7736 45.1001 75.9189C45.1001 78.0642 43.309 79.8398 41.145 79.8398C38.9439 79.8398 37.1097 78.0885 37.19 75.8987ZM41.145 73.9405C40.0632 73.9405 39.1494 74.8464 39.1494 75.9189C39.1494 75.9324 39.1491 75.9459 39.1485 75.9593C39.1057 76.9779 39.9719 77.8973 41.145 77.8973C42.2269 77.8973 43.1407 76.9914 43.1407 75.9189C43.1407 74.8464 42.2269 73.9405 41.145 73.9405Z" fill="white"/>
<path fill-rule="evenodd" clip-rule="evenodd" d="M37.19 65.2398C37.2012 63.1035 38.9879 61.3391 41.145 61.3391C43.309 61.3391 45.1001 63.1147 45.1001 65.26C45.1001 67.4053 43.309 69.1808 41.145 69.1808C38.9439 69.1808 37.1097 67.4296 37.19 65.2398ZM41.145 63.2816C40.0632 63.2816 39.1494 64.1875 39.1494 65.26C39.1494 65.2735 39.1491 65.2869 39.1485 65.3004C39.1057 66.319 39.9719 67.2384 41.145 67.2384C42.2269 67.2384 43.1407 66.3325 43.1407 65.26C43.1407 64.1875 42.2269 63.2816 41.145 63.2816Z" fill="white"/>
<path fill-rule="evenodd" clip-rule="evenodd" d="M41.1445 52.5555C40.0423 52.5555 39.1488 53.4413 39.1488 54.5339C39.1488 55.6265 40.0423 56.5123 41.1445 56.5123C42.2467 56.5123 43.1402 55.6265 43.1402 54.5339C43.1402 53.4413 42.2467 52.5555 41.1445 52.5555ZM37.1895 54.5339C37.1895 52.3685 38.9602 50.613 41.1445 50.613C43.3288 50.613 45.0996 52.3685 45.0996 54.5339C45.0996 56.6994 43.3288 58.4548 41.1445 58.4548C38.9602 58.4548 37.1895 56.6994 37.1895 54.5339Z" fill="white"/>
<path fill-rule="evenodd" clip-rule="evenodd" d="M82.3254 36.3342C82.8665 36.3342 83.3051 36.7691 83.3051 37.3055V47.4281C83.3051 47.9645 82.8665 48.3993 82.3254 48.3993C81.7843 48.3993 81.3457 47.9645 81.3457 47.4281V37.3055C81.3457 36.7691 81.7843 36.3342 82.3254 36.3342Z" fill="white"/>
<path fill-rule="evenodd" clip-rule="evenodd" d="M71.5754 36.3342C72.1165 36.3342 72.5551 36.7691 72.5551 37.3055V47.4281C72.5551 47.9645 72.1165 48.3993 71.5754 48.3993C71.0343 48.3993 70.5957 47.9645 70.5957 47.4281V37.3055C70.5957 36.7691 71.0343 36.3342 71.5754 36.3342Z" fill="white"/>
<path fill-rule="evenodd" clip-rule="evenodd" d="M67.6206 34.3557C67.6206 32.129 69.4263 30.4348 71.5757 30.4348C73.7396 30.4348 75.5307 32.2104 75.5307 34.3557C75.5307 36.501 73.7396 38.2766 71.5757 38.2766C69.4117 38.2766 67.6206 36.501 67.6206 34.3557ZM71.5757 32.3773C70.4792 32.3773 69.58 33.2305 69.58 34.3557C69.58 35.4282 70.4938 36.3341 71.5757 36.3341C72.6575 36.3341 73.5713 35.4282 73.5713 34.3557C73.5713 33.2832 72.6575 32.3773 71.5757 32.3773Z" fill="white"/>
<path fill-rule="evenodd" clip-rule="evenodd" d="M78.373 34.3557C78.373 32.129 80.1787 30.4348 82.3281 30.4348C84.4921 30.4348 86.2831 32.2104 86.2831 34.3557C86.2831 36.501 84.4921 38.2766 82.3281 38.2766C80.1641 38.2766 78.373 36.501 78.373 34.3557ZM82.3281 32.3773C81.2316 32.3773 80.3324 33.2305 80.3324 34.3557C80.3324 35.4282 81.2462 36.3341 82.3281 36.3341C83.4099 36.3341 84.3237 35.4282 84.3237 34.3557C84.3237 33.2832 83.4099 32.3773 82.3281 32.3773Z" fill="white"/>
<path fill-rule="evenodd" clip-rule="evenodd" d="M68.162 52.8923H70.5271V52.9594H84.66V77.4934H59.9121V61.0709H60.8918C64.9438 61.0709 68.162 57.8239 68.162 53.8636V52.8923ZM70.0626 54.9018H82.7006V75.5509H61.8715V62.9629C66.1965 62.5144 69.5813 59.1284 70.0626 54.9018Z" fill="white"/>
<path d="M64.8809 72.5V65.4611C68.3972 64.2544 71.2373 61.4388 72.4545 57.9529H79.5548V72.5H64.8809Z" fill="white"/>
<path fill-rule="evenodd" clip-rule="evenodd" d="M22.2358 19.2827C22.6036 18.8893 23.2234 18.866 23.6203 19.2306L26.3969 21.7818C27.282 22.6044 28.5237 23.061 29.7841 23.061H47.2304C48.4909 23.061 49.7325 22.6044 50.6177 21.7818L50.6217 21.778L53.3942 19.2306C53.791 18.866 54.4109 18.8893 54.7787 19.2827C55.1465 19.6761 55.123 20.2906 54.7261 20.6552L51.9578 23.1989C51.957 23.1996 51.9562 23.2003 51.9555 23.201C50.677 24.3881 48.9443 25.0034 47.2304 25.0034H29.7841C28.0702 25.0034 26.3374 24.388 25.0589 23.2009L22.2883 20.6552C21.8915 20.2906 21.868 19.6761 22.2358 19.2827Z" fill="white"/>
<path fill-rule="evenodd" clip-rule="evenodd" d="M65.7143 30.269C65.7877 30.8004 65.4125 31.2901 64.8764 31.3628L56.9797 32.4334C55.4075 32.6993 54.2953 33.986 54.2953 35.4954V36.5353H64.7437C65.2847 36.5353 65.7234 36.9701 65.7234 37.5065C65.7234 38.0429 65.2847 38.4777 64.7437 38.4777H52.3359V35.4954C52.3359 32.9868 54.1928 30.9246 56.6709 30.5151L56.685 30.5128L64.6109 29.4383C65.147 29.3656 65.641 29.7375 65.7143 30.269Z" fill="white"/>
<path fill-rule="evenodd" clip-rule="evenodd" d="M10.4877 30.3361C10.561 29.8046 11.055 29.4327 11.5911 29.5054L19.4995 30.5776C19.5001 30.5777 19.5007 30.5777 19.5012 30.5778C22.0304 30.913 23.8661 33.08 23.8661 35.5625V38.5449H11.4583C10.9173 38.5449 10.4786 38.11 10.4786 37.5736C10.4786 37.0372 10.9173 36.6024 11.4583 36.6024H21.9067V35.5625C21.9067 34.0233 20.7678 32.7049 19.2406 32.503L19.2373 32.5026L11.3256 31.43C10.7895 31.3573 10.4144 30.8675 10.4877 30.3361Z" fill="white"/>
<path fill-rule="evenodd" clip-rule="evenodd" d="M5.30392 24.6697C5.84499 24.6697 6.28361 25.1045 6.28361 25.6409V44.4113C6.28361 44.9477 5.84499 45.3826 5.30392 45.3826C4.76284 45.3826 4.32422 44.9477 4.32422 44.4113V25.6409C4.32422 25.1045 4.76284 24.6697 5.30392 24.6697Z" fill="white"/>
<path fill-rule="evenodd" clip-rule="evenodd" d="M17.5641 4.04056L11.3817 15.8322C11.2131 16.1537 10.878 16.3555 10.5124 16.3555H3.34451C2.87128 16.3555 2.49846 16.7251 2.49846 17.1943V20.8813C2.49846 21.1583 2.59365 21.343 2.75451 21.4759C2.7875 21.5032 2.81865 21.5326 2.84775 21.5639L6.02597 24.9827C6.39264 25.3772 6.36735 25.9916 5.96947 26.3551C5.57159 26.7186 4.9518 26.6936 4.58512 26.2991L1.44586 22.9221C0.832264 22.3881 0.539062 21.6544 0.539062 20.8813V17.1943C0.539062 15.6523 1.78908 14.413 3.34451 14.413H9.91749L15.8643 3.07071C15.889 3.02353 15.9176 2.97844 15.9498 2.9359C17.3586 1.07374 19.6145 0 21.9404 0H54.1282C56.4541 0 58.7101 1.07373 60.1189 2.9359C60.1511 2.97844 60.1797 3.02353 60.2044 3.07072L66.1512 14.413H72.7241C74.2795 14.413 75.5296 15.6523 75.5296 17.1943V20.8813C75.5296 21.6545 75.2364 22.3881 74.6228 22.9221L71.4836 26.2991C71.1169 26.6936 70.4971 26.7186 70.0992 26.3551C69.7014 25.9916 69.6761 25.3772 70.0427 24.9828L73.2209 21.5639C73.25 21.5326 73.2812 21.5032 73.3141 21.4759C73.475 21.343 73.5702 21.1583 73.5702 20.8813V17.1943C73.5702 16.7251 73.1974 16.3555 72.7241 16.3555H65.5563C65.1907 16.3555 64.8556 16.1537 64.687 15.8322L58.5046 4.04055C57.4756 2.72177 55.8336 1.94247 54.1282 1.94247H21.9404C20.235 1.94247 18.5931 2.72176 17.5641 4.04056Z" fill="white"/>
<path fill-rule="evenodd" clip-rule="evenodd" d="M5.37227 43.4402C5.91335 43.4402 6.35197 43.875 6.35197 44.4114V45.0818C6.35197 47.6961 8.48296 49.8087 11.1201 49.8087C13.7572 49.8087 15.8882 47.6961 15.8882 45.0818V44.4114C15.8882 43.875 16.3268 43.4402 16.8679 43.4402C17.409 43.4402 17.8476 43.875 17.8476 44.4114V45.0818C17.8476 48.7689 14.8394 51.7512 11.1201 51.7512C7.40082 51.7512 4.39258 48.7689 4.39258 45.0818V44.4114C4.39258 43.875 4.8312 43.4402 5.37227 43.4402Z" fill="white"/>
<path fill-rule="evenodd" clip-rule="evenodd" d="M10.4785 44.4114C10.4785 43.875 10.9171 43.4402 11.4582 43.4402H50.2729C50.814 43.4402 51.2526 43.875 51.2526 44.4114C51.2526 44.9478 50.814 45.3827 50.2729 45.3827H11.4582C10.9171 45.3827 10.4785 44.9478 10.4785 44.4114Z" fill="white"/>
<path fill-rule="evenodd" clip-rule="evenodd" d="M32.5918 37.5064C32.5918 36.97 33.0304 36.5352 33.5715 36.5352H42.7004C43.2415 36.5352 43.6801 36.97 43.6801 37.5064C43.6801 38.0428 43.2415 38.4776 42.7004 38.4776H33.5715C33.0304 38.4776 32.5918 38.0428 32.5918 37.5064Z" fill="white"/>
<path fill-rule="evenodd" clip-rule="evenodd" d="M16.2266 15.3843C16.2266 14.8479 16.6652 14.4131 17.2063 14.4131H59.064C59.605 14.4131 60.0437 14.8479 60.0437 15.3843C60.0437 15.9207 59.605 16.3556 59.064 16.3556H17.2063C16.6652 16.3556 16.2266 15.9207 16.2266 15.3843Z" fill="white"/>
</svg>
