<svg width="16" height="16" viewBox="0 0 16 16" fill="none" xmlns="http://www.w3.org/2000/svg">
<path d="M14.4963 10.4444C13.5446 10.4444 12.6124 10.2958 11.7289 10.0043C11.2977 9.85566 10.808 9.97015 10.5247 10.2592L8.77311 11.582C6.76334 10.5094 5.47708 9.22391 4.41902 7.22875L5.70607 5.51861C6.03007 5.19461 6.1462 4.72038 6.00735 4.27621C5.71338 3.38703 5.56398 2.45401 5.56398 1.50393C5.56398 0.832373 5.0175 0.285889 4.34593 0.285889H1.50381C0.832251 0.285889 0.285767 0.832373 0.285767 1.50393C0.285767 9.33921 6.66102 15.7145 14.4963 15.7145C15.1679 15.7145 15.7143 15.168 15.7143 14.4964V11.6624C15.7143 10.9909 15.1679 10.4444 14.4963 10.4444Z" fill="white"/>
</svg>
