<svg width="24" height="24" viewBox="0 0 24 24" fill="none" xmlns="http://www.w3.org/2000/svg">
<path d="M17.2481 24C16.4734 24 15.7053 23.863 14.9541 23.5901C11.645 22.388 8.57337 20.4301 6.07128 17.9281C3.56919 15.4261 1.61129 12.3544 0.409229 9.04529C0.0229464 7.98183 -0.0910493 6.88406 0.0705227 5.78236C0.221876 4.7504 0.621611 3.74858 1.22656 2.88518C1.83417 2.01798 2.64424 1.2967 3.56914 0.799327C4.55545 0.268958 5.63198 7.13691e-08 6.76894 7.13691e-08C7.12255 7.13691e-08 7.42816 0.247068 7.50227 0.592804L8.67944 6.08628C8.73274 6.33504 8.65629 6.59387 8.47644 6.77377L6.46497 8.78519C8.36249 12.5578 11.4415 15.6368 15.2141 17.5343L17.2256 15.5229C17.4054 15.343 17.6643 15.2667 17.913 15.3199L23.4065 16.497C23.7523 16.5711 23.9993 16.8767 23.9993 17.2304C23.9993 18.3673 23.7304 19.4439 23.2 20.4302C22.7026 21.3551 21.9813 22.1652 21.1141 22.7728C20.2508 23.3777 19.2489 23.7774 18.2169 23.9288C17.8935 23.9763 17.5702 24 17.2481 24ZM6.16971 1.53275C4.67 1.69831 3.3389 2.48437 2.45496 3.74596C1.46097 5.16457 1.22918 6.90942 1.81903 8.5332C4.13007 14.8951 9.1043 19.8693 15.4662 22.1803C17.09 22.7702 18.8349 22.5385 20.2535 21.5444C21.5151 20.6605 22.3011 19.3294 22.4667 17.8297L17.9977 16.8721L15.8971 18.9727C15.6735 19.1963 15.3339 19.2556 15.0479 19.1212C10.586 17.0251 6.97434 13.4134 4.87817 8.95154C4.74378 8.66547 4.80312 8.32583 5.02666 8.10234L7.12733 6.00168L6.16971 1.53275Z" fill="#FF4C00"/>
<path d="M23.2494 12.7495C22.8352 12.7495 22.4994 12.4137 22.4994 11.9995C22.4994 6.21003 17.7893 1.49994 11.9998 1.49994C11.5857 1.49994 11.2499 1.16414 11.2499 0.749969C11.2499 0.335799 11.5857 0 11.9998 0C15.2051 0 18.2184 1.24814 20.4848 3.51454C22.7513 5.78095 23.9994 8.79428 23.9994 11.9995C23.9994 12.4137 23.6636 12.7495 23.2494 12.7495Z" fill="#FF4C00"/>
<path d="M20.2495 12.7495C19.8354 12.7495 19.4996 12.4137 19.4996 11.9995C19.4996 7.86418 16.1352 4.49982 11.9998 4.49982C11.5857 4.49982 11.2499 4.16402 11.2499 3.74985C11.2499 3.33568 11.5857 2.99988 11.9998 2.99988C16.9623 2.99988 20.9995 7.0371 20.9995 11.9995C20.9995 12.4137 20.6638 12.7495 20.2495 12.7495Z" fill="#FF4C00"/>
<path d="M17.2496 12.7495C16.8355 12.7495 16.4997 12.4137 16.4997 11.9995C16.4997 9.51828 14.4811 7.49969 11.9998 7.49969C11.5857 7.49969 11.2499 7.16389 11.2499 6.74972C11.2499 6.33555 11.5857 5.99975 11.9998 5.99975C15.3082 5.99975 17.9996 8.69121 17.9996 11.9995C17.9996 12.4137 17.6639 12.7495 17.2496 12.7495Z" fill="#FF4C00"/>
</svg>
